{
.appVersion = "1355";
DisplayStrings = (
"",
"/sinMatraAae/sinAae",
"/sinMatraAae/sinAae/sinBRa/sinMatraUu.sub/sinMatraU.sub",
"/sinAae/sinMatraU.sub/sinMatraUu.sub",
"/sinGhRI",
"/sinJI",
"/sinMatraAi/sinMatraAu/sinMatraE/sinMatraEe/sinMatraI/sinJI",
"/sinMatraLs/sinMatraLl",
"/sinTh"
);
copyright = "Copyright (c) 2015-2021, Yaldevi Fonts Project Authours <https://github.com/mooniak/yaldevi-fonts>";
customParameters = (
{
name = fsType;
value = (
);
},
{
name = license;
value = "This Font Software is licensed under the SIL Open Font License, Version 1.1. This license is available with a FAQ at: http://scripts.sil.org/OFL";
},
{
name = description;
value = "A font family for title and heading texts, supporting Sinhala, Tamil and Latin scripts.";
},
{
name = Axes;
value = (
{
Name = Weight;
Tag = wght;
}
);
},
{
name = unicodeRanges;
value = (
0,
1,
2,
20,
73
);
},
{
name = sampleText;
value = "දැරණියගලට ඉහල අහසේ දඟකරන වලාපෙළ මවනා සොඳුරු දසුන රාත්‍රිය උදාවත් සමග ක්‍ෂයවේ.";
},
{
name = vendorID;
value = MNIK;
},
{
name = licenseURL;
value = "http://scripts.sil.org/OFL";
},
{
name = glyphOrder;
value = (
sinA,
sinAa,
sinAe,
sinAae,
sinI,
sinIi,
sinU,
sinUu,
sinRVocalic,
sinRrVocalic,
sinLVocalic,
sinLlVocalic,
sinE,
sinEe,
sinAi,
sinO,
sinOo,
sinAu,
sinKa,
sinKha,
sinGa,
sinGha,
sinNga,
sinNnga,
sinCa,
sinCha,
sinJa,
sinJha,
sinNya,
sinJnya,
sinNyja,
sinTta,
sinTtha,
sinDda,
sinDdha,
sinNna,
sinNndda,
sinTa,
sinTha,
sinDa,
sinDha,
sinNa,
sinNda,
sinPa,
sinPha,
sinBa,
sinBha,
sinMa,
sinMba,
sinYa,
sinRa,
sinLa,
sinVa,
sinSha,
sinSsa,
sinSa,
sinHa,
sinLla,
sinFa,
sinfPa,
sinKSsa,
sinKVa,
sinTVa,
sinTTha,
sinNDa,
sinNDha,
sinNVa,
sinNTha,
sinGDha,
sinDVa,
sinDDha,
sinTtTtha,
sinNyCa,
sinNyCha,
sinCCa,
sinBBa,
sinMatraAa,
sinMatraAae,
sinMatraAe,
sinMatraAi,
sinMatraAu,
sinMatraE,
sinMatraEe,
sinMatraI,
sinMatraIi,
sinMatraLl,
sinMatraLs,
sinMatraO,
sinMatraOo,
sinMatraR,
sinMatraRr,
sinMatraU,
sinMatraUu,
sinMatraU.sub,
sinMatraUu.sub,
sinVirama,
sinRakar,
sinReph,

glyphs = (
{
glyphname = sinA;
lastChange = "2018-02-04 13:36:43 +0000";
layers = (
{
layerId = "6114C541-D024-4A3E-9713-6FAF49EAB318";
paths = (
{
closed = 1;
nodes = (
"290.479 -205 LINE",
"288.104 416 LINE",
"288.104 416 OFFCURVE",
"300.479 489 OFFCURVE",
"346.174 533.185 CURVE",
"348.64 535.824 OFFCURVE",
"418.721 613.931 OFFCURVE",
"493.274 613.931 CURVE",
"535.479 552 LINE",
"523.824 545.444 OFFCURVE",
"519.996 532.886 OFFCURVE",
"519.996 516.645 CURVE SMOOTH",
"519.996 485.538 OFFCURVE",
"534.04 440.919 OFFCURVE",
"534.04 399.081 CURVE SMOOTH",
"534.04 349.941 OFFCURVE",
"503.11 294.292 OFFCURVE",
"426.016 294.292 CURVE SMOOTH",
"414.825 294.292 OFFCURVE",
"402.662 295.465 OFFCURVE",
"389.479 298 CURVE",
"390.479 378 LINE",
"394.766 377.61 OFFCURVE",
"398.796 377.419 OFFCURVE",
"402.577 377.419 CURVE SMOOTH",
"436.08 377.419 OFFCURVE",
"450.071 392.473 OFFCURVE",
"450.071 418.328 CURVE SMOOTH",
"450.071 438.103 OFFCURVE",
"443.368 460.722 OFFCURVE",
"438.473 478 CURVE SMOOTH",
"437.344 481.984 OFFCURVE",
"436.312 485.684 OFFCURVE",
"435.479 489 CURVE",
"391.997 459 OFFCURVE",
"395.078 403.256 OFFCURVE",
"394.479 327.227 CURVE",
"394.479 -205 LINE"
);
},
{
closed = 1;
nodes = (
"22.22 217 CURVE SMOOTH",
"22.22 330.947 OFFCURVE",
"118.9 421.352 OFFCURVE",
"239.22 421.352 CURVE SMOOTH",
"258.05 421.352 OFFCURVE",
"270.22 420 OFFCURVE",
"288.026 418.437 CURVE",
"289.088 424.679 OFFCURVE",
"289.591 430.648 OFFCURVE",
"289.591 436.312 CURVE SMOOTH",
"289.591 473.944 OFFCURVE",
"267.361 498 OFFCURVE",
"238.835 498 CURVE SMOOTH",
"209.479 498 OFFCURVE",
"193.651 477 OFFCURVE",
"193.651 453.164 CURVE SMOOTH",
"193.651 440.756 OFFCURVE",
"197.168 427.391 OFFCURVE",
"205 418 CURVE",
"127.22 379 LINE",
"107.91 404.207 OFFCURVE",
"100.176 430.604 OFFCURVE",
"100.176 458.407 CURVE SMOOTH",
"100.176 534.137 OFFCURVE",
"152.275 596 OFFCURVE",
"238.835 596 CURVE SMOOTH",
"315.825 596 OFFCURVE",
"387.22 539.336 OFFCURVE",
"387.22 430 CURVE SMOOTH",
"387.22 398.735 OFFCURVE",
"380.22 357 OFFCURVE",
"368.22 318 CURVE",
"368.22 318 OFFCURVE",
"287.751 318 OFFCURVE",
"239.22 318 CURVE SMOOTH",
"183.22 318 OFFCURVE",
"134.22 273 OFFCURVE",
"134.22 217 CURVE SMOOTH",
"134.22 161 OFFCURVE",
"172.817 112 OFFCURVE",
"270.479 112 CURVE SMOOTH",
"389.161 112 OFFCURVE",
"444.109 174.814 OFFCURVE",
"464.479 194 CURVE",
"533.479 111 LINE",
"494.07 70.833 OFFCURVE",
"396.763 0 OFFCURVE",
"270.479 0 CURVE SMOOTH",
"102.928 0 OFFCURVE",
"22.22 96.664 OFFCURVE"
);
}
);
width = 559;
},
{
layerId = "CC11FE7D-5FF0-4B40-9597-DFC61EB94F41";
paths = (
{
closed = 1;
nodes = (
"329 -205 LINE",
"326.645 408 LINE",
"329 425 OFFCURVE",
"340.934 469.962 OFFCURVE",
"351 490 CURVE",
"375 539 OFFCURVE",
"422.001 585.236 OFFCURVE",
"490 599 CURVE",
"500.844 574.562 LINE",
"488.433 565.218 OFFCURVE",
"484 551.492 OFFCURVE",
"484 535 CURVE SMOOTH",
"484 499.147 OFFCURVE",
"514 454.956 OFFCURVE",
"514 411 CURVE SMOOTH",
"514 358.441 OFFCURVE",
"484.578 320.268 OFFCURVE",
"416.747 320.268 CURVE SMOOTH",
"400.689 320.268 OFFCURVE",
"376 326 OFFCURVE",
"362 333 CURVE",
"362 367 LINE",
"380 357 OFFCURVE",
"397.824 354.142 OFFCURVE",
"411.957 354.142 CURVE SMOOTH",
"458.078 354.142 OFFCURVE",
"478 377.225 OFFCURVE",
"478 411 CURVE SMOOTH",
"478 441.547 OFFCURVE",
"452.851 489.447 OFFCURVE",
"452.851 528.16 CURVE SMOOTH",
"452.851 536.641 OFFCURVE",
"454.058 544.681 OFFCURVE",
"457 552 CURVE",
"429 542 OFFCURVE",
"370.5 487.69 OFFCURVE",
"366 422.986 CURVE",
"366 -205 LINE"
);
},
{
closed = 1;
nodes = (
"33 212 CURVE SMOOTH",
"33 312.682 OFFCURVE",
"106 411 OFFCURVE",
"229.945 411 CURVE SMOOTH",
"254 411 OFFCURVE",
"302 411 OFFCURVE",
"325.802 411 CURVE",
"327.802 422 OFFCURVE",
"331 438.288 OFFCURVE",
"331 454 CURVE SMOOTH",
"331 524.746 OFFCURVE",
"288.918 557 OFFCURVE",
"240.556 557 CURVE SMOOTH",
"200.171 557 OFFCURVE",
"157.723 530.043 OFFCURVE",
"157.723 474 CURVE SMOOTH",
"157.723 431.347 OFFCURVE",
"179.467 406.53 OFFCURVE",
"188.63 398 CURVE",
"164.723 376 LINE",
"152.723 387 OFFCURVE",
"124.247 419 OFFCURVE",
"124.247 474 CURVE SMOOTH",
"124.247 553 OFFCURVE",
"183.85 591 OFFCURVE",
"240.556 591 CURVE SMOOTH",
"305.112 591 OFFCURVE",
"365 548.099 OFFCURVE",
"365 454 CURVE SMOOTH",
"365 424.453 OFFCURVE",
"360 399.965 OFFCURVE",
"351 374 CURVE",
"351 374 OFFCURVE",
"273 374 OFFCURVE",
"229.945 374 CURVE SMOOTH",
"130.144 374 OFFCURVE",
"70 295.036 OFFCURVE",
"70 212 CURVE SMOOTH",
"70 107.483 OFFCURVE",
"148.333 40 OFFCURVE",
"255 40 CURVE SMOOTH",
"383 40 OFFCURVE",
"442.476 105.71 OFFCURVE",
"475 138 CURVE",
"498 113 LINE",
"462.963 76.92 OFFCURVE",
"399 3 OFFCURVE",
"255 3 CURVE SMOOTH",
"127 3 OFFCURVE",
"33 85 OFFCURVE"
);
}
);
width = 547;
}
);
unicode = 0D85;
},
{
glyphname = sinI;
lastChange = "2018-02-04 13:36:43 +0000";
layers = (
{
layerId = "6114C541-D024-4A3E-9713-6FAF49EAB318";
paths = (
{
closed = 1;
nodes = (
"80.055 -109.563 CURVE",
"157.055 -57.563 LINE",
"179.74 -88.153 OFFCURVE",
"204.052 -99.925 OFFCURVE",
"224.94 -99.925 CURVE SMOOTH",
"255.566 -99.925 OFFCURVE",
"278.834 -74.619 OFFCURVE",
"278.834 -46.205 CURVE SMOOTH",
"278.834 -22.309 OFFCURVE",
"268.856 12.568 OFFCURVE",
"209.506 12.568 CURVE SMOOTH",
"201.286 12.568 OFFCURVE",
"192.12 11.899 OFFCURVE",
"181.901 10.439 CURVE",
"195 69 LINE",
"305 54 LINE",
"356 47.986 OFFCURVE",
"385.675 0 OFFCURVE",
"385.675 -50.583 CURVE SMOOTH",
"385.675 -144.59 OFFCURVE",
"314.849 -203.817 OFFCURVE",
"235.823 -203.817 CURVE SMOOTH",
"180.838 -203.817 OFFCURVE",
"121.883 -175.144 OFFCURVE"
);
},
{
closed = 1;
nodes = (
"22.499 354.123 CURVE SMOOTH",
"22.499 475.952 OFFCURVE",
"105.065 594 OFFCURVE",
"246.099 594 CURVE SMOOTH",
"386.48 594 OFFCURVE",
"502 496 OFFCURVE",
"502 297.078 CURVE SMOOTH",
"502 130 OFFCURVE",
"397.426 44.457 OFFCURVE",
"319 34 CURVE SMOOTH",
"254.856 25.448 OFFCURVE",
"231 20 OFFCURVE",
"181.901 10.439 CURVE",
"180 106 LINE",
"268 106 OFFCURVE",
"387 129 OFFCURVE",
"387 297.078 CURVE SMOOTH",
"387 416 OFFCURVE",
"323.38 482 OFFCURVE",
"246.099 482 CURVE SMOOTH",
"159.623 482 OFFCURVE",
"118.004 430 OFFCURVE",
"118.004 375 CURVE SMOOTH",
"118.004 374.667 OFFCURVE",
"128 298.333 OFFCURVE",
"128 298 CURVE",
"126 212 LINE",
"52.099 233 LINE",
"32.049 270.815 OFFCURVE",
"22.499 312.687 OFFCURVE"
);
},
{
closed = 1;
nodes = (
"139.141 294.859 CURVE SMOOTH",
"139.141 270.492 OFFCURVE",
"158.634 251 OFFCURVE",
"183 251 CURVE SMOOTH",
"207.367 251 OFFCURVE",
"226.861 270.492 OFFCURVE",
"226.861 294.859 CURVE SMOOTH",
"226.861 319.227 OFFCURVE",
"207.367 338.721 OFFCURVE",
"183 338.721 CURVE SMOOTH",
"158.634 338.721 OFFCURVE",
"139.141 319.227 OFFCURVE"
);
},
{
closed = 1;
nodes = (
"37.113 298.488 CURVE SMOOTH",
"37.113 335.546 OFFCURVE",
"67.424 359.979 OFFCURVE",
"111 387 CURVE",
"131.46 419.225 OFFCURVE",
"167.861 433.397 OFFCURVE",
"204.148 433.397 CURVE SMOOTH",
"238.803 433.397 OFFCURVE",
"273.354 420.471 OFFCURVE",
"293.816 398 CURVE SMOOTH",
"317.64 371.839 OFFCURVE",
"332.099 336.971 OFFCURVE",
"332.099 298.488 CURVE SMOOTH",
"332.099 216.55 OFFCURVE",
"266.543 151 OFFCURVE",
"184.602 151 CURVE SMOOTH",
"112.419 151 OFFCURVE",
"52.955 201.87 OFFCURVE",
"39.818 270 CURVE SMOOTH",
"38.043 279.208 OFFCURVE",
"37.113 288.732 OFFCURVE"
);
}
);
width = 524;
},
{
layerId = "CC11FE7D-5FF0-4B40-9597-DFC61EB94F41";
paths = (
{
closed = 1;
nodes = (
"107 -137.54 CURVE",
"135 -114 LINE",
"162.146 -148.369 OFFCURVE",
"195.619 -163.339 OFFCURVE",
"226.71 -163.339 CURVE SMOOTH",
"285.534 -163.339 OFFCURVE",
"320 -121.752 OFFCURVE",
"320 -70 CURVE SMOOTH",
"320 -27.862 OFFCURVE",
"309.14 19.878 OFFCURVE",
"225 27.071 CURVE SMOOTH",
"217.872 27.681 OFFCURVE",
"210.218 28 OFFCURVE",
"202 28 CURVE",
"225 56 LINE",
"271 45 LINE",
"314 43 OFFCURVE",
"357 6 OFFCURVE",
"357 -70 CURVE SMOOTH",
"357 -142.267 OFFCURVE",
"308.684 -200.339 OFFCURVE",
"226.71 -200.339 CURVE SMOOTH",
"186.127 -200.339 OFFCURVE",
"142.435 -181.285 OFFCURVE"
);
},
{
closed = 1;
nodes = (
"33 375 CURVE SMOOTH",
"33 476.045 OFFCURVE",
"101.125 591 OFFCURVE",
"251 591 CURVE SMOOTH",
"372.7 591 OFFCURVE",
"480 515.195 OFFCURVE",
"480 322 CURVE SMOOTH",
"480 162.839 OFFCURVE",
"394.594 69.904 OFFCURVE",
"276 38.798 CURVE SMOOTH",
"252.239 32.565 OFFCURVE",
"227.384 28.987 OFFCURVE",
"202 28 CURVE",
"200.999 65.774 LINE",
"304 65.774 OFFCURVE",
"443 136.219 OFFCURVE",
"443 322 CURVE SMOOTH",
"443 488.622 OFFCURVE",
"353.037 554 OFFCURVE",
"251 554 CURVE SMOOTH",
"133.621 554 OFFCURVE",
"67 467.325 OFFCURVE",
"67 375 CURVE SMOOTH",
"67 302.069 OFFCURVE",
"102 248 OFFCURVE",
"102 248 CURVE",
"114 218 LINE",
"80.5 223 LINE",
"49.17 260 OFFCURVE",
"33 307 OFFCURVE"
);
},
{
closed = 1;
nodes = (
"88.099 299.957 CURVE SMOOTH",
"88.099 251.448 OFFCURVE",
"127.188 212.307 OFFCURVE",
"175.749 212.307 CURVE SMOOTH",
"224.254 212.307 OFFCURVE",
"263.401 251.394 OFFCURVE",
"263.401 299.957 CURVE SMOOTH",
"263.401 348.466 OFFCURVE",
"224.311 387.611 OFFCURVE",
"175.749 387.611 CURVE SMOOTH",
"127.24 387.611 OFFCURVE",
"88.099 348.518 OFFCURVE"
);
},
{
closed = 1;
nodes = (
"56.856 275.716 CURVE SMOOTH",
"56.856 283.542 OFFCURVE",
"58 291.635 OFFCURVE",
"58 300 CURVE",
"58 367.725 OFFCURVE",
"104 423.869 OFFCURVE",
"176 423.869 CURVE SMOOTH",
"202.995 423.869 OFFCURVE",
"227.884 414.98 OFFCURVE",
"248.058 400 CURVE SMOOTH",
"278.496 377.397 OFFCURVE",
"298.198 340.928 OFFCURVE",
"298.198 300.198 CURVE SMOOTH",
"298.198 232.474 OFFCURVE",
"243.725 178 OFFCURVE",
"176 178 CURVE SMOOTH",
"122.373 178 OFFCURVE",
"76.132 212.156 OFFCURVE",
"59.203 260 CURVE SMOOTH",
"57.394 265.114 OFFCURVE",
"56.856 270.353 OFFCURVE"
);
}
);
width = 513;
}
);
unicode = 0D89;
},
{
glyphname = sinIi;
lastChange = "2018-02-04 13:36:43 +0000";
layers = (
{
components = (
{
name = sinRa;
}
);
layerId = "6114C541-D024-4A3E-9713-6FAF49EAB318";
paths = (
{
closed = 1;
nodes = (
"195.414 663 OFFCURVE",
"225 699.5 OFFCURVE",
"225 736 CURVE SMOOTH",
"225 765 OFFCURVE",
"201.033 779 OFFCURVE",
"170 779 CURVE SMOOTH",
"133.604 779 OFFCURVE",
"101 762 OFFCURVE",
"101 721 CURVE SMOOTH",
"101 689 OFFCURVE",
"127 663 OFFCURVE",
"159 663 CURVE SMOOTH"
);
},
{
closed = 1;
nodes = (
"501 663 OFFCURVE",
"527 689 OFFCURVE",
"527 721 CURVE SMOOTH",
"527 753 OFFCURVE",
"501 779 OFFCURVE",
"469 779 CURVE SMOOTH",
"437 779 OFFCURVE",
"411 753 OFFCURVE",
"411 721 CURVE SMOOTH",
"411 689 OFFCURVE",
"437 663 OFFCURVE",
"469 663 CURVE SMOOTH"
);
}
);
width = 502;
},
{
components = (
{
name = sinRa;
}
);
layerId = "CC11FE7D-5FF0-4B40-9597-DFC61EB94F41";
paths = (
{
closed = 1;
nodes = (
"230.02 703.053 OFFCURVE",
"245.474 718.506 OFFCURVE",
"245.474 737.526 CURVE SMOOTH",
"245.474 756.546 OFFCURVE",
"230.02 772 OFFCURVE",
"211 772 CURVE SMOOTH",
"191.98 772 OFFCURVE",
"176.526 756.546 OFFCURVE",
"176.526 737.526 CURVE SMOOTH",
"176.526 718.506 OFFCURVE",
"191.98 703.053 OFFCURVE",
"211 703.053 CURVE SMOOTH"
);
},
{
closed = 1;
nodes = (
"464.494 703.053 OFFCURVE",
"479.947 718.506 OFFCURVE",
"479.947 737.526 CURVE SMOOTH",
"479.947 756.546 OFFCURVE",
"464.494 772 OFFCURVE",
"445.474 772 CURVE SMOOTH",
"426.454 772 OFFCURVE",
"411 756.546 OFFCURVE",
"411 737.526 CURVE SMOOTH",
"411 718.506 OFFCURVE",
"426.454 703.053 OFFCURVE",
"445.474 703.053 CURVE SMOOTH"
);
}
);
width = 497;
}
);
unicode = 0D8A;
},
{
glyphname = sinU;
lastChange = "2018-02-04 13:36:43 +0000";
layers = (
{
layerId = "6114C541-D024-4A3E-9713-6FAF49EAB318";
paths = (
{
closed = 1;
nodes = (
"30 135 CURVE SMOOTH",
"30 295.02 OFFCURVE",
"112.569 423.352 OFFCURVE",
"319.035 423.352 CURVE SMOOTH",
"337.865 423.352 OFFCURVE",
"350.035 422 OFFCURVE",
"367.842 420.437 CURVE",
"368.903 426.679 OFFCURVE",
"369.406 432.648 OFFCURVE",
"369.406 438.312 CURVE SMOOTH",
"369.406 475.944 OFFCURVE",
"347.177 500 OFFCURVE",
"318.65 500 CURVE SMOOTH",
"289.295 500 OFFCURVE",
"273.467 479 OFFCURVE",
"273.467 455.164 CURVE SMOOTH",
"273.467 442.756 OFFCURVE",
"276.983 429.391 OFFCURVE",
"284.815 420 CURVE",
"207.035 381 LINE",
"187.726 406.207 OFFCURVE",
"179.991 432.604 OFFCURVE",
"179.991 460.407 CURVE SMOOTH",
"179.991 536.137 OFFCURVE",
"232.091 598 OFFCURVE",
"318.65 598 CURVE SMOOTH",
"395.641 598 OFFCURVE",
"467.035 541.336 OFFCURVE",
"467.035 432 CURVE SMOOTH",
"467.035 400.735 OFFCURVE",
"460.035 359 OFFCURVE",
"448.035 320 CURVE",
"448.035 320 OFFCURVE",
"367.566 320 OFFCURVE",
"319.035 320 CURVE SMOOTH",
"201 320 OFFCURVE",
"147 242.906 OFFCURVE",
"147 135 CURVE SMOOTH",
"147 42.46 OFFCURVE",
"195.21 -36 OFFCURVE",
"301 -36 CURVE SMOOTH",
"376.148 -36 OFFCURVE",
"428.736 11.996 OFFCURVE",
"437.563 75 CURVE",
"551 59 LINE",
"538.665 -55.101 OFFCURVE",
"448.084 -152 OFFCURVE",
"301 -152 CURVE SMOOTH",
"114.838 -152 OFFCURVE",
"30 -20.315 OFFCURVE"
);
}
);
width = 553;
},
{
layerId = "CC11FE7D-5FF0-4B40-9597-DFC61EB94F41";
paths = (
{
closed = 1;
nodes = (
"33 132.999 CURVE SMOOTH",
"33 327 OFFCURVE",
"156.295 411 OFFCURVE",
"280.24 411 CURVE SMOOTH",
"304.521 411 OFFCURVE",
"352.295 411 OFFCURVE",
"376.097 411 CURVE",
"378.097 422 OFFCURVE",
"381.295 438.288 OFFCURVE",
"381.295 454 CURVE SMOOTH",
"381.295 524.746 OFFCURVE",
"339.213 557 OFFCURVE",
"290.851 557 CURVE SMOOTH",
"250.466 557 OFFCURVE",
"208.018 530.043 OFFCURVE",
"208.018 474 CURVE SMOOTH",
"208.018 431.347 OFFCURVE",
"229.762 406.53 OFFCURVE",
"238.925 398 CURVE",
"215.018 376 LINE",
"203.018 387 OFFCURVE",
"174.542 419 OFFCURVE",
"174.542 474 CURVE SMOOTH",
"174.542 553 OFFCURVE",
"234.145 591 OFFCURVE",
"290.851 591 CURVE SMOOTH",
"355.407 591 OFFCURVE",
"415.295 548.099 OFFCURVE",
"415.295 454 CURVE SMOOTH",
"415.295 424.453 OFFCURVE",
"410.295 399.965 OFFCURVE",
"401.295 374 CURVE",
"401.295 374 OFFCURVE",
"323.295 374 OFFCURVE",
"280.24 374 CURVE SMOOTH",
"176.348 374 OFFCURVE",
"73 301.18 OFFCURVE",
"73 133 CURVE SMOOTH",
"73 8.267 OFFCURVE",
"134.573 -113 OFFCURVE",
"274 -113 CURVE SMOOTH",
"389.818 -113 OFFCURVE",
"451.86 -36.183 OFFCURVE",
"470 35 CURVE",
"507 29 LINE",
"485.436 -57.574 OFFCURVE",
"420 -151 OFFCURVE",
"274 -151 CURVE SMOOTH",
"106.826 -151 OFFCURVE",
"33 -11.002 OFFCURVE"
);
}
);
width = 540;
}
);
unicode = 0D8B;
},
{
glyphname = sinRVocalic;
lastChange = "2021-05-27 12:08:06 +0000";
layers = (
{
layerId = "6114C541-D024-4A3E-9713-6FAF49EAB318";
paths = (
{
closed = 1;
nodes = (
"241.496 0 OFFCURVE",
"280.908 31.603 OFFCURVE",
"297.055 79.03 CURVE",
"313.2 31.602 OFFCURVE",
"352.612 -0.001 OFFCURVE",
"405.292 -0.001 CURVE SMOOTH",
"516.905 -0.001 OFFCURVE",
"561.774 95.096 OFFCURVE",
"561.774 206.999 CURVE SMOOTH",
"561.774 287.784 OFFCURVE",
"542.436 344.021 OFFCURVE",
"500.001 380.399 CURVE SMOOTH",
"476.776 400.309 OFFCURVE",
"446.001 416 OFFCURVE",
"411.817 416 CURVE SMOOTH",
"182.292 416 LINE SMOOTH",
"148.001 416 OFFCURVE",
"117.332 400.31 OFFCURVE",
"94.108 380.399 CURVE SMOOTH",
"51.674 344.021 OFFCURVE",
"32.335 287.785 OFFCURVE",
"32.335 207 CURVE SMOOTH",
"32.335 95.096 OFFCURVE",
"77.204 0 OFFCURVE",
"188.817 0 CURVE SMOOTH"
);
},
{
closed = 1;
nodes = (
"153.522 115 OFFCURVE",
"139.334 157.265 OFFCURVE",
"139.334 207 CURVE SMOOTH",
"139.334 258.726 OFFCURVE",
"159 318 OFFCURVE",
"199.572 318 CURVE SMOOTH",
"394.535 318 LINE SMOOTH",
"435 318 OFFCURVE",
"454.773 258.726 OFFCURVE",
"454.773 207 CURVE SMOOTH",
"454.773 157.265 OFFCURVE",
"440.585 115 OFFCURVE",
"405.291 115 CURVE SMOOTH",
"358.591 115 OFFCURVE",
"342.66 176.75 OFFCURVE",
"342.66 249.5 CURVE",
"251.447 249.5 LINE",
"251.447 176.75 OFFCURVE",
"235.517 115 OFFCURVE",
"188.816 115 CURVE SMOOTH"
);
},
{
closed = 1;
nodes = (
"165.816 410.437 LINE",
"157.833 419.784 OFFCURVE",
"151.197 439.812 OFFCURVE",
"151.197 452.164 CURVE SMOOTH",
"151.197 476 OFFCURVE",
"165.41 497 OFFCURVE",
"200.554 497 CURVE SMOOTH",
"223.292 497 OFFCURVE",
"252.118 481.787 OFFCURVE",
"252.118 434.342 CURVE SMOOTH",
"252.118 428.679 OFFCURVE",
"251.615 422.242 OFFCURVE",
"250.554 416 CURVE",
"297.054 318.437 LINE",
"309.665 359.423 OFFCURVE",
"339.733 425.625 OFFCURVE",
"339.733 467.354 CURVE SMOOTH",
"339.733 473.071 OFFCURVE",
"339.169 478.329 OFFCURVE",
"337.918 483 CURVE SMOOTH",
"318.292 556.277 OFFCURVE",
"259.199 594 OFFCURVE",
"196.381 594 CURVE SMOOTH",
"109.821 594 OFFCURVE",
"57.722 532.137 OFFCURVE",
"57.722 456.407 CURVE SMOOTH",
"57.722 428.149 OFFCURVE",
"68.97 394.649 OFFCURVE",
"89.107 369.03 CURVE"
);
},
{
closed = 1;
nodes = (
"722.086 3 OFFCURVE",
"747.719 17.26 OFFCURVE",
"770.888 17.26 CURVE SMOOTH",
"781.399 17.26 OFFCURVE",
"791.303 13.038 OFFCURVE",
"801 0 CURVE",
"760 104 LINE",
"756.707 102.56 OFFCURVE",
"751.382 100.315 OFFCURVE",
"745 98.4 CURVE SMOOTH",
"738.348 96.404 OFFCURVE",
"730.548 94.764 OFFCURVE",
"722.705 94.764 CURVE SMOOTH",
"703.494 94.764 OFFCURVE",
"684 105.761 OFFCURVE",
"684 151 CURVE SMOOTH",
"684 185.986 OFFCURVE",
"701.94 196 OFFCURVE",
"719.95 196 CURVE SMOOTH",
"732.789 196 OFFCURVE",
"745.661 190.536 OFFCURVE",
"753 185 CURVE",
"768 269 LINE",
"755.631 282.743 OFFCURVE",
"730.63 292.603 OFFCURVE",
"703.138 292.603 CURVE SMOOTH",
"650.615 292.603 OFFCURVE",
"589 256.62 OFFCURVE",
"589 143 CURVE SMOOTH",
"589 90 OFFCURVE",
"615 3 OFFCURVE",
"691 3 CURVE SMOOTH"
);
},
{
closed = 1;
nodes = (
"525.138 394.649 OFFCURVE",
"536.386 428.149 OFFCURVE",
"536.386 456.407 CURVE SMOOTH",
"536.386 532.137 OFFCURVE",
"484.286 594 OFFCURVE",
"397.727 594 CURVE SMOOTH",
"334.908 594 OFFCURVE",
"275.815 556.277 OFFCURVE",
"256.189 483 CURVE SMOOTH",
"254.938 478.329 OFFCURVE",
"254.374 473.071 OFFCURVE",
"254.374 467.354 CURVE SMOOTH",
"254.374 425.625 OFFCURVE",
"284.442 359.423 OFFCURVE",
"297.054 318.437 CURVE",
"343.554 416 LINE",
"342.492 422.242 OFFCURVE",
"341.989 428.679 OFFCURVE",
"341.989 434.342 CURVE SMOOTH",
"341.989 481.03 OFFCURVE",
"370.815 496 OFFCURVE",
"393.554 496 CURVE SMOOTH",
"428.697 496 OFFCURVE",
"442.91 475 OFFCURVE",
"442.91 451.164 CURVE SMOOTH",
"442.91 439.108 OFFCURVE",
"436.274 419.561 OFFCURVE",
"428.291 410.437 CURVE",
"505 369.03 LINE"
);
},
{
closed = 1;
nodes = (
"876 48 LINE",
"846.274 88.479 OFFCURVE",
"837.709 133.736 OFFCURVE",
"837.709 183.678 CURVE SMOOTH",
"837.709 247.06 OFFCURVE",
"851.965 322.785 OFFCURVE",
"851.965 397.941 CURVE SMOOTH",
"851.965 509.858 OFFCURVE",
"809.813 552.93 OFFCURVE",
"724 552.93 CURVE SMOOTH",
"639.639 552.93 OFFCURVE",
"595.504 505.582 OFFCURVE",
"595.504 401.917 CURVE SMOOTH",
"595.504 390.916 OFFCURVE",
"596.001 379.28 OFFCURVE",
"597 367 CURVE",
"690 367 LINE",
"688.633 379.643 OFFCURVE",
"687.837 391.093 OFFCURVE",
"687.837 401.237 CURVE SMOOTH",
"687.837 435.611 OFFCURVE",
"696.976 455 OFFCURVE",
"724 455 CURVE SMOOTH",
"747.296 455 OFFCURVE",
"755 435.521 OFFCURVE",
"755 400.967 CURVE SMOOTH",
"755 316.854 OFFCURVE",
"734.165 227.095 OFFCURVE",
"734.165 172 CURVE SMOOTH",
"734.165 109.83 OFFCURVE",
"749.346 61.327 OFFCURVE",
"801 0 CURVE"
);
}
);
width = 896;
},
{
layerId = "CC11FE7D-5FF0-4B40-9597-DFC61EB94F41";
paths = (
{
closed = 1;
nodes = (
"263.145 3 OFFCURVE",
"282.145 85 OFFCURVE",
"285.979 115 CURVE",
"289.812 85 OFFCURVE",
"308.812 3 OFFCURVE",
"403.979 3 CURVE SMOOTH",
"494.936 3 OFFCURVE",
"538.957 86.684 OFFCURVE",
"538.957 194.103 CURVE SMOOTH",
"538.957 260.151 OFFCURVE",
"523.447 348.409 OFFCURVE",
"471 385.997 CURVE SMOOTH",
"454.349 397.93 OFFCURVE",
"434 405 OFFCURVE",
"408.828 405 CURVE SMOOTH",
"163.129 405 LINE SMOOTH",
"138 405 OFFCURVE",
"117.607 397.93 OFFCURVE",
"100.957 385.997 CURVE SMOOTH",
"48.51 348.409 OFFCURVE",
"33 260.151 OFFCURVE",
"33 194.103 CURVE SMOOTH",
"33 86.684 OFFCURVE",
"77.021 3 OFFCURVE",
"167.979 3 CURVE SMOOTH"
);
},
{
closed = 1;
nodes = (
"101.954 40 OFFCURVE",
"70 107.481 OFFCURVE",
"70 194.103 CURVE SMOOTH",
"70 252 OFFCURVE",
"81.13 369 OFFCURVE",
"164.979 369 CURVE SMOOTH",
"406.979 369 LINE SMOOTH",
"491.145 369 OFFCURVE",
"501.957 252 OFFCURVE",
"501.957 194.103 CURVE SMOOTH",
"501.957 107.481 OFFCURVE",
"470.003 40 OFFCURVE",
"403.979 40 CURVE SMOOTH",
"312.812 40 OFFCURVE",
"306.221 148.886 OFFCURVE",
"302.979 224.5 CURVE",
"268.979 224.5 LINE",
"265.736 148.886 OFFCURVE",
"259.145 40 OFFCURVE",
"167.979 40 CURVE SMOOTH"
);
},
{
closed = 1;
nodes = (
"140.089 382 LINE",
"113.089 402 OFFCURVE",
"95.7 437.959 OFFCURVE",
"95.7 474 CURVE SMOOTH",
"95.7 530.043 OFFCURVE",
"138.148 557 OFFCURVE",
"178.533 557 CURVE SMOOTH",
"226.896 557 OFFCURVE",
"268.978 524.746 OFFCURVE",
"268.978 454 CURVE SMOOTH",
"269 437 OFFCURVE",
"269 419 OFFCURVE",
"268.978 402 CURVE",
"285.978 369 LINE",
"295.693 397.663 OFFCURVE",
"302.978 421.384 OFFCURVE",
"302.978 454 CURVE SMOOTH",
"302.978 466.186 OFFCURVE",
"301.974 477.514 OFFCURVE",
"300.085 488 CURVE SMOOTH",
"287.389 558.491 OFFCURVE",
"234.729 591 OFFCURVE",
"178.533 591 CURVE SMOOTH",
"121.827 591 OFFCURVE",
"62.225 553 OFFCURVE",
"62.225 474 CURVE SMOOTH",
"62.225 429.732 OFFCURVE",
"82.542 385.565 OFFCURVE",
"114.089 361 CURVE"
);
},
{
closed = 1;
nodes = (
"709.667 6 OFFCURVE",
"736.333 26 OFFCURVE",
"759.296 26 CURVE SMOOTH",
"770.777 26 OFFCURVE",
"781.333 21 OFFCURVE",
"792 6 CURVE",
"770 55 LINE",
"765.737 57.771 OFFCURVE",
"760.204 58.86 OFFCURVE",
"753.901 58.86 CURVE SMOOTH",
"730.631 58.86 OFFCURVE",
"696.885 44 OFFCURVE",
"678 44 CURVE SMOOTH",
"634 44 OFFCURVE",
"615 81.143 OFFCURVE",
"615 144 CURVE SMOOTH",
"615 198.199 OFFCURVE",
"639.921 248.33 OFFCURVE",
"689.398 248.33 CURVE SMOOTH",
"708.188 248.33 OFFCURVE",
"733.396 241.635 OFFCURVE",
"757 214 CURVE",
"764 250 LINE",
"747.903 271.368 OFFCURVE",
"717.48 283.912 OFFCURVE",
"682.996 283.912 CURVE SMOOTH",
"618.66 283.912 OFFCURVE",
"578 221.254 OFFCURVE",
"578 144 CURVE SMOOTH",
"578 92.902 OFFCURVE",
"596 6 OFFCURVE",
"671 6 CURVE SMOOTH"
);
},
{
closed = 1;
nodes = (
"489.414 385.565 OFFCURVE",
"509.731 429.732 OFFCURVE",
"509.731 474 CURVE SMOOTH",
"509.731 553 OFFCURVE",
"450.129 591 OFFCURVE",
"393.423 591 CURVE SMOOTH",
"337.227 591 OFFCURVE",
"284.568 558.491 OFFCURVE",
"271.872 488 CURVE SMOOTH",
"269.983 477.513 OFFCURVE",
"268.978 466.186 OFFCURVE",
"268.978 454 CURVE SMOOTH",
"268.978 421.384 OFFCURVE",
"276.262 397.663 OFFCURVE",
"285.979 369 CURVE",
"302.979 402 LINE",
"303 419 OFFCURVE",
"303 437 OFFCURVE",
"302.979 454 CURVE SMOOTH",
"302.979 524.746 OFFCURVE",
"345.061 557 OFFCURVE",
"393.423 557 CURVE SMOOTH",
"433.808 557 OFFCURVE",
"476.256 530.043 OFFCURVE",
"476.256 474 CURVE SMOOTH",
"476.256 437.959 OFFCURVE",
"458.867 402 OFFCURVE",
"431.867 382 CURVE",
"457.867 361 LINE"
);
},
{
closed = 1;
nodes = (
"822 26 LINE",
"797.553 62.264 OFFCURVE",
"790.31 100.021 OFFCURVE",
"790.31 144.819 CURVE SMOOTH",
"790.31 209.969 OFFCURVE",
"805.628 290.009 OFFCURVE",
"805.628 402 CURVE SMOOTH",
"805.628 505.243 OFFCURVE",
"765.701 550 OFFCURVE",
"696 550 CURVE SMOOTH",
"609.113 550 OFFCURVE",
"583.903 484.782 OFFCURVE",
"583.903 408 CURVE SMOOTH",
"583.903 394.645 OFFCURVE",
"584.666 385.076 OFFCURVE",
"586 371 CURVE",
"623 371 LINE",
"622.115 382.166 OFFCURVE",
"621.608 397.405 OFFCURVE",
"621.608 408 CURVE SMOOTH",
"621.608 464.774 OFFCURVE",
"638.339 513 OFFCURVE",
"696 513 CURVE SMOOTH",
"742.177 513 OFFCURVE",
"768.628 479.433 OFFCURVE",
"768.628 402 CURVE SMOOTH",
"768.628 291.889 OFFCURVE",
"750.566 212.071 OFFCURVE",
"750.566 143.508 CURVE SMOOTH",
"750.566 94.213 OFFCURVE",
"759.903 50.735 OFFCURVE",
"792 6 CURVE"
);
}
);
width = 855;
}
);
unicode = 0D8D;
},
{
glyphname = sinRrVocalic;
lastChange = "2021-05-27 12:08:11 +0000";
layers = (
{
components = (
{
name = sinMatraRr;
transform = "{1, 0, 0, 1, 590, 0}";
}
);
layerId = "6114C541-D024-4A3E-9713-6FAF49EAB318";
paths = (
{
closed = 1;
nodes = (
"241 0 OFFCURVE",
"281 32 OFFCURVE",
"297 79 CURVE",
"313 32 OFFCURVE",
"353 0 OFFCURVE",
"405 0 CURVE SMOOTH",
"517 0 OFFCURVE",
"562 95 OFFCURVE",
"562 207 CURVE SMOOTH",
"562 288 OFFCURVE",
"542 344 OFFCURVE",
"500 380 CURVE SMOOTH",
"477 400 OFFCURVE",
"446.001 416 OFFCURVE",
"412 416 CURVE SMOOTH",
"182 416 LINE SMOOTH",
"148.001 416 OFFCURVE",
"117 400 OFFCURVE",
"94 380 CURVE SMOOTH",
"52 344 OFFCURVE",
"32 288 OFFCURVE",
"32 207 CURVE SMOOTH",
"32 95 OFFCURVE",
"77 0 OFFCURVE",
"189 0 CURVE SMOOTH"
);
},
{
closed = 1;
nodes = (
"154 115 OFFCURVE",
"139 157 OFFCURVE",
"139 207 CURVE SMOOTH",
"139 259 OFFCURVE",
"159 318 OFFCURVE",
"200 318 CURVE SMOOTH",
"395 318 LINE SMOOTH",
"435 318 OFFCURVE",
"455 259 OFFCURVE",
"455 207 CURVE SMOOTH",
"455 157 OFFCURVE",
"441 115 OFFCURVE",
"405 115 CURVE SMOOTH",
"359 115 OFFCURVE",
"343 177 OFFCURVE",
"343 250 CURVE",
"251 250 LINE",
"251 177 OFFCURVE",
"236 115 OFFCURVE",
"189 115 CURVE SMOOTH"
);
},
{
closed = 1;
nodes = (
"166 410 LINE",
"158 420 OFFCURVE",
"151 440 OFFCURVE",
"151 452 CURVE SMOOTH",
"151 476 OFFCURVE",
"165 497 OFFCURVE",
"201 497 CURVE SMOOTH",
"223 497 OFFCURVE",
"252 482 OFFCURVE",
"252 434 CURVE SMOOTH",
"252 429 OFFCURVE",
"252 422 OFFCURVE",
"251 416 CURVE",
"297 318 LINE",
"310 359 OFFCURVE",
"340 426 OFFCURVE",
"340 467 CURVE SMOOTH",
"340 473 OFFCURVE",
"339 478 OFFCURVE",
"338 483 CURVE",
"318 556 OFFCURVE",
"259 594 OFFCURVE",
"196 594 CURVE SMOOTH",
"110 594 OFFCURVE",
"58 532 OFFCURVE",
"58 456 CURVE SMOOTH",
"58 428 OFFCURVE",
"69 395 OFFCURVE",
"89 369 CURVE"
);
},
{
closed = 1;
nodes = (
"525 395 OFFCURVE",
"536 428 OFFCURVE",
"536 456 CURVE SMOOTH",
"536 532 OFFCURVE",
"484 594 OFFCURVE",
"398 594 CURVE SMOOTH",
"335 594 OFFCURVE",
"276 556 OFFCURVE",
"256 483 CURVE",
"255 478 OFFCURVE",
"254 473 OFFCURVE",
"254 467 CURVE SMOOTH",
"254 426 OFFCURVE",
"284 359 OFFCURVE",
"297 318 CURVE",
"344 416 LINE",
"342 422 OFFCURVE",
"342 429 OFFCURVE",
"342 434 CURVE SMOOTH",
"342 481 OFFCURVE",
"371 496 OFFCURVE",
"394 496 CURVE SMOOTH",
"429 496 OFFCURVE",
"443 475 OFFCURVE",
"443 451 CURVE SMOOTH",
"443 439 OFFCURVE",
"436 420 OFFCURVE",
"428 410 CURVE",
"505 369 LINE"
);
}
);
width = 1190;
},
{
components = (
{
name = sinMatraRr;
transform = "{1, 0, 0, 1, 580, 0}";
}
);
layerId = "CC11FE7D-5FF0-4B40-9597-DFC61EB94F41";
paths = (
{
closed = 1;
nodes = (
"263 3 OFFCURVE",
"282 85 OFFCURVE",
"286 115 CURVE",
"290 85 OFFCURVE",
"309 3 OFFCURVE",
"404 3 CURVE SMOOTH",
"495 3 OFFCURVE",
"539 87 OFFCURVE",
"539 194 CURVE SMOOTH",
"539 260 OFFCURVE",
"523 348 OFFCURVE",
"471 385.997 CURVE SMOOTH",
"454 398 OFFCURVE",
"434 405 OFFCURVE",
"409 405 CURVE SMOOTH",
"163 405 LINE SMOOTH",
"138 405 OFFCURVE",
"118 398 OFFCURVE",
"101 386 CURVE SMOOTH",
"49 348 OFFCURVE",
"33 260 OFFCURVE",
"33 194 CURVE SMOOTH",
"33 87 OFFCURVE",
"77 3 OFFCURVE",
"168 3 CURVE SMOOTH"
);
},
{
closed = 1;
nodes = (
"102 40 OFFCURVE",
"70 107 OFFCURVE",
"70 194 CURVE SMOOTH",
"70 252 OFFCURVE",
"81 369 OFFCURVE",
"165 369 CURVE SMOOTH",
"407 369 LINE SMOOTH",
"491 369 OFFCURVE",
"502 252 OFFCURVE",
"502 194 CURVE SMOOTH",
"502 107 OFFCURVE",
"470.003 40 OFFCURVE",
"404 40 CURVE SMOOTH",
"313 40 OFFCURVE",
"306 149 OFFCURVE",
"303 225 CURVE",
"269 225 LINE",
"266 149 OFFCURVE",
"259 40 OFFCURVE",
"168 40 CURVE SMOOTH"
);
},
{
closed = 1;
nodes = (
"140 382 LINE",
"113 402 OFFCURVE",
"96 438 OFFCURVE",
"96 474 CURVE SMOOTH",
"96 530 OFFCURVE",
"138 557 OFFCURVE",
"179 557 CURVE SMOOTH",
"227 557 OFFCURVE",
"269 525 OFFCURVE",
"269 454 CURVE SMOOTH",
"269 437 OFFCURVE",
"269 419 OFFCURVE",
"269 402 CURVE",
"286 369 LINE",
"296 398 OFFCURVE",
"303 421 OFFCURVE",
"303 454 CURVE SMOOTH",
"303 466 OFFCURVE",
"302 478 OFFCURVE",
"300 488 CURVE SMOOTH",
"287 558 OFFCURVE",
"235 591 OFFCURVE",
"179 591 CURVE SMOOTH",
"122 591 OFFCURVE",
"62 553 OFFCURVE",
"62 474 CURVE SMOOTH",
"62 430 OFFCURVE",
"83 386 OFFCURVE",
"114 361 CURVE"
);
},
{
closed = 1;
nodes = (
"489 386 OFFCURVE",
"510 430 OFFCURVE",
"510 474 CURVE SMOOTH",
"510 553 OFFCURVE",
"450 591 OFFCURVE",
"393 591 CURVE SMOOTH",
"337 591 OFFCURVE",
"285 558 OFFCURVE",
"272 488 CURVE SMOOTH",
"270 478 OFFCURVE",
"269 466 OFFCURVE",
"269 454 CURVE SMOOTH",
"269 421 OFFCURVE",
"276 398 OFFCURVE",
"286 369 CURVE",
"303 402 LINE",
"303 419 OFFCURVE",
"303 437 OFFCURVE",
"303 454 CURVE SMOOTH",
"303 525 OFFCURVE",
"345 557 OFFCURVE",
"393 557 CURVE SMOOTH",
"434 557 OFFCURVE",
"476 530 OFFCURVE",
"476 474 CURVE SMOOTH",
"476 438 OFFCURVE",
"459 402 OFFCURVE",
"432 382 CURVE",
"458 361 LINE"
);
}
);
width = 1125;
}
);
unicode = 0D8E;
},
{
glyphname = sinLVocalic;
lastChange = "2021-05-27 12:08:17 +0000";
layers = (
{
layerId = "6114C541-D024-4A3E-9713-6FAF49EAB318";
paths = (
{
closed = 1;
nodes = (
"703.525 129.615 CURVE SMOOTH",
"703.525 107.364 OFFCURVE",
"721.158 89.44 OFFCURVE",
"743.047 89.44 CURVE SMOOTH",
"764.936 89.44 OFFCURVE",
"782.568 107.364 OFFCURVE",
"782.568 129.615 CURVE SMOOTH",
"782.568 151.865 OFFCURVE",
"764.936 169.79 OFFCURVE",
"743.047 169.79 CURVE SMOOTH",
"721.158 169.79 OFFCURVE",
"703.525 151.865 OFFCURVE"
);
},
{
closed = 1;
nodes = (
"614.044 130 CURVE SMOOTH",
"614.044 202 OFFCURVE",
"672.044 260 OFFCURVE",
"735.525 260 CURVE SMOOTH",
"819.525 260 OFFCURVE",
"850.525 176 OFFCURVE",
"850.525 130 CURVE SMOOTH",
"850.525 58 OFFCURVE",
"803.019 0 OFFCURVE",
"744.044 0 CURVE SMOOTH",
"672.044 0 OFFCURVE",
"614.044 58 OFFCURVE"
);
},
{
closed = 1;
nodes = (
"801.527 280.156 CURVE SMOOTH",
"801.527 424.594 OFFCURVE",
"768.111 480 OFFCURVE",
"731.435 480 CURVE SMOOTH",
"692.933 480 OFFCURVE",
"679.223 442.586 OFFCURVE",
"674.435 426 CURVE",
"620.435 487 LINE",
"628.913 527.58 OFFCURVE",
"666.743 584 OFFCURVE",
"736.062 584 CURVE SMOOTH",
"827.562 584 OFFCURVE",
"902.435 506.574 OFFCURVE",
"902.435 284 CURVE SMOOTH",
"902.435 46.276 OFFCURVE",
"813.127 0.156 OFFCURVE",
"744.046 0 CURVE SMOOTH",
"744.046 82.156 LINE SMOOTH",
"773.16 82.156 OFFCURVE",
"795.644 97 OFFCURVE",
"795.644 145 CURVE",
"799.992 174.938 OFFCURVE",
"801.527 218.229 OFFCURVE"
);
},
{
closed = 1;
nodes = (
"419.084 467.354 CURVE SMOOTH",
"419.084 473.071 OFFCURVE",
"419.648 478.329 OFFCURVE",
"420.899 483 CURVE SMOOTH",
"440.525 556.277 OFFCURVE",
"499.618 594 OFFCURVE",
"562.437 594 CURVE SMOOTH",
"648.996 594 OFFCURVE",
"701.096 532.137 OFFCURVE",
"701.096 456.407 CURVE SMOOTH",
"701.096 428.149 OFFCURVE",
"689.848 394.649 OFFCURVE",
"669.71 369.03 CURVE",
"593.001 410.437 LINE",
"600.984 419.561 OFFCURVE",
"607.62 439.108 OFFCURVE",
"607.62 451.164 CURVE SMOOTH",
"607.62 475 OFFCURVE",
"593.407 496 OFFCURVE",
"558.264 496 CURVE SMOOTH",
"535.525 496 OFFCURVE",
"506.699 481.03 OFFCURVE",
"506.699 434.342 CURVE SMOOTH",
"506.699 428.679 OFFCURVE",
"507.202 422.242 OFFCURVE",
"508.264 416 CURVE SMOOTH",
"461.764 318.437 LINE",
"449.152 359.423 OFFCURVE",
"419.084 425.625 OFFCURVE"
);
},
{
closed = 1;
nodes = (
"304.043 224 CURVE SMOOTH",
"304.043 144.037 OFFCURVE",
"382.755 104.167 OFFCURVE",
"461.54 104.167 CURVE SMOOTH",
"540.474 104.167 OFFCURVE",
"619.482 144.187 OFFCURVE",
"619.482 224 CURVE SMOOTH",
"619.482 275.726 OFFCURVE",
"592.043 318 OFFCURVE",
"537.043 318 CURVE SMOOTH",
"386.482 318 LINE SMOOTH",
"331.482 318 OFFCURVE",
"304.043 275.726 OFFCURVE"
);
},
{
closed = 1;
nodes = (
"197.043 224 CURVE SMOOTH",
"197.043 329.652 OFFCURVE",
"258.1 416 OFFCURVE",
"380.482 416 CURVE SMOOTH",
"543.043 416 LINE SMOOTH",
"665.426 416 OFFCURVE",
"726.484 329.652 OFFCURVE",
"726.484 224 CURVE SMOOTH",
"726.484 202.666 OFFCURVE",
"724.056 182.776 OFFCURVE",
"719.527 164.332 CURVE",
"705.402 154.654 OFFCURVE",
"700.514 140.255 OFFCURVE",
"700.514 126.901 CURVE SMOOTH",
"700.514 123.239 OFFCURVE",
"700.882 119.655 OFFCURVE",
"701.527 116.269 CURVE",
"657.01 30.591 OFFCURVE",
"559.387 -12.249 OFFCURVE",
"461.764 -12.249 CURVE SMOOTH",
"364.141 -12.249 OFFCURVE",
"266.518 30.591 OFFCURVE",
"222 116.269 CURVE",
"222.646 119.655 OFFCURVE",
"223.014 123.239 OFFCURVE",
"223.014 126.901 CURVE SMOOTH",
"223.014 140.255 OFFCURVE",
"218.125 154.654 OFFCURVE",
"204 164.332 CURVE",
"199.472 182.776 OFFCURVE",
"197.043 202.666 OFFCURVE"
);
},
{
closed = 1;
nodes = (
"222.432 456.407 CURVE SMOOTH",
"222.432 532.137 OFFCURVE",
"274.531 594 OFFCURVE",
"361.091 594 CURVE SMOOTH",
"423.909 594 OFFCURVE",
"483.002 556.277 OFFCURVE",
"502.628 483 CURVE SMOOTH",
"503.879 478.329 OFFCURVE",
"504.443 473.071 OFFCURVE",
"504.443 467.354 CURVE SMOOTH",
"504.443 425.625 OFFCURVE",
"474.375 359.423 OFFCURVE",
"461.764 318.437 CURVE",
"415.264 416 LINE SMOOTH",
"416.325 422.242 OFFCURVE",
"416.828 428.679 OFFCURVE",
"416.828 434.342 CURVE SMOOTH",
"416.828 481.03 OFFCURVE",
"388.002 496 OFFCURVE",
"365.264 496 CURVE SMOOTH",
"330.12 496 OFFCURVE",
"315.907 475 OFFCURVE",
"315.907 451.164 CURVE SMOOTH",
"315.907 439.108 OFFCURVE",
"322.543 419.561 OFFCURVE",
"330.526 410.437 CURVE",
"253.817 369.03 LINE",
"233.68 394.649 OFFCURVE",
"222.432 428.149 OFFCURVE"
);
},
{
closed = 1;
nodes = (
"21.093 284 CURVE SMOOTH",
"21.093 506.574 OFFCURVE",
"95.965 584 OFFCURVE",
"187.465 584 CURVE SMOOTH",
"256.784 584 OFFCURVE",
"294.614 527.58 OFFCURVE",
"303.093 487 CURVE",
"249.093 426 LINE",
"244.305 442.586 OFFCURVE",
"230.595 480 OFFCURVE",
"192.093 480 CURVE SMOOTH",
"155.416 480 OFFCURVE",
"122 424.594 OFFCURVE",
"122 280.156 CURVE SMOOTH",
"122 218.23 OFFCURVE",
"123.536 174.938 OFFCURVE",
"127.884 145 CURVE",
"127.884 97 OFFCURVE",
"150.367 82.156 OFFCURVE",
"179.481 82.156 CURVE SMOOTH",
"179.481 0 LINE SMOOTH",
"110.4 0.156 OFFCURVE",
"21.093 46.276 OFFCURVE"
);
},
{
closed = 1;
nodes = (
"140.957 129.615 CURVE SMOOTH",
"140.957 107.364 OFFCURVE",
"158.59 89.44 OFFCURVE",
"180.479 89.44 CURVE SMOOTH",
"202.367 89.44 OFFCURVE",
"220 107.364 OFFCURVE",
"220 129.615 CURVE SMOOTH",
"220 151.865 OFFCURVE",
"202.367 169.79 OFFCURVE",
"180.479 169.79 CURVE SMOOTH",
"158.59 169.79 OFFCURVE",
"140.957 151.865 OFFCURVE"
);
},
{
closed = 1;
nodes = (
"73 130 CURVE SMOOTH",
"73 176 OFFCURVE",
"104 260 OFFCURVE",
"188 260 CURVE SMOOTH",
"251.481 260 OFFCURVE",
"309.481 202 OFFCURVE",
"309.481 130 CURVE SMOOTH",
"309.481 58 OFFCURVE",
"251.481 0 OFFCURVE",
"179.481 0 CURVE SMOOTH",
"120.507 0 OFFCURVE",
"73 58 OFFCURVE"
);
}
);
width = 940;
},
{
layerId = "CC11FE7D-5FF0-4B40-9597-DFC61EB94F41";
paths = (
{
closed = 1;
nodes = (
"658.359 95.13 CURVE SMOOTH",
"658.359 64.166 OFFCURVE",
"683.1 38.567 OFFCURVE",
"714.359 38.567 CURVE SMOOTH",
"745.641 38.567 OFFCURVE",
"770.359 64.172 OFFCURVE",
"770.359 95.13 CURVE SMOOTH",
"770.359 126.093 OFFCURVE",
"745.62 151.692 OFFCURVE",
"714.359 151.692 CURVE SMOOTH",
"683.077 151.692 OFFCURVE",
"658.359 126.087 OFFCURVE"
);
},
{
closed = 1;
nodes = (
"622.837 94.938 CURVE SMOOTH",
"622.837 145.557 OFFCURVE",
"664.157 185.845 OFFCURVE",
"714.775 185.845 CURVE SMOOTH",
"765.394 185.845 OFFCURVE",
"805.682 145.557 OFFCURVE",
"805.682 94.938 CURVE SMOOTH",
"805.682 44.32 OFFCURVE",
"765.394 3 OFFCURVE",
"714.775 3 CURVE SMOOTH",
"664.157 3 OFFCURVE",
"622.837 44.32 OFFCURVE"
);
},
{
closed = 1;
nodes = (
"790.888 284.562 CURVE SMOOTH",
"790.888 447.648 OFFCURVE",
"759.854 542.562 OFFCURVE",
"710.888 542.562 CURVE SMOOTH",
"679.786 542.562 OFFCURVE",
"655.538 522.221 OFFCURVE",
"654.196 474.563 CURVE",
"620.721 474.563 LINE",
"620.721 534.562 OFFCURVE",
"649.882 579.562 OFFCURVE",
"710.888 579.562 CURVE SMOOTH",
"767.63 579.562 OFFCURVE",
"827.888 517.552 OFFCURVE",
"827.888 284.562 CURVE SMOOTH",
"827.888 86.294 OFFCURVE",
"804.359 3 OFFCURVE",
"714.775 3 CURVE",
"714.359 38.567 LINE",
"753.256 38.567 OFFCURVE",
"778.359 60 OFFCURVE",
"779.359 123 CURVE",
"786.705 163.746 OFFCURVE",
"790.888 215.385 OFFCURVE"
);
},
{
closed = 1;
nodes = (
"413.443 454 CURVE SMOOTH",
"413.443 466.186 OFFCURVE",
"414.448 477.513 OFFCURVE",
"416.338 488 CURVE SMOOTH",
"429.034 558.491 OFFCURVE",
"481.692 591 OFFCURVE",
"537.889 591 CURVE SMOOTH",
"594.595 591 OFFCURVE",
"654.197 553 OFFCURVE",
"654.197 474 CURVE SMOOTH",
"654.197 429.732 OFFCURVE",
"633.88 385.565 OFFCURVE",
"602.333 361 CURVE",
"576.333 382 LINE",
"603.333 402 OFFCURVE",
"620.722 437.959 OFFCURVE",
"620.722 474 CURVE SMOOTH",
"620.722 530.043 OFFCURVE",
"578.273 557 OFFCURVE",
"537.889 557 CURVE SMOOTH",
"489.526 557 OFFCURVE",
"447.444 524.746 OFFCURVE",
"447.444 454 CURVE SMOOTH",
"447.444 435 OFFCURVE",
"447.444 416 OFFCURVE",
"447.444 402 CURVE",
"430.444 369 LINE",
"420.728 397.663 OFFCURVE",
"413.443 421.384 OFFCURVE"
);
},
{
closed = 1;
nodes = (
"211.611 224.437 CURVE SMOOTH",
"211.611 107.242 OFFCURVE",
"297.636 30 OFFCURVE",
"430.445 30 CURVE SMOOTH",
"563.255 30 OFFCURVE",
"649.279 107.242 OFFCURVE",
"649.279 224.437 CURVE SMOOTH",
"649.279 299.844 OFFCURVE",
"610.803 365 OFFCURVE",
"526.611 365 CURVE SMOOTH",
"334.279 365 LINE SMOOTH",
"250.088 365 OFFCURVE",
"211.611 299.844 OFFCURVE"
);
},
{
closed = 1;
nodes = (
"174.611 224.437 CURVE SMOOTH",
"174.611 319.693 OFFCURVE",
"228 402 OFFCURVE",
"334.279 402 CURVE SMOOTH",
"526.611 402 LINE SMOOTH",
"633 402 OFFCURVE",
"686.279 319.693 OFFCURVE",
"686.279 224.437 CURVE SMOOTH",
"686.279 189.749 OFFCURVE",
"680.075 158.002 OFFCURVE",
"668.362 129.878 CURVE",
"664.415 125.641 OFFCURVE",
"661.334 121.161 OFFCURVE",
"659.402 116 CURVE SMOOTH",
"658.397 113.315 OFFCURVE",
"657.704 110.447 OFFCURVE",
"657.362 107.332 CURVE",
"616.98 35.812 OFFCURVE",
"536.56 -7 OFFCURVE",
"430.445 -7 CURVE SMOOTH",
"324.331 -7 OFFCURVE",
"243.91 35.812 OFFCURVE",
"203.528 107.332 CURVE",
"203.187 110.447 OFFCURVE",
"202.493 113.315 OFFCURVE",
"201.488 116 CURVE SMOOTH",
"199.557 121.161 OFFCURVE",
"196.476 125.641 OFFCURVE",
"192.528 129.878 CURVE",
"180.815 158.002 OFFCURVE",
"174.611 189.749 OFFCURVE"
);
},
{
closed = 1;
nodes = (
"206.69 474 CURVE SMOOTH",
"206.69 553 OFFCURVE",
"266.293 591 OFFCURVE",
"322.999 591 CURVE SMOOTH",
"379.195 591 OFFCURVE",
"431.857 558.491 OFFCURVE",
"444.551 488 CURVE SMOOTH",
"446.439 477.514 OFFCURVE",
"447.443 466.186 OFFCURVE",
"447.443 454 CURVE SMOOTH",
"447.443 421.384 OFFCURVE",
"440.159 397.663 OFFCURVE",
"430.443 369 CURVE",
"413.443 402 LINE",
"413.443 416 OFFCURVE",
"413.443 435 OFFCURVE",
"413.443 454 CURVE SMOOTH",
"413.443 524.746 OFFCURVE",
"371.361 557 OFFCURVE",
"322.999 557 CURVE SMOOTH",
"282.614 557 OFFCURVE",
"240.166 530.043 OFFCURVE",
"240.166 474 CURVE SMOOTH",
"240.166 437.959 OFFCURVE",
"257.555 402 OFFCURVE",
"284.555 382 CURVE",
"258.555 361 LINE",
"227.008 385.565 OFFCURVE",
"206.69 429.732 OFFCURVE"
);
},
{
closed = 1;
nodes = (
"33 284.562 CURVE SMOOTH",
"33 517.552 OFFCURVE",
"93.258 579.562 OFFCURVE",
"150 579.562 CURVE SMOOTH",
"211.006 579.562 OFFCURVE",
"240.167 534.562 OFFCURVE",
"240.167 474.563 CURVE",
"206.691 474.563 LINE",
"205.35 522.221 OFFCURVE",
"181.102 542.562 OFFCURVE",
"150 542.562 CURVE SMOOTH",
"101.033 542.562 OFFCURVE",
"70 447.648 OFFCURVE",
"70 284.562 CURVE SMOOTH",
"70 215.385 OFFCURVE",
"74.183 163.746 OFFCURVE",
"81.528 123 CURVE",
"82.528 60 OFFCURVE",
"107.632 38.567 OFFCURVE",
"146.528 38.567 CURVE",
"146.112 3 LINE",
"56.528 3 OFFCURVE",
"33 86.294 OFFCURVE"
);
},
{
closed = 1;
nodes = (
"90.528 95.13 CURVE SMOOTH",
"90.528 64.172 OFFCURVE",
"115.247 38.567 OFFCURVE",
"146.528 38.567 CURVE SMOOTH",
"177.788 38.567 OFFCURVE",
"202.528 64.166 OFFCURVE",
"202.528 95.13 CURVE SMOOTH",
"202.528 126.087 OFFCURVE",
"177.811 151.692 OFFCURVE",
"146.528 151.692 CURVE SMOOTH",
"115.268 151.692 OFFCURVE",
"90.528 126.093 OFFCURVE"
);
},
{
closed = 1;
nodes = (
"55.206 94.938 CURVE SMOOTH",
"55.206 145.557 OFFCURVE",
"95.494 185.845 OFFCURVE",
"146.112 185.845 CURVE SMOOTH",
"196.73 185.845 OFFCURVE",
"238.051 145.557 OFFCURVE",
"238.051 94.938 CURVE SMOOTH",
"238.051 44.32 OFFCURVE",
"196.73 3 OFFCURVE",
"146.112 3 CURVE SMOOTH",
"95.494 3 OFFCURVE",
"55.206 44.32 OFFCURVE"
);
}
);
width = 860;
}
);
unicode = 0D8F;
},
{
glyphname = sinE;
lastChange = "2018-02-04 13:36:43 +0000";
layers = (
{
layerId = "6114C541-D024-4A3E-9713-6FAF49EAB318";
paths = (
{
closed = 1;
nodes = (
"462.23 0 OFFCURVE",
"540.058 159.711 OFFCURVE",
"540.058 339.12 CURVE SMOOTH",
"540.058 530.927 OFFCURVE",
"451.104 745.25 OFFCURVE",
"324 811 CURVE",
"269.06 745.177 LINE",
"298.676 721.156 OFFCURVE",
"324.521 687.155 OFFCURVE",
"343 647 CURVE",
"371.181 626.196 OFFCURVE",
"393.039 582.607 OFFCURVE",
"399 541 CURVE",
"413 476 LINE",
"420.962 443.196 OFFCURVE",
"428.198 394.671 OFFCURVE",
"428.198 343.766 CURVE SMOOTH",
"428.198 234.833 OFFCURVE",
"395.063 115 OFFCURVE",
"265 115 CURVE SMOOTH",
"169.938 115 OFFCURVE",
"136.743 166.573 OFFCURVE",
"136.743 214.068 CURVE SMOOTH",
"136.743 261.911 OFFCURVE",
"156.977 306 OFFCURVE",
"213.762 306 CURVE SMOOTH",
"320.706 306 LINE",
"286.866 390 LINE",
"22 393 LINE",
"22 306 LINE",
"58.762 306 LINE",
"40.498 281.649 OFFCURVE",
"28.12 243.271 OFFCURVE",
"28.12 200.596 CURVE SMOOTH",
"28.12 112.89 OFFCURVE",
"83.812 0 OFFCURVE",
"265 0 CURVE SMOOTH"
);
},
{
closed = 1;
nodes = (
"324.762 324.999 OFFCURVE",
"327.955 350.999 OFFCURVE",
"327.955 365.563 CURVE SMOOTH",
"327.955 474.898 OFFCURVE",
"256.557 531.563 OFFCURVE",
"179.57 531.563 CURVE SMOOTH",
"105.269 531.563 OFFCURVE",
"56.298 481.535 OFFCURVE",
"56.298 409.272 CURVE SMOOTH",
"56.298 380.619 OFFCURVE",
"66.762 350.999 OFFCURVE",
"86.762 318.563 CURVE",
"166.762 355.999 LINE",
"158.063 370.324 OFFCURVE",
"145.778 386.793 OFFCURVE",
"145.778 404.786 CURVE SMOOTH",
"145.778 426.133 OFFCURVE",
"154.771 443.999 OFFCURVE",
"179.57 443.999 CURVE SMOOTH",
"214.927 443.999 OFFCURVE",
"231.741 416.144 OFFCURVE",
"231.741 386.713 CURVE SMOOTH",
"231.741 381.77 OFFCURVE",
"231.267 376.782 OFFCURVE",
"230.326 371.874 CURVE",
"320.706 305.999 LINE"
);
},
{
closed = 1;
nodes = (
"475 524 LINE",
"401 547 LINE",
"394 547 OFFCURVE",
"388 548 OFFCURVE",
"382 550 CURVE SMOOTH",
"343 558 OFFCURVE",
"324 585 OFFCURVE",
"324 605 CURVE SMOOTH",
"324 621.142 OFFCURVE",
"331.297 639.98 OFFCURVE",
"343.721 647 CURVE",
"362.942 755 LINE",
"269.06 745.177 LINE",
"279.916 735.272 OFFCURVE",
"284 727.053 OFFCURVE",
"284 719 CURVE SMOOTH",
"284 695.319 OFFCURVE",
"231.732 673.122 OFFCURVE",
"231.732 611.134 CURVE SMOOTH",
"231.732 540.309 OFFCURVE",
"298.172 485.97 OFFCURVE",
"364.942 467.641 CURVE SMOOTH",
"382.801 462.738 OFFCURVE",
"400.848 460.461 OFFCURVE",
"418 460 CURVE"
);
}
);
width = 542;
},
{
layerId = "CC11FE7D-5FF0-4B40-9597-DFC61EB94F41";
paths = (
{
closed = 1;
nodes = (
"427.059 3 OFFCURVE",
"515.001 126.91 OFFCURVE",
"515 342 CURVE SMOOTH",
"515 527 OFFCURVE",
"443.001 708 OFFCURVE",
"322.815 807 CURVE",
"299.815 780 LINE",
"319.617 764.43 OFFCURVE",
"338.065 746.32 OFFCURVE",
"355.005 726 CURVE SMOOTH",
"400.088 671.92 OFFCURVE",
"434.486 602.184 OFFCURVE",
"455.29 523 CURVE SMOOTH",
"461.113 499 LINE SMOOTH",
"472.15 449.491 OFFCURVE",
"478.001 396.685 OFFCURVE",
"478.001 342 CURVE SMOOTH",
"478.001 150.386 OFFCURVE",
"403.075 40 OFFCURVE",
"265.001 40 CURVE SMOOTH",
"117.821 40 OFFCURVE",
"83.244 142.715 OFFCURVE",
"83.244 208 CURVE SMOOTH",
"83.244 296.709 OFFCURVE",
"132.244 354 OFFCURVE",
"183.244 354 CURVE SMOOTH",
"313.244 354 LINE",
"305.52 389 LINE",
"33 389 LINE",
"33 354 LINE",
"106.243 354 LINE",
"97.243 349 OFFCURVE",
"47.244 310 OFFCURVE",
"47.244 207 CURVE SMOOTH",
"47.244 127.726 OFFCURVE",
"88.671 3 OFFCURVE",
"265.001 3 CURVE SMOOTH"
);
},
{
closed = 1;
nodes = (
"314.801 364.262 OFFCURVE",
"315.687 375.04 OFFCURVE",
"315.687 387 CURVE SMOOTH",
"315.687 481.099 OFFCURVE",
"255.8 524 OFFCURVE",
"191.243 524 CURVE SMOOTH",
"132.587 524 OFFCURVE",
"81.243 488 OFFCURVE",
"81.243 420 CURVE SMOOTH",
"81.243 401.846 OFFCURVE",
"86.4 384.32 OFFCURVE",
"93.754 370 CURVE",
"122.624 384 LINE",
"117.708 394.165 OFFCURVE",
"114.718 406.329 OFFCURVE",
"114.718 420 CURVE SMOOTH",
"114.718 467 OFFCURVE",
"149.286 490 OFFCURVE",
"191.243 490 CURVE SMOOTH",
"239.605 490 OFFCURVE",
"281.687 457.746 OFFCURVE",
"281.687 387 CURVE SMOOTH",
"282 384 OFFCURVE",
"282 382 OFFCURVE",
"281.863 379 CURVE",
"313.243 354 LINE"
);
},
{
closed = 1;
nodes = (
"473.424 522 LINE",
"456 528 LINE",
"444.833 525.936 OFFCURVE",
"434.075 524.959 OFFCURVE",
"423.783 524.959 CURVE SMOOTH",
"360.56 524.959 OFFCURVE",
"318.814 561.562 OFFCURVE",
"318.814 603 CURVE SMOOTH",
"318.814 661.163 OFFCURVE",
"357.523 693.053 OFFCURVE",
"357.523 726.29 CURVE",
"363.424 761 LINE",
"299.814 780 LINE",
"318.592 766.913 OFFCURVE",
"325.309 754.219 OFFCURVE",
"325.309 740.685 CURVE SMOOTH",
"325.309 706.649 OFFCURVE",
"282.826 667.298 OFFCURVE",
"282.826 603.001 CURVE SMOOTH",
"282.826 543.568 OFFCURVE",
"338.543 491.074 OFFCURVE",
"422.924 491.074 CURVE SMOOTH",
"436.045 491.074 OFFCURVE",
"449.762 492.334 OFFCURVE",
"464 495 CURVE"
);
}
);
width = 535;
}
);
unicode = 0D91;
},
{
glyphname = sinEe;
lastChange = "2018-02-04 13:36:43 +0000";
layers = (
{
components = (
{
name = sinE;
}
);
layerId = "6114C541-D024-4A3E-9713-6FAF49EAB318";
paths = (
{
closed = 1;
nodes = (
"526 459 LINE",
"526 684 LINE",
"523 704 LINE",
"523 796 LINE",
"526 812 LINE",
"526 866 LINE",
"436 866 LINE SMOOTH",
"436 866 OFFCURVE",
"445 820 OFFCURVE",
"445 705 CURVE SMOOTH",
"445 663 OFFCURVE",
"445 622 OFFCURVE",
"445 580 CURVE",
"443 459 LINE"
);
},
{
closed = 1;
nodes = (
"596 629 OFFCURVE",
"646 674 OFFCURVE",
"646 749 CURVE SMOOTH",
"646 862 OFFCURVE",
"562 866 OFFCURVE",
"526 866 CURVE",
"496 824 LINE",
"517 787 LINE",
"519 788 OFFCURVE",
"522 788 OFFCURVE",
"525 788 CURVE SMOOTH",
"536 788 OFFCURVE",
"563 787 OFFCURVE",
"563 749 CURVE SMOOTH",
"563 728 OFFCURVE",
"555 710 OFFCURVE",
"532 710 CURVE SMOOTH",
"527 710 OFFCURVE",
"522 711 OFFCURVE",
"516 712 CURVE",
"500 635 LINE",
"513 631 OFFCURVE",
"526 629 OFFCURVE",
"539 629 CURVE SMOOTH"
);
}
);
width = 542;
},
{
components = (
{
name = sinE;
}
);
layerId = "CC11FE7D-5FF0-4B40-9597-DFC61EB94F41";
paths = (
{
closed = 1;
nodes = (
"493 502 LINE",
"493 642 LINE",
"489 662 LINE",
"489 839 LINE",
"493 855 LINE",
"493 863 LINE",
"458 863 LINE",
"458 807 OFFCURVE",
"458 750 OFFCURVE",
"458 694 CURVE SMOOTH",
"458 646 OFFCURVE",
"461 602 OFFCURVE",
"462 572 CURVE",
"462 502 LINE"
);
},
{
closed = 1;
nodes = (
"566 632 OFFCURVE",
"613 664 OFFCURVE",
"613 749 CURVE SMOOTH",
"613 862 OFFCURVE",
"529 863 OFFCURVE",
"493 863 CURVE",
"466 848 LINE",
"484 829 LINE",
"487 829 OFFCURVE",
"489 829 OFFCURVE",
"492 829 CURVE SMOOTH",
"525 829 OFFCURVE",
"578 826 OFFCURVE",
"578 749 CURVE SMOOTH",
"578 688 OFFCURVE",
"547 667 OFFCURVE",
"511 667 CURVE SMOOTH",
"493 667 OFFCURVE",
"481 671 OFFCURVE",
"474 672 CURVE",
"467 638 LINE",
"482 634 OFFCURVE",
"497 632 OFFCURVE",
"511 632 CURVE SMOOTH"
);
}
);
width = 535;
}
);
unicode = 0D92;
},
{
glyphname = sinO;
lastChange = "2021-05-27 11:59:00 +0000";
layers = (
{
layerId = "6114C541-D024-4A3E-9713-6FAF49EAB318";
paths = (
{
closed = 1;
nodes = (
"22 253 CURVE SMOOTH",
"22 389 OFFCURVE",
"55 527 OFFCURVE",
"170.287 527 CURVE SMOOTH",
"234.287 527 OFFCURVE",
"274 481 OFFCURVE",
"275 438 CURVE",
"193 413 LINE",
"193 423.39 OFFCURVE",
"183 429 OFFCURVE",
"176 429 CURVE SMOOTH",
"140.287 429 OFFCURVE",
"128.673 348 OFFCURVE",
"128.673 265.912 CURVE SMOOTH",
"128.673 203 OFFCURVE",
"133.934 114.652 OFFCURVE",
"174.449 114.652 CURVE SMOOTH",
"216.625 114.652 OFFCURVE",
"231.631 179.678 OFFCURVE",
"231.631 249.5 CURVE",
"327.542 249.5 LINE",
"327.542 176.75 OFFCURVE",
"343.01 115 OFFCURVE",
"386 115 CURVE SMOOTH",
"442.756 115 OFFCURVE",
"442.756 239.958 OFFCURVE",
"442.756 293 CURVE SMOOTH",
"442.756 522.797 OFFCURVE",
"399.756 639.885 OFFCURVE",
"261.756 639.885 CURVE SMOOTH",
"220.652 639.885 OFFCURVE",
"172.993 618.96 OFFCURVE",
"155.938 576.855 CURVE",
"46.905 613.029 LINE",
"82.89 707.868 OFFCURVE",
"175.035 755 OFFCURVE",
"261.756 755 CURVE SMOOTH",
"478.756 755 OFFCURVE",
"557.756 599.056 OFFCURVE",
"557.756 293 CURVE SMOOTH",
"557.756 181.996 OFFCURVE",
"556.756 0 OFFCURVE",
"386 0 CURVE SMOOTH",
"330.08 0 OFFCURVE",
"292.058 33.145 OFFCURVE",
"277.237 79.03 CURVE",
"261.092 31.603 OFFCURVE",
"221.68 0 OFFCURVE",
"169 0 CURVE SMOOTH",
"56 0 OFFCURVE",
"22 115 OFFCURVE"
);
},
{
closed = 1;
nodes = (
"190.059 374.956 CURVE SMOOTH",
"190.059 387.013 OFFCURVE",
"193 399 OFFCURVE",
"193 413 CURVE",
"275 438 LINE",
"275 424 OFFCURVE",
"273.013 412.297 OFFCURVE",
"273.013 402.627 CURVE SMOOTH",
"273.013 376.409 OFFCURVE",
"278.664 366 OFFCURVE",
"292 366 CURVE SMOOTH",
"302.2 366 OFFCURVE",
"308.021 375.745 OFFCURVE",
"308.021 405 CURVE SMOOTH",
"308.021 425.894 OFFCURVE",
"305.534 446 OFFCURVE",
"288 446 CURVE SMOOTH",
"283 446 OFFCURVE",
"275.474 444.318 OFFCURVE",
"271 438 CURVE",
"230 498 LINE",
"242 513.536 OFFCURVE",
"260.226 527 OFFCURVE",
"293.226 527 CURVE SMOOTH",
"356.53 527 OFFCURVE",
"389 480.527 OFFCURVE",
"389 404 CURVE SMOOTH",
"389 323.917 OFFCURVE",
"372.175 270 OFFCURVE",
"287 270 CURVE SMOOTH",
"214.473 270 OFFCURVE",
"190.059 313.932 OFFCURVE"
);
}
);
width = 578;
},
{
layerId = "CC11FE7D-5FF0-4B40-9597-DFC61EB94F41";
paths = (
{
closed = 1;
nodes = (
"33 250.999 CURVE SMOOTH",
"33 390.371 OFFCURVE",
"64.013 523.999 OFFCURVE",
"151.639 523.999 CURVE SMOOTH",
"217 524 OFFCURVE",
"241 474 OFFCURVE",
"241 426 CURVE",
"206 419 LINE",
"206 470.221 OFFCURVE",
"181.7 489 OFFCURVE",
"152 489 CURVE SMOOTH",
"92 489 OFFCURVE",
"70 368 OFFCURVE",
"70 250.999 CURVE SMOOTH",
"70 167.891 OFFCURVE",
"73.717 40 OFFCURVE",
"155.597 40 CURVE SMOOTH",
"246.763 40 OFFCURVE",
"253.354 148.886 OFFCURVE",
"256.597 224.5 CURVE",
"290.597 224.5 LINE",
"293.839 148.886 OFFCURVE",
"300.431 40 OFFCURVE",
"391.597 40 CURVE SMOOTH",
"484.33 40 OFFCURVE",
"491.153 164 OFFCURVE",
"491.153 293 CURVE SMOOTH",
"491.153 576.887 OFFCURVE",
"416.702 712 OFFCURVE",
"263.597 712 CURVE SMOOTH",
"192.725 712 OFFCURVE",
"124.248 665.927 OFFCURVE",
"100.924 605 CURVE",
"66.924 618 LINE",
"95.123 692.593 OFFCURVE",
"177.911 749 OFFCURVE",
"263.597 749 CURVE SMOOTH",
"441.597 749 OFFCURVE",
"528.153 601.955 OFFCURVE",
"528.153 293 CURVE SMOOTH",
"528.153 145.135 OFFCURVE",
"518.794 3 OFFCURVE",
"391.597 3 CURVE SMOOTH",
"296.431 3 OFFCURVE",
"277.431 85 OFFCURVE",
"273.597 115 CURVE",
"269.763 85 OFFCURVE",
"250.763 3 OFFCURVE",
"155.597 3 CURVE SMOOTH",
"41 3 OFFCURVE",
"33 153.317 OFFCURVE"
);
},
{
closed = 1;
nodes = (
"203 370 CURVE SMOOTH",
"203 385.759 OFFCURVE",
"206 397 OFFCURVE",
"206 419 CURVE",
"241 426 LINE",
"241 415.977 OFFCURVE",
"239 386.338 OFFCURVE",
"239 370 CURVE SMOOTH",
"239 346 OFFCURVE",
"245.226 317 OFFCURVE",
"282 317 CURVE SMOOTH",
"325.195 317 OFFCURVE",
"326 381.961 OFFCURVE",
"326 402 CURVE SMOOTH",
"326 422.039 OFFCURVE",
"325.195 487 OFFCURVE",
"282 487 CURVE SMOOTH",
"258.226 487 OFFCURVE",
"242 470 OFFCURVE",
"238 441 CURVE",
"207 444 LINE",
"212 486 OFFCURVE",
"234 523 OFFCURVE",
"282 523 CURVE SMOOTH",
"360.537 523 OFFCURVE",
"362 430.526 OFFCURVE",
"362 402 CURVE SMOOTH",
"362 373.474 OFFCURVE",
"360.537 281 OFFCURVE",
"282 281 CURVE SMOOTH",
"225.009 281 OFFCURVE",
"203 322.966 OFFCURVE"
);
}
);
width = 561;
}
);
unicode = 0D94;
},
{
glyphname = sinOo;
lastChange = "2018-02-04 13:36:43 +0000";
layers = (
{
layerId = "6114C541-D024-4A3E-9713-6FAF49EAB318";
paths = (
{
closed = 1;
nodes = (
"58.807 743.688 CURVE SMOOTH",
"58.807 811.694 OFFCURVE",
"120.021 871 OFFCURVE",
"273.571 871 CURVE SMOOTH",
"437.505 871 OFFCURVE",
"527.116 790.408 OFFCURVE",
"527.116 701 CURVE SMOOTH",
"527.116 607 OFFCURVE",
"437.896 565 OFFCURVE",
"387.244 565 CURVE",
"354.244 607 LINE",
"374.116 648 LINE",
"400.244 655 OFFCURVE",
"412.116 676.732 OFFCURVE",
"412.116 701 CURVE SMOOTH",
"412.116 733.879 OFFCURVE",
"376.135 771 OFFCURVE",
"273.571 771 CURVE SMOOTH",
"189.625 771 OFFCURVE",
"165.83 747.772 OFFCURVE",
"165.83 724.965 CURVE SMOOTH",
"165.83 705.182 OFFCURVE",
"174.81 697 OFFCURVE",
"186.81 682 CURVE",
"182.81 649 LINE",
"99.81 656 LINE",
"72.81 680 OFFCURVE",
"58.807 713.359 OFFCURVE"
);
},
{
closed = 1;
nodes = (
"21.244 253 CURVE SMOOTH",
"21.244 389 OFFCURVE",
"54.244 527 OFFCURVE",
"169.531 527 CURVE SMOOTH",
"233.531 527 OFFCURVE",
"273.244 481 OFFCURVE",
"274.244 438 CURVE",
"192.244 413 LINE",
"192.244 423.39 OFFCURVE",
"182.244 429 OFFCURVE",
"175.244 429 CURVE SMOOTH",
"139.531 429 OFFCURVE",
"127.917 348 OFFCURVE",
"127.917 265.912 CURVE SMOOTH",
"127.917 203 OFFCURVE",
"133.178 114.652 OFFCURVE",
"173.693 114.652 CURVE SMOOTH",
"215.869 114.652 OFFCURVE",
"230.875 179.678 OFFCURVE",
"230.875 249.5 CURVE",
"326.786 249.5 LINE",
"326.786 176.75 OFFCURVE",
"342.254 115 OFFCURVE",
"385.244 115 CURVE SMOOTH",
"442 115 OFFCURVE",
"442 239.958 OFFCURVE",
"442 293 CURVE SMOOTH",
"442 527 OFFCURVE",
"350.321 581 OFFCURVE",
"229.81 581 CURVE SMOOTH",
"192.268 581 OFFCURVE",
"140.054 564.031 OFFCURVE",
"110.81 538 CURVE",
"47.81 620 LINE",
"115.81 684 OFFCURVE",
"194.81 690.976 OFFCURVE",
"245.81 690.976 CURVE SMOOTH",
"435.099 690.976 OFFCURVE",
"557 587 OFFCURVE",
"557 293 CURVE SMOOTH",
"557 181.996 OFFCURVE",
"556 0 OFFCURVE",
"385.244 0 CURVE SMOOTH",
"329.324 0 OFFCURVE",
"291.302 33.145 OFFCURVE",
"276.481 79.03 CURVE",
"260.336 31.603 OFFCURVE",
"220.924 0 OFFCURVE",
"168.244 0 CURVE SMOOTH",
"55.244 0 OFFCURVE",
"21.244 115 OFFCURVE"
);
},
{
closed = 1;
nodes = (
"189.304 374.956 CURVE SMOOTH",
"189.304 387.013 OFFCURVE",
"192.244 399 OFFCURVE",
"192.244 413 CURVE",
"274.244 438 LINE",
"274.244 424 OFFCURVE",
"272.257 412.297 OFFCURVE",
"272.257 402.627 CURVE SMOOTH",
"272.257 376.409 OFFCURVE",
"277.908 366 OFFCURVE",
"291.244 366 CURVE SMOOTH",
"301.444 366 OFFCURVE",
"307.265 375.745 OFFCURVE",
"307.265 405 CURVE SMOOTH",
"307.265 425.894 OFFCURVE",
"304.778 446 OFFCURVE",
"287.244 446 CURVE SMOOTH",
"282.244 446 OFFCURVE",
"274.718 444.318 OFFCURVE",
"270.244 438 CURVE",
"229.244 498 LINE",
"241.244 513.536 OFFCURVE",
"259.47 527 OFFCURVE",
"292.47 527 CURVE SMOOTH",
"355.775 527 OFFCURVE",
"388.244 480.527 OFFCURVE",
"388.244 404 CURVE SMOOTH",
"388.244 323.917 OFFCURVE",
"371.419 270 OFFCURVE",
"286.244 270 CURVE SMOOTH",
"213.718 270 OFFCURVE",
"189.304 313.932 OFFCURVE"
);
}
);
width = 578;
},
{
layerId = "CC11FE7D-5FF0-4B40-9597-DFC61EB94F41";
paths = (
{
closed = 1;
nodes = (
"67.854 746 CURVE SMOOTH",
"67.854 795.266 OFFCURVE",
"111.363 864 OFFCURVE",
"271.854 864 CURVE SMOOTH",
"397.415 864 OFFCURVE",
"499.763 801.028 OFFCURVE",
"499.763 712 CURVE SMOOTH",
"499.763 659 OFFCURVE",
"465.516 621 OFFCURVE",
"416.763 602 CURVE",
"386.763 611 LINE",
"408.763 636 LINE",
"440.481 649.127 OFFCURVE",
"462.763 675.382 OFFCURVE",
"462.763 712 CURVE SMOOTH",
"462.763 779.357 OFFCURVE",
"377.03 827 OFFCURVE",
"271.854 827 CURVE SMOOTH",
"140.472 827 OFFCURVE",
"104.854 779.817 OFFCURVE",
"104.854 746 CURVE SMOOTH",
"104.854 712.768 OFFCURVE",
"132.037 683.519 OFFCURVE",
"157.854 668 CURVE",
"158.854 637 LINE",
"130.854 646 LINE",
"100.167 665.896 OFFCURVE",
"67.854 703.395 OFFCURVE"
);
},
{
closed = 1;
nodes = (
"33 250.999 CURVE SMOOTH",
"33 390.371 OFFCURVE",
"64.013 523.999 OFFCURVE",
"151.639 523.999 CURVE SMOOTH",
"217 524 OFFCURVE",
"241 474 OFFCURVE",
"241 426 CURVE",
"206 419 LINE",
"206 470.221 OFFCURVE",
"181.7 489 OFFCURVE",
"152 489 CURVE SMOOTH",
"92 489 OFFCURVE",
"70 368 OFFCURVE",
"70 250.999 CURVE SMOOTH",
"70 167.891 OFFCURVE",
"73.717 40 OFFCURVE",
"155.597 40 CURVE SMOOTH",
"246.763 40 OFFCURVE",
"253.354 148.886 OFFCURVE",
"256.597 224.5 CURVE",
"290.597 224.5 LINE",
"293.839 148.886 OFFCURVE",
"300.431 40 OFFCURVE",
"391.597 40 CURVE SMOOTH",
"484.33 40 OFFCURVE",
"491.153 164 OFFCURVE",
"491.153 293 CURVE SMOOTH",
"491.153 582 OFFCURVE",
"363.693 651 OFFCURVE",
"244.854 651 CURVE SMOOTH",
"174.914 651 OFFCURVE",
"133.367 621.477 OFFCURVE",
"94.854 591 CURVE",
"70.854 620 LINE",
"119.412 663.099 OFFCURVE",
"188.694 688 OFFCURVE",
"244.854 688 CURVE SMOOTH",
"381.546 688 OFFCURVE",
"528.153 611.869 OFFCURVE",
"528.153 293 CURVE SMOOTH",
"528.153 145.135 OFFCURVE",
"518.794 3 OFFCURVE",
"391.597 3 CURVE SMOOTH",
"296.431 3 OFFCURVE",
"277.431 85 OFFCURVE",
"273.597 115 CURVE",
"269.763 85 OFFCURVE",
"250.763 3 OFFCURVE",
"155.597 3 CURVE SMOOTH",
"41 3 OFFCURVE",
"33 153.317 OFFCURVE"
);
},
{
closed = 1;
nodes = (
"203 370 CURVE SMOOTH",
"203 385.759 OFFCURVE",
"206 397 OFFCURVE",
"206 419 CURVE",
"241 426 LINE",
"241 415.977 OFFCURVE",
"239 386.338 OFFCURVE",
"239 370 CURVE SMOOTH",
"239 346 OFFCURVE",
"245.226 317 OFFCURVE",
"282 317 CURVE SMOOTH",
"325.195 317 OFFCURVE",
"326 381.961 OFFCURVE",
"326 402 CURVE SMOOTH",
"326 422.039 OFFCURVE",
"325.195 487 OFFCURVE",
"282 487 CURVE SMOOTH",
"258.226 487 OFFCURVE",
"242 470 OFFCURVE",
"238 441 CURVE",
"207 444 LINE",
"212 486 OFFCURVE",
"234 523 OFFCURVE",
"282 523 CURVE SMOOTH",
"360.537 523 OFFCURVE",
"362 430.526 OFFCURVE",
"362 402 CURVE SMOOTH",
"362 373.474 OFFCURVE",
"360.537 281 OFFCURVE",
"282 281 CURVE SMOOTH",
"225.009 281 OFFCURVE",
"203 322.966 OFFCURVE"
);
}
);
width = 561;
}
);
unicode = 0D95;
},
{
glyphname = sinKa;
lastChange = "2018-02-04 13:36:43 +0000";
layers = (
{
layerId = "6114C541-D024-4A3E-9713-6FAF49EAB318";
paths = (
{
closed = 1;
nodes = (
"601.884 0 OFFCURVE",
"675 59.985 OFFCURVE",
"675 272 CURVE SMOOTH",
"675 495 OFFCURVE",
"565 594 OFFCURVE",
"447.372 594 CURVE SMOOTH",
"357.372 594 OFFCURVE",
"296.306 548.646 OFFCURVE",
"245.372 489 CURVE SMOOTH",
"25.912 232 LINE",
"29.913 125.999 LINE",
"101 189 LINE",
"317.285 416 LINE",
"359.243 461.169 OFFCURVE",
"384.644 482.229 OFFCURVE",
"437.644 482.229 CURVE SMOOTH",
"512.225 482.229 OFFCURVE",
"564 408.94 OFFCURVE",
"564 272 CURVE SMOOTH",
"564 138.912 OFFCURVE",
"541.387 103 OFFCURVE",
"498.284 103 CURVE SMOOTH",
"456.656 103 OFFCURVE",
"453.284 134 OFFCURVE",
"452.284 158 CURVE",
"384.284 94 LINE",
"393.569 58.021 OFFCURVE",
"422.37 0 OFFCURVE",
"498.284 0 CURVE SMOOTH"
);
},
{
closed = 1;
nodes = (
"204.298 0 OFFCURVE",
"231.247 31 OFFCURVE",
"240.284 52 CURVE",
"250.794 29 OFFCURVE",
"278.327 0 OFFCURVE",
"326.284 0 CURVE SMOOTH",
"423.327 0 OFFCURVE",
"463.372 111.981 OFFCURVE",
"463.372 210 CURVE SMOOTH",
"463.372 400 OFFCURVE",
"384.284 429.167 OFFCURVE",
"318.028 429.167 CURVE SMOOTH",
"256.153 429.167 OFFCURVE",
"218.913 415.504 OFFCURVE",
"183.284 358 CURVE",
"231 326 LINE",
"241 335 OFFCURVE",
"254 347 OFFCURVE",
"281 347 CURVE SMOOTH",
"320 347 OFFCURVE",
"356.372 307.753 OFFCURVE",
"356.372 210 CURVE SMOOTH",
"356.372 165.987 OFFCURVE",
"351.284 109 OFFCURVE",
"316.284 109 CURVE SMOOTH",
"297.284 109 OFFCURVE",
"284.656 122 OFFCURVE",
"284.656 160 CURVE SMOOTH",
"284.656 227 LINE",
"194.656 227 LINE",
"194.656 160 LINE SMOOTH",
"194.656 119 OFFCURVE",
"178.313 109 OFFCURVE",
"163.284 109 CURVE SMOOTH",
"139.16 109 OFFCURVE",
"137.284 138.592 OFFCURVE",
"137.284 156 CURVE SMOOTH",
"137.468 167 LINE SMOOTH",
"137.468 191.219 OFFCURVE",
"128.43 199.927 OFFCURVE",
"121 207 CURVE",
"108 221 LINE",
"44.284 192 LINE",
"29.912 126 LINE",
"33.825 127.574 OFFCURVE",
"37.329 128.335 OFFCURVE",
"40.446 128.335 CURVE SMOOTH",
"51.956 128.335 OFFCURVE",
"62 120.562 OFFCURVE",
"62 106 CURVE SMOOTH",
"62 98 OFFCURVE",
"62 91 OFFCURVE",
"61.273 83 CURVE SMOOTH",
"61.273 46 OFFCURVE",
"83.206 0 OFFCURVE",
"160.284 0 CURVE SMOOTH"
);
},
{
closed = 1;
nodes = (
"142.083 394.899 OFFCURVE",
"114.859 411.899 OFFCURVE",
"114.859 451.903 CURVE SMOOTH",
"114.859 475.013 OFFCURVE",
"128.45 496 OFFCURVE",
"156.284 496 CURVE SMOOTH",
"184.811 496 OFFCURVE",
"208.655 471.944 OFFCURVE",
"208.655 434.312 CURVE SMOOTH",
"208.655 375 LINE",
"306.284 428 LINE",
"306.284 537.336 OFFCURVE",
"234.889 594 OFFCURVE",
"157.899 594 CURVE SMOOTH",
"70.284 594 OFFCURVE",
"22.284 532.132 OFFCURVE",
"22.284 461.536 CURVE SMOOTH",
"22.284 391.899 OFFCURVE",
"67.083 344.899 OFFCURVE",
"112.372 327.899 CURVE",
"172.083 387.899 LINE"
);
}
);
width = 697;
},
{
layerId = "CC11FE7D-5FF0-4B40-9597-DFC61EB94F41";
paths = (
{
closed = 1;
nodes = (
"606.355 3 OFFCURVE",
"655 99.423 OFFCURVE",
"655 272 CURVE SMOOTH",
"655 505.28 OFFCURVE",
"559.394 591 OFFCURVE",
"450 591 CURVE SMOOTH",
"372.542 591 OFFCURVE",
"306.472 527.722 OFFCURVE",
"251 458 CURVE SMOOTH",
"33 184 LINE",
"58 155 LINE",
"84 188 LINE",
"278 433 LINE SMOOTH",
"326.786 494.647 OFFCURVE",
"381.79 554 OFFCURVE",
"450 554 CURVE SMOOTH",
"539.649 554 OFFCURVE",
"618 478.223 OFFCURVE",
"618 272 CURVE SMOOTH",
"618 107.99 OFFCURVE",
"567.107 40 OFFCURVE",
"504 40 CURVE SMOOTH",
"455.445 40 OFFCURVE",
"430.611 65 OFFCURVE",
"424 95 CURVE",
"390 86 LINE",
"399.422 40.728 OFFCURVE",
"434.81 3 OFFCURVE",
"504 3 CURVE SMOOTH"
);
},
{
closed = 1;
nodes = (
"219.145 3 OFFCURVE",
"242 48 OFFCURVE",
"242 79 CURVE",
"243 48 OFFCURVE",
"267.939 3 OFFCURVE",
"326 3 CURVE SMOOTH",
"429.498 3 OFFCURVE",
"442.043 123.089 OFFCURVE",
"442.043 196 CURVE SMOOTH",
"442.043 363.221 OFFCURVE",
"373 424.667 OFFCURVE",
"294 424.667 CURVE SMOOTH",
"257 424.667 OFFCURVE",
"228 402 OFFCURVE",
"205 382 CURVE",
"219 360 LINE",
"236 375 OFFCURVE",
"255 387.667 OFFCURVE",
"294 387.667 CURVE SMOOTH",
"353.232 387.667 OFFCURVE",
"405 336.163 OFFCURVE",
"405 196 CURVE SMOOTH",
"405 157.619 OFFCURVE",
"402.448 40 OFFCURVE",
"326 40 CURVE SMOOTH",
"274.242 40 OFFCURVE",
"260.77 100.28 OFFCURVE",
"260.121 159 CURVE SMOOTH",
"260 170 LINE",
"224 170 LINE",
"223.879 159 LINE SMOOTH",
"223.23 100.28 OFFCURVE",
"209.758 40 OFFCURVE",
"158 40 CURVE SMOOTH",
"118.005 40 OFFCURVE",
"108 68.7 OFFCURVE",
"108 105 CURVE SMOOTH",
"108.251 127.894 LINE SMOOTH",
"108.251 155.333 OFFCURVE",
"106 190 OFFCURVE",
"86 190.739 CURVE SMOOTH",
"74 191 LINE",
"65 184 LINE",
"58 155 LINE",
"60.858 156.9 OFFCURVE",
"63.246 157.747 OFFCURVE",
"65.237 157.747 CURVE SMOOTH",
"73.168 157.747 OFFCURVE",
"74.802 144.302 OFFCURVE",
"74.802 130.404 CURVE SMOOTH",
"74.802 120.669 OFFCURVE",
"74 110.711 OFFCURVE",
"74 105 CURVE SMOOTH",
"74 48.037 OFFCURVE",
"90.809 3 OFFCURVE",
"158 3 CURVE SMOOTH"
);
},
{
closed = 1;
nodes = (
"113 368 OFFCURVE",
"69.723 407.775 OFFCURVE",
"69.723 474 CURVE SMOOTH",
"69.723 530.043 OFFCURVE",
"112.17 557 OFFCURVE",
"152.556 557 CURVE SMOOTH",
"200.918 557 OFFCURVE",
"243 524.746 OFFCURVE",
"243 454 CURVE SMOOTH",
"243 402 LINE",
"277 454 LINE",
"277 548.099 OFFCURVE",
"217.112 591 OFFCURVE",
"152.556 591 CURVE SMOOTH",
"95.85 591 OFFCURVE",
"36.247 553 OFFCURVE",
"36.247 474 CURVE SMOOTH",
"36.247 390.378 OFFCURVE",
"95 338 OFFCURVE",
"182 325 CURVE",
"190 356 LINE"
);
}
);
width = 688;
}
);
unicode = 0D9A;
},
{
glyphname = sinKha;
lastChange = "2018-02-04 17:45:32 +0000";
layers = (
{
layerId = "6114C541-D024-4A3E-9713-6FAF49EAB318";
paths = (
{
closed = 1;
nodes = (
"271.76 152 CURVE",
"326 226 LINE",
"326 200 OFFCURVE",
"329 180 OFFCURVE",
"335 165 CURVE SMOOTH",
"343 142 OFFCURVE",
"360 130 OFFCURVE",
"385 130 CURVE SMOOTH",
"415 130 OFFCURVE",
"439 171.641 OFFCURVE",
"439 293 CURVE SMOOTH",
"439 522.797 OFFCURVE",
"396 639.885 OFFCURVE",
"258 639.885 CURVE SMOOTH",
"216.896 639.885 OFFCURVE",
"169.237 618.96 OFFCURVE",
"152.182 576.855 CURVE",
"43.149 613.029 LINE",
"79.134 707.868 OFFCURVE",
"171.279 755 OFFCURVE",
"258 755 CURVE SMOOTH",
"475 755 OFFCURVE",
"554 599.056 OFFCURVE",
"554 293 CURVE SMOOTH",
"553.516 181.996 OFFCURVE",
"536.885 0 OFFCURVE",
"395.885 0 CURVE SMOOTH",
"333.76 0 OFFCURVE",
"310.76 30 OFFCURVE",
"293.76 74 CURVE SMOOTH",
"282.501 103.142 OFFCURVE",
"271.76 152 OFFCURVE"
);
},
{
closed = 1;
nodes = (
"21.76 220 CURVE SMOOTH",
"21.76 425.89 OFFCURVE",
"97.76 488.874 OFFCURVE",
"201.945 488.874 CURVE SMOOTH",
"309.451 488.874 OFFCURVE",
"370.885 430 OFFCURVE",
"370.885 324 CURVE SMOOTH",
"370.885 271.699 OFFCURVE",
"354.406 232.284 OFFCURVE",
"330.76 191 CURVE SMOOTH",
"305.662 147.18 OFFCURVE",
"299.032 102.914 OFFCURVE",
"299.032 34.439 CURVE SMOOTH",
"299.032 -4.39 OFFCURVE",
"301.238 -43.311 OFFCURVE",
"304.76 -75 CURVE",
"197.76 -75 LINE",
"194.047 -50.4 OFFCURVE",
"191.343 -14.632 OFFCURVE",
"191.343 25.652 CURVE SMOOTH",
"191.343 72.16 OFFCURVE",
"194.946 124.688 OFFCURVE",
"204.76 173 CURVE SMOOTH",
"217.76 237 OFFCURVE",
"258.885 264 OFFCURVE",
"258.885 324 CURVE SMOOTH",
"258.885 354 OFFCURVE",
"243.451 376.433 OFFCURVE",
"200.76 376.433 CURVE SMOOTH",
"160.933 376.433 OFFCURVE",
"128.76 339.788 OFFCURVE",
"128.76 220 CURVE SMOOTH",
"128.76 128 OFFCURVE",
"150 101 OFFCURVE",
"171 101 CURVE SMOOTH",
"191 101 OFFCURVE",
"208 115 OFFCURVE",
"224 151 CURVE",
"279.76 73 LINE",
"237.649 36.559 OFFCURVE",
"194.228 3.062 OFFCURVE",
"148.484 3.062 CURVE SMOOTH",
"53.331 3.062 OFFCURVE",
"21.76 101.451 OFFCURVE"
);
}
);
width = 576;
},
{
layerId = "CC11FE7D-5FF0-4B40-9597-DFC61EB94F41";
paths = (
{
closed = 1;
nodes = (
"241 165 CURVE",
"269 181 LINE",
"286.529 157.5 OFFCURVE",
"294.724 126.22 OFFCURVE",
"306.587 99 CURVE SMOOTH",
"320.961 66.02 OFFCURVE",
"340.722 39 OFFCURVE",
"389 39 CURVE SMOOTH",
"447 39 OFFCURVE",
"485.619 145.855 OFFCURVE",
"485.619 293 CURVE SMOOTH",
"485.619 576.887 OFFCURVE",
"411.168 712 OFFCURVE",
"258.062 712 CURVE SMOOTH",
"187.19 712 OFFCURVE",
"118.714 665.927 OFFCURVE",
"95.39 605 CURVE",
"61.39 618 LINE",
"89.589 692.593 OFFCURVE",
"172.377 749 OFFCURVE",
"258.062 749 CURVE SMOOTH",
"436.062 749 OFFCURVE",
"522.619 601.955 OFFCURVE",
"522.619 293 CURVE SMOOTH",
"522.619 125 OFFCURVE",
"487 3 OFFCURVE",
"389 3 CURVE SMOOTH",
"319.669 3 OFFCURVE",
"293.229 42.716 OFFCURVE",
"276.731 84 CURVE SMOOTH",
"263.96 115.958 OFFCURVE",
"257.145 148.855 OFFCURVE"
);
},
{
closed = 1;
nodes = (
"33 220 CURVE SMOOTH",
"33 419.134 OFFCURVE",
"108.666 486 OFFCURVE",
"196.061 486 CURVE SMOOTH",
"294.921 486 OFFCURVE",
"331 437.557 OFFCURVE",
"331 344 CURVE SMOOTH",
"331 268 OFFCURVE",
"296.636 246.03 OFFCURVE",
"277.41 198 CURVE SMOOTH",
"263 162 OFFCURVE",
"255 135.525 OFFCURVE",
"255 79 CURVE SMOOTH",
"255 46 OFFCURVE",
"259.533 -11 OFFCURVE",
"272 -53 CURVE",
"235 -56 LINE",
"225 -12 OFFCURVE",
"219.114 46.505 OFFCURVE",
"219.114 79 CURVE SMOOTH",
"219.114 131.213 OFFCURVE",
"228.666 167.632 OFFCURVE",
"241.683 203 CURVE SMOOTH",
"260.496 254.12 OFFCURVE",
"295 280.68 OFFCURVE",
"295 344 CURVE SMOOTH",
"295 414.006 OFFCURVE",
"270.721 450 OFFCURVE",
"196.061 450 CURVE SMOOTH",
"128.497 450 OFFCURVE",
"70 392.184 OFFCURVE",
"70 220 CURVE SMOOTH",
"70 105.193 OFFCURVE",
"94 38 OFFCURVE",
"153 38 CURVE SMOOTH",
"199 38 OFFCURVE",
"225 76 OFFCURVE",
"233 148 CURVE",
"251 141 LINE",
"241 67 OFFCURVE",
"225.327 3 OFFCURVE",
"148 3 CURVE SMOOTH",
"67.877 3 OFFCURVE",
"33 82.359 OFFCURVE"
);
}
);
width = 555;
}
);
unicode = 0D9B;
},
{
glyphname = sinGa;
lastChange = "2018-02-04 13:36:43 +0000";
layers = (
{
layerId = "6114C541-D024-4A3E-9713-6FAF49EAB318";
paths = (
{
closed = 1;
nodes = (
"216.628 300.156 LINE",
"263.854 330.127 OFFCURVE",
"266.022 362.443 OFFCURVE",
"266.022 392.096 CURVE SMOOTH",
"266.022 398.567 OFFCURVE",
"266.217 404.869 OFFCURVE",
"266.596 411 CURVE SMOOTH",
"273.906 529.113 OFFCURVE",
"349.977 584.156 OFFCURVE",
"431 584.156 CURVE SMOOTH",
"537.999 584.156 OFFCURVE",
"636 526.531 OFFCURVE",
"636 292.156 CURVE SMOOTH",
"636 69.582 OFFCURVE",
"551.228 0.156 OFFCURVE",
"447.628 0.156 CURVE SMOOTH",
"371.714 0.156 OFFCURVE",
"330.285 50.178 OFFCURVE",
"321 86.156 CURVE",
"386 158.156 LINE",
"391.177 141.57 OFFCURVE",
"406 106.156 OFFCURVE",
"447.628 106.156 CURVE SMOOTH",
"490.73 106.156 OFFCURVE",
"527 150.497 OFFCURVE",
"527 292.156 CURVE SMOOTH",
"527 439.703 OFFCURVE",
"480.585 477.156 OFFCURVE",
"431 477.156 CURVE SMOOTH",
"385.726 477.156 OFFCURVE",
"371.47 447.257 OFFCURVE",
"368.594 389 CURVE SMOOTH",
"368.178 380.59 OFFCURVE",
"368 371.588 OFFCURVE",
"368 362 CURVE SMOOTH",
"368 286.156 OFFCURVE",
"323 254 OFFCURVE",
"263 220 CURVE"
);
},
{
closed = 1;
nodes = (
"22 292 CURVE SMOOTH",
"22 514.574 OFFCURVE",
"106.772 584 OFFCURVE",
"210.372 584 CURVE SMOOTH",
"286.286 584 OFFCURVE",
"327.715 533.979 OFFCURVE",
"337 498 CURVE",
"272 426 LINE",
"266.823 442.586 OFFCURVE",
"252 478 OFFCURVE",
"210.372 478 CURVE SMOOTH",
"167.27 478 OFFCURVE",
"131 433.659 OFFCURVE",
"131 292 CURVE SMOOTH",
"131 144.453 OFFCURVE",
"177.415 107 OFFCURVE",
"227 107 CURVE SMOOTH",
"288 107 OFFCURVE",
"306.628 146.156 OFFCURVE",
"306.628 184.156 CURVE SMOOTH",
"306.628 219.156 OFFCURVE",
"290.891 231.251 OFFCURVE",
"278.628 236.156 CURVE",
"341.628 306.156 LINE",
"377.628 294.449 OFFCURVE",
"408.628 243.156 OFFCURVE",
"408.628 189.156 CURVE SMOOTH",
"408.628 94.73 OFFCURVE",
"357.561 0 OFFCURVE",
"227 0 CURVE SMOOTH",
"120 0 OFFCURVE",
"22 57.625 OFFCURVE"
);
}
);
width = 658;
},
{
layerId = "CC11FE7D-5FF0-4B40-9597-DFC61EB94F41";
paths = (
{
closed = 1;
nodes = (
"229 276 LINE",
"273.565 295.978 OFFCURVE",
"279.831 338.024 OFFCURVE",
"279.831 369.95 CURVE SMOOTH",
"279.831 382.439 OFFCURVE",
"278.872 393.38 OFFCURVE",
"278.872 400.844 CURVE SMOOTH",
"278.872 512.851 OFFCURVE",
"348 581 OFFCURVE",
"428 581 CURVE SMOOTH",
"520.438 581 OFFCURVE",
"603.372 528 OFFCURVE",
"603.372 292 CURVE SMOOTH",
"603.372 57 OFFCURVE",
"521.041 3 OFFCURVE",
"435 3 CURVE SMOOTH",
"379.235 3 OFFCURVE",
"342.761 31.682 OFFCURVE",
"324 70.797 CURVE SMOOTH",
"347.372 123 LINE",
"350.372 83 OFFCURVE",
"382.372 40 OFFCURVE",
"435 40 CURVE SMOOTH",
"501.878 40 OFFCURVE",
"565.872 87.087 OFFCURVE",
"565.872 292 CURVE SMOOTH",
"565.872 497.785 OFFCURVE",
"501.701 544 OFFCURVE",
"428 544 CURVE SMOOTH",
"352.452 544 OFFCURVE",
"315.872 474.387 OFFCURVE",
"315.872 400.844 CURVE SMOOTH",
"315.872 392.56 OFFCURVE",
"316.457 382.064 OFFCURVE",
"316.457 370.388 CURVE SMOOTH",
"316.457 328.728 OFFCURVE",
"309.013 272.025 OFFCURVE",
"241 247 CURVE"
);
},
{
closed = 1;
nodes = (
"33 276 CURVE SMOOTH",
"33 524.011 OFFCURVE",
"115.331 581 OFFCURVE",
"201.372 581 CURVE SMOOTH",
"275 581 OFFCURVE",
"315 531 OFFCURVE",
"325 473 CURVE",
"289 461 LINE",
"286 501 OFFCURVE",
"254 544 OFFCURVE",
"201.372 544 CURVE SMOOTH",
"134.494 544 OFFCURVE",
"70.5 493.924 OFFCURVE",
"70.5 276 CURVE SMOOTH",
"70.5 83.28 OFFCURVE",
"144.299 40 OFFCURVE",
"218 40 CURVE SMOOTH",
"304.77 40 OFFCURVE",
"337.128 111.732 OFFCURVE",
"337.128 174 CURVE SMOOTH",
"337.128 224.729 OFFCURVE",
"313.176 268.541 OFFCURVE",
"276 272 CURVE",
"293 301 LINE",
"329 298.771 OFFCURVE",
"374.128 249.754 OFFCURVE",
"374.128 174 CURVE SMOOTH",
"374.128 94.539 OFFCURVE",
"331.72 3 OFFCURVE",
"218 3 CURVE SMOOTH",
"125.562 3 OFFCURVE",
"33 53.065 OFFCURVE"
);
}
);
width = 636;
}
);
unicode = 0D9C;
},
{
glyphname = sinGha;
lastChange = "2018-02-04 13:36:43 +0000";
layers = (
{
layerId = "6114C541-D024-4A3E-9713-6FAF49EAB318";
paths = (
{
closed = 1;
nodes = (
"248.975 0 OFFCURVE",
"281.5 54 OFFCURVE",
"281.5 94 CURVE SMOOTH",
"281.5 125 OFFCURVE",
"275.5 141.674 OFFCURVE",
"275.5 158 CURVE SMOOTH",
"275.5 171.093 OFFCURVE",
"280.5 180 OFFCURVE",
"297.5 180 CURVE SMOOTH",
"314.5 180 OFFCURVE",
"319.5 171.093 OFFCURVE",
"319.5 158 CURVE SMOOTH",
"319.5 141.674 OFFCURVE",
"313.5 125 OFFCURVE",
"313.5 94 CURVE SMOOTH",
"313.5 54 OFFCURVE",
"346.025 0 OFFCURVE",
"412.5 0 CURVE SMOOTH",
"524.113 0 OFFCURVE",
"562.22 95.096 OFFCURVE",
"562.22 207 CURVE SMOOTH",
"562 320 OFFCURVE",
"509 416 OFFCURVE",
"412.263 416.001 CURVE SMOOTH",
"17.446 416 LINE",
"17.446 319.667 LINE",
"58.263 319.563 LINE",
"44.263 294 OFFCURVE",
"32.78 248.301 OFFCURVE",
"32.78 207 CURVE SMOOTH",
"32.78 95.096 OFFCURVE",
"70.887 0 OFFCURVE",
"182.5 0 CURVE SMOOTH"
);
},
{
closed = 1;
nodes = (
"147.206 115 OFFCURVE",
"139.78 157.265 OFFCURVE",
"139.78 207 CURVE SMOOTH",
"139.78 258.09 OFFCURVE",
"159.263 318 OFFCURVE",
"200.019 318 CURVE SMOOTH",
"394.981 318 LINE SMOOTH",
"435.263 318 OFFCURVE",
"455.22 258.726 OFFCURVE",
"455.22 207 CURVE SMOOTH",
"455.22 157.265 OFFCURVE",
"447.794 115 OFFCURVE",
"412.5 115 CURVE SMOOTH",
"399.434 115 OFFCURVE",
"395.949 123.059 OFFCURVE",
"395.949 135.414 CURVE SMOOTH",
"395.949 149.535 OFFCURVE",
"400.5 169.269 OFFCURVE",
"400.5 189 CURVE SMOOTH",
"400.5 236.994 OFFCURVE",
"368.5 258 OFFCURVE",
"297.5 258 CURVE SMOOTH",
"226.5 258 OFFCURVE",
"194.5 236.994 OFFCURVE",
"194.5 189 CURVE SMOOTH",
"194.5 169.269 OFFCURVE",
"199.051 149.535 OFFCURVE",
"199.051 135.414 CURVE SMOOTH",
"199.051 123.059 OFFCURVE",
"195.567 115 OFFCURVE",
"182.5 115 CURVE SMOOTH"
);
},
{
closed = 1;
nodes = (
"340.18 467.354 LINE",
"340 532 OFFCURVE",
"272 594 OFFCURVE",
"196.827 594 CURVE SMOOTH",
"109.212 594 OFFCURVE",
"61.212 532.132 OFFCURVE",
"61.212 461.536 CURVE SMOOTH",
"61.212 433.095 OFFCURVE",
"70.475 403.236 OFFCURVE",
"91.501 375.437 CURVE",
"167.212 413.437 LINE",
"158.567 424.227 OFFCURVE",
"154.058 437.756 OFFCURVE",
"154.058 450.723 CURVE SMOOTH",
"154.058 474.293 OFFCURVE",
"168.958 496 OFFCURVE",
"201 496 CURVE SMOOTH",
"223.738 496 OFFCURVE",
"252.564 481.03 OFFCURVE",
"252.564 434.342 CURVE SMOOTH",
"252.564 428.669 OFFCURVE",
"252.062 422.253 OFFCURVE",
"251 416 CURVE",
"288 338 LINE"
);
},
{
closed = 1;
nodes = (
"344 416 LINE",
"342.938 422.242 OFFCURVE",
"342.436 428.679 OFFCURVE",
"342.436 434.342 CURVE SMOOTH",
"342.436 481.03 OFFCURVE",
"371.262 496 OFFCURVE",
"394 496 CURVE SMOOTH",
"429.144 496 OFFCURVE",
"443.356 475 OFFCURVE",
"443.356 451.164 CURVE SMOOTH",
"443.356 439.108 OFFCURVE",
"436.721 419.561 OFFCURVE",
"428.737 410.437 CURVE",
"505.446 369.03 LINE",
"525.584 394.65 OFFCURVE",
"536.832 428.15 OFFCURVE",
"536.832 456.407 CURVE SMOOTH",
"536.832 532.137 OFFCURVE",
"484.732 594 OFFCURVE",
"398.173 594 CURVE SMOOTH",
"325 594 OFFCURVE",
"255 534 OFFCURVE",
"254.82 467.354 CURVE",
"298 338 LINE"
);
}
);
width = 588;
},
{
layerId = "CC11FE7D-5FF0-4B40-9597-DFC61EB94F41";
paths = (
{
closed = 1;
nodes = (
"227.016 3 OFFCURVE",
"262.889 41.603 OFFCURVE",
"262.889 90 CURVE SMOOTH",
"262.889 131 OFFCURVE",
"241.889 147 OFFCURVE",
"241.889 172 CURVE SMOOTH",
"241.889 200.921 OFFCURVE",
"266.799 207 OFFCURVE",
"295.723 207 CURVE SMOOTH",
"324.646 207 OFFCURVE",
"349.557 200.921 OFFCURVE",
"349.557 172 CURVE SMOOTH",
"349.557 147 OFFCURVE",
"328.557 131 OFFCURVE",
"328.557 90 CURVE SMOOTH",
"328.557 41.603 OFFCURVE",
"364.43 3 OFFCURVE",
"413.723 3 CURVE SMOOTH",
"504.68 3 OFFCURVE",
"548.701 86.684 OFFCURVE",
"548.701 194.103 CURVE SMOOTH",
"549 298 OFFCURVE",
"515 405 OFFCURVE",
"418.572 405 CURVE SMOOTH",
"33 405 LINE",
"33 369 LINE",
"96.723 369 LINE",
"62.723 342 OFFCURVE",
"42.744 263 OFFCURVE",
"42.744 194.103 CURVE SMOOTH",
"42.744 86.684 OFFCURVE",
"86.766 3 OFFCURVE",
"177.723 3 CURVE SMOOTH"
);
},
{
closed = 1;
nodes = (
"111.698 35 OFFCURVE",
"79.744 102.481 OFFCURVE",
"79.744 189.103 CURVE SMOOTH",
"79.744 246.168 OFFCURVE",
"92.797 364 OFFCURVE",
"190.572 364 CURVE SMOOTH",
"416.723 364 LINE SMOOTH",
"500.571 364 OFFCURVE",
"511.701 247 OFFCURVE",
"511.701 189.103 CURVE SMOOTH",
"511.701 102.481 OFFCURVE",
"479.747 35 OFFCURVE",
"413.723 35 CURVE SMOOTH",
"385.845 35 OFFCURVE",
"365.557 57.186 OFFCURVE",
"365.557 85 CURVE SMOOTH",
"365.557 124 OFFCURVE",
"386.557 135 OFFCURVE",
"386.557 171 CURVE SMOOTH",
"386.557 225.03 OFFCURVE",
"348.047 239 OFFCURVE",
"295.723 239 CURVE SMOOTH",
"243.398 239 OFFCURVE",
"204.889 225.03 OFFCURVE",
"204.889 171 CURVE SMOOTH",
"204.889 135 OFFCURVE",
"225.889 124 OFFCURVE",
"225.889 85 CURVE SMOOTH",
"225.889 57.186 OFFCURVE",
"205.601 35 OFFCURVE",
"177.723 35 CURVE SMOOTH"
);
},
{
closed = 1;
nodes = (
"309.83 488 LINE",
"297.134 558.491 OFFCURVE",
"244.475 591 OFFCURVE",
"188.278 591 CURVE SMOOTH",
"131.572 591 OFFCURVE",
"71.97 553 OFFCURVE",
"71.97 474 CURVE SMOOTH",
"71.97 419 OFFCURVE",
"100.445 387 OFFCURVE",
"112.445 376 CURVE",
"134.445 396 LINE",
"124.445 406 OFFCURVE",
"105.445 432 OFFCURVE",
"105.445 474 CURVE SMOOTH",
"105.445 530.043 OFFCURVE",
"147.893 557 OFFCURVE",
"188.278 557 CURVE SMOOTH",
"236.641 557 OFFCURVE",
"278 525 OFFCURVE",
"279 454 CURVE SMOOTH",
"279 437 OFFCURVE",
"279 419 OFFCURVE",
"279 402 CURVE",
"295.723 369 LINE"
);
},
{
closed = 1;
nodes = (
"312.723 402 LINE",
"313 419 OFFCURVE",
"313 437 OFFCURVE",
"312.723 454 CURVE SMOOTH",
"312.723 524.746 OFFCURVE",
"354.805 557 OFFCURVE",
"403.167 557 CURVE SMOOTH",
"443.552 557 OFFCURVE",
"486 530.043 OFFCURVE",
"486 474 CURVE SMOOTH",
"486 437.959 OFFCURVE",
"468.611 402 OFFCURVE",
"441.611 382 CURVE",
"467.611 361 LINE",
"499.158 385.565 OFFCURVE",
"519.476 429.732 OFFCURVE",
"519.476 474 CURVE SMOOTH",
"519.476 553 OFFCURVE",
"459.873 591 OFFCURVE",
"403.167 591 CURVE SMOOTH",
"346.971 591 OFFCURVE",
"294.312 558.491 OFFCURVE",
"281.616 488 CURVE",
"296 389 LINE"
);
}
);
width = 581;
}
);
unicode = 0D9D;
},
{
glyphname = sinNga;
lastChange = "2018-02-04 13:36:43 +0000";
layers = (
{
layerId = "6114C541-D024-4A3E-9713-6FAF49EAB318";
paths = (
{
closed = 1;
nodes = (
"27.518 193.437 CURVE SMOOTH",
"27.518 272.337 OFFCURVE",
"64.067 331.214 OFFCURVE",
"120.525 358 CURVE",
"126.252 352.438 OFFCURVE",
"135.425 349.898 OFFCURVE",
"144.957 349.898 CURVE SMOOTH",
"162.847 349.898 OFFCURVE",
"182 358.849 OFFCURVE",
"182 373.58 CURVE",
"186.099 373.847 OFFCURVE",
"190.25 373.981 OFFCURVE",
"194.451 373.981 CURVE SMOOTH",
"236.845 373.981 OFFCURVE",
"237.953 368.651 OFFCURVE",
"263.813 368.651 CURVE SMOOTH",
"285 368.651 OFFCURVE",
"295 380 OFFCURVE",
"295 400 CURVE SMOOTH",
"295 431.162 OFFCURVE",
"278.095 444.884 OFFCURVE",
"250.956 444.884 CURVE SMOOTH",
"226.278 444.884 OFFCURVE",
"199.013 435.564 OFFCURVE",
"178.803 425.293 CURVE",
"166.968 439.258 OFFCURVE",
"152.894 445.191 OFFCURVE",
"139.738 445.191 CURVE SMOOTH",
"116.429 445.191 OFFCURVE",
"96 426.568 OFFCURVE",
"96 401 CURVE",
"32 452 LINE",
"63 510 OFFCURVE",
"115.257 527 OFFCURVE",
"209 527 CURVE SMOOTH",
"286.813 527 OFFCURVE",
"386.654 501.325 OFFCURVE",
"386.654 401 CURVE SMOOTH",
"386.654 322 OFFCURVE",
"344.487 290 OFFCURVE",
"281 290 CURVE SMOOTH",
"257.594 290 OFFCURVE",
"236.643 295 OFFCURVE",
"213 295 CURVE SMOOTH",
"166.279 295 OFFCURVE",
"134.518 261.418 OFFCURVE",
"134.518 193.437 CURVE SMOOTH",
"134.518 156.328 OFFCURVE",
"140.191 114.652 OFFCURVE",
"177.449 114.652 CURVE SMOOTH",
"219.625 114.652 OFFCURVE",
"234.631 179.678 OFFCURVE",
"234.631 249.5 CURVE",
"330.542 249.5 LINE",
"330.542 176.75 OFFCURVE",
"346.01 115 OFFCURVE",
"389 115 CURVE SMOOTH",
"445.756 115 OFFCURVE",
"445.756 239.958 OFFCURVE",
"445.756 293 CURVE SMOOTH",
"445.756 522.797 OFFCURVE",
"402.756 639.885 OFFCURVE",
"264.756 639.885 CURVE SMOOTH",
"223.652 639.885 OFFCURVE",
"175.993 618.96 OFFCURVE",
"158.938 576.855 CURVE",
"49.905 613.029 LINE",
"85.89 707.868 OFFCURVE",
"178.035 755 OFFCURVE",
"264.756 755 CURVE SMOOTH",
"481.756 755 OFFCURVE",
"560.756 599.056 OFFCURVE",
"560.756 293 CURVE SMOOTH",
"560.756 181.996 OFFCURVE",
"559.756 0 OFFCURVE",
"389 0 CURVE SMOOTH",
"333.08 0 OFFCURVE",
"295.058 33.145 OFFCURVE",
"280.237 79.03 CURVE",
"264.092 31.603 OFFCURVE",
"224.68 0 OFFCURVE",
"172 0 CURVE SMOOTH",
"56.2 0 OFFCURVE",
"27.518 105.454 OFFCURVE"
);
},
{
closed = 1;
nodes = (
"97.335 397.302 CURVE SMOOTH",
"97.335 375.051 OFFCURVE",
"114.968 357.127 OFFCURVE",
"136.856 357.127 CURVE SMOOTH",
"158.745 357.127 OFFCURVE",
"176.378 375.051 OFFCURVE",
"176.378 397.302 CURVE SMOOTH",
"176.378 419.552 OFFCURVE",
"158.745 437.477 OFFCURVE",
"136.856 437.477 CURVE SMOOTH",
"114.968 437.477 OFFCURVE",
"97.335 419.552 OFFCURVE"
);
},
{
closed = 1;
nodes = (
"18.35 397.65 CURVE SMOOTH",
"18.35 462.81 OFFCURVE",
"70.84 515.3 OFFCURVE",
"136 515.3 CURVE SMOOTH",
"201.159 515.3 OFFCURVE",
"253.649 462.81 OFFCURVE",
"253.649 397.65 CURVE SMOOTH",
"253.649 332.49 OFFCURVE",
"201.159 280 OFFCURVE",
"136 280 CURVE SMOOTH",
"70.84 280 OFFCURVE",
"18.35 332.49 OFFCURVE"
);
}
);
width = 574;
},
{
layerId = "CC11FE7D-5FF0-4B40-9597-DFC61EB94F41";
paths = (
{
closed = 1;
nodes = (
"33.243 179.103 CURVE SMOOTH",
"33.243 282.632 OFFCURVE",
"83.611 324.996 OFFCURVE",
"126.574 342 CURVE",
"130.591 340.617 OFFCURVE",
"134.587 340.031 OFFCURVE",
"138.393 340.031 CURVE SMOOTH",
"151.095 340.031 OFFCURVE",
"161.692 346.557 OFFCURVE",
"164 351.754 CURVE",
"171.102 352.714 OFFCURVE",
"176.928 353 OFFCURVE",
"180.853 353 CURVE SMOOTH",
"232.835 353 OFFCURVE",
"229.777 346 OFFCURVE",
"268 346 CURVE SMOOTH",
"295.244 346 OFFCURVE",
"320 365.765 OFFCURVE",
"320 402 CURVE SMOOTH",
"320 459.88 OFFCURVE",
"275 477 OFFCURVE",
"202 477 CURVE SMOOTH",
"191.967 477 OFFCURVE",
"179.803 476.48 OFFCURVE",
"167 474.978 CURVE",
"153.799 473.429 OFFCURVE",
"139.92 470.836 OFFCURVE",
"127 466.691 CURVE SMOOTH",
"97.499 457.227 OFFCURVE",
"73 439.675 OFFCURVE",
"73 408 CURVE",
"45 441 LINE",
"70 500 OFFCURVE",
"128.957 510.027 OFFCURVE",
"202 510.027 CURVE SMOOTH",
"290.58 510.027 OFFCURVE",
"357 478.035 OFFCURVE",
"357 402 CURVE SMOOTH",
"357 331.448 OFFCURVE",
"306.533 309 OFFCURVE",
"268 309 CURVE SMOOTH",
"223.662 309 OFFCURVE",
"222.133 316 OFFCURVE",
"180.853 316 CURVE SMOOTH",
"125.89 316 OFFCURVE",
"70.243 280.286 OFFCURVE",
"70.243 180.103 CURVE SMOOTH",
"70.243 102.39 OFFCURVE",
"94.643 40 OFFCURVE",
"156.687 40 CURVE SMOOTH",
"247.853 40 OFFCURVE",
"254.444 148.886 OFFCURVE",
"257.687 224.5 CURVE",
"291.687 224.5 LINE",
"294.929 148.886 OFFCURVE",
"301.521 40 OFFCURVE",
"392.687 40 CURVE SMOOTH",
"485.42 40 OFFCURVE",
"492.243 164 OFFCURVE",
"492.243 293 CURVE SMOOTH",
"492.243 576.887 OFFCURVE",
"417.792 712 OFFCURVE",
"264.687 712 CURVE SMOOTH",
"193.814 712 OFFCURVE",
"125.338 665.927 OFFCURVE",
"102.014 605 CURVE",
"68.014 618 LINE",
"96.213 692.593 OFFCURVE",
"179.001 749 OFFCURVE",
"264.687 749 CURVE SMOOTH",
"442.687 749 OFFCURVE",
"529.243 601.955 OFFCURVE",
"529.243 293 CURVE SMOOTH",
"529.243 145.135 OFFCURVE",
"519.884 3 OFFCURVE",
"392.687 3 CURVE SMOOTH",
"297.521 3 OFFCURVE",
"278.521 85 OFFCURVE",
"274.687 115 CURVE",
"270.853 85 OFFCURVE",
"251.853 3 OFFCURVE",
"156.687 3 CURVE SMOOTH",
"68.087 3 OFFCURVE",
"33.243 81.421 OFFCURVE"
);
},
{
closed = 1;
nodes = (
"75.416 404 CURVE SMOOTH",
"75.416 373.042 OFFCURVE",
"100.135 347.438 OFFCURVE",
"131.416 347.438 CURVE SMOOTH",
"162.676 347.438 OFFCURVE",
"187.416 373.036 OFFCURVE",
"187.416 404 CURVE SMOOTH",
"187.416 434.957 OFFCURVE",
"162.698 460.562 OFFCURVE",
"131.416 460.562 CURVE SMOOTH",
"100.155 460.562 OFFCURVE",
"75.416 434.963 OFFCURVE"
);
},
{
closed = 1;
nodes = (
"38.85 404.021 CURVE SMOOTH",
"38.85 459.098 OFFCURVE",
"72.98 494 OFFCURVE",
"132 494 CURVE SMOOTH",
"187.942 494 OFFCURVE",
"223.148 454.464 OFFCURVE",
"223.148 404.021 CURVE SMOOTH",
"223.148 352.911 OFFCURVE",
"182.106 311.87 OFFCURVE",
"131 311.87 CURVE SMOOTH",
"79.891 311.87 OFFCURVE",
"38.85 352.911 OFFCURVE"
);
}
);
width = 608;
}
);
unicode = 0D9E;
},
{
glyphname = sinNnga;
lastChange = "2018-02-04 13:36:43 +0000";
layers = (
{
layerId = "6114C541-D024-4A3E-9713-6FAF49EAB318";
paths = (
{
closed = 1;
nodes = (
"387.628 300 LINE",
"434.854 329.971 OFFCURVE",
"437.022 362.287 OFFCURVE",
"437.022 391.939 CURVE SMOOTH",
"437.022 398.411 OFFCURVE",
"437.217 404.713 OFFCURVE",
"437.596 410.844 CURVE SMOOTH",
"444.906 528.957 OFFCURVE",
"520.977 584 OFFCURVE",
"602 584 CURVE SMOOTH",
"709 584 OFFCURVE",
"807 526.375 OFFCURVE",
"807 292 CURVE SMOOTH",
"807 69.426 OFFCURVE",
"722.228 0 OFFCURVE",
"618.628 0 CURVE SMOOTH",
"542.714 0 OFFCURVE",
"501.285 50.021 OFFCURVE",
"492 86 CURVE",
"557 158 LINE",
"562.177 141.414 OFFCURVE",
"577 106 OFFCURVE",
"618.628 106 CURVE SMOOTH",
"661.73 106 OFFCURVE",
"698 150.341 OFFCURVE",
"698 292 CURVE SMOOTH",
"698 439.547 OFFCURVE",
"651.585 477 OFFCURVE",
"602 477 CURVE SMOOTH",
"556.726 477 OFFCURVE",
"542.47 447.101 OFFCURVE",
"539.594 388.844 CURVE SMOOTH",
"539.178 380.434 OFFCURVE",
"539 371.432 OFFCURVE",
"539 361.844 CURVE SMOOTH",
"539 286 OFFCURVE",
"494 253.844 OFFCURVE",
"434 219.844 CURVE"
);
},
{
closed = 1;
nodes = (
"193 292 CURVE SMOOTH",
"193 514.574 OFFCURVE",
"277.772 584 OFFCURVE",
"381.372 584 CURVE SMOOTH",
"457.286 584 OFFCURVE",
"498.715 533.979 OFFCURVE",
"508 498 CURVE",
"443 426 LINE",
"437.823 442.586 OFFCURVE",
"423 478 OFFCURVE",
"381.372 478 CURVE SMOOTH",
"338.27 478 OFFCURVE",
"302 433.659 OFFCURVE",
"302 292 CURVE SMOOTH",
"302 144.453 OFFCURVE",
"348.415 107 OFFCURVE",
"398 107 CURVE SMOOTH",
"459 107 OFFCURVE",
"477.628 146.156 OFFCURVE",
"477.628 184.156 CURVE SMOOTH",
"477.628 219.156 OFFCURVE",
"461.891 231.251 OFFCURVE",
"449.628 236.156 CURVE",
"512.628 306.156 LINE",
"548.628 294.449 OFFCURVE",
"579.628 243.156 OFFCURVE",
"579.628 189.156 CURVE SMOOTH",
"579.628 94.73 OFFCURVE",
"528.561 0 OFFCURVE",
"398 0 CURVE SMOOTH",
"291.001 0 OFFCURVE",
"193 57.625 OFFCURVE"
);
},
{
closed = 1;
nodes = (
"21.093 283.844 CURVE SMOOTH",
"21.093 506.418 OFFCURVE",
"106.274 583.844 OFFCURVE",
"210.372 583.844 CURVE SMOOTH",
"279.692 583.844 OFFCURVE",
"317.521 527.424 OFFCURVE",
"326 486.844 CURVE",
"272 425.844 LINE",
"266.823 442.43 OFFCURVE",
"252 479.844 OFFCURVE",
"210.372 479.844 CURVE SMOOTH",
"166.795 479.844 OFFCURVE",
"127.093 425.503 OFFCURVE",
"127.093 283.844 CURVE SMOOTH",
"127.093 131.5 OFFCURVE",
"150.872 101.844 OFFCURVE",
"184.093 101.844 CURVE SMOOTH",
"184.093 -0.156 LINE SMOOTH",
"89.093 -0.156 OFFCURVE",
"21.093 46.12 OFFCURVE"
);
}
);
width = 829;
},
{
layerId = "CC11FE7D-5FF0-4B40-9597-DFC61EB94F41";
paths = (
{
closed = 1;
nodes = (
"380 276 LINE",
"424.565 295.978 OFFCURVE",
"430.831 338.025 OFFCURVE",
"430.831 369.95 CURVE SMOOTH",
"430.831 382.439 OFFCURVE",
"429.872 393.38 OFFCURVE",
"429.872 400.844 CURVE SMOOTH",
"429.872 512.851 OFFCURVE",
"499 581 OFFCURVE",
"579 581 CURVE SMOOTH",
"671.438 581 OFFCURVE",
"754.372 528 OFFCURVE",
"754.372 292 CURVE SMOOTH",
"754.372 57 OFFCURVE",
"672.041 3 OFFCURVE",
"586 3 CURVE SMOOTH",
"530.235 3 OFFCURVE",
"493.761 31.682 OFFCURVE",
"475 70.797 CURVE SMOOTH",
"498.372 123 LINE",
"501.372 83 OFFCURVE",
"533.372 40 OFFCURVE",
"586 40 CURVE SMOOTH",
"652.878 40 OFFCURVE",
"716.872 87.087 OFFCURVE",
"716.872 292 CURVE SMOOTH",
"716.872 497.785 OFFCURVE",
"652.701 544 OFFCURVE",
"579 544 CURVE SMOOTH",
"503.452 544 OFFCURVE",
"466.872 474.387 OFFCURVE",
"466.872 400.844 CURVE SMOOTH",
"466.872 392.559 OFFCURVE",
"467.457 382.064 OFFCURVE",
"467.457 370.388 CURVE SMOOTH",
"467.457 328.728 OFFCURVE",
"460.013 272.025 OFFCURVE",
"392 247 CURVE"
);
},
{
closed = 1;
nodes = (
"184 276 CURVE SMOOTH",
"184 524.01 OFFCURVE",
"266.331 581 OFFCURVE",
"352.372 581 CURVE SMOOTH",
"426 581 OFFCURVE",
"466 531 OFFCURVE",
"476 473 CURVE",
"440 461 LINE",
"437 501 OFFCURVE",
"405 544 OFFCURVE",
"352.372 544 CURVE SMOOTH",
"285.494 544 OFFCURVE",
"221.5 493.924 OFFCURVE",
"221.5 276 CURVE SMOOTH",
"221.5 83.28 OFFCURVE",
"295.299 40 OFFCURVE",
"369 40 CURVE SMOOTH",
"455.77 40 OFFCURVE",
"488.128 111.732 OFFCURVE",
"488.128 174 CURVE SMOOTH",
"488.128 224.729 OFFCURVE",
"464.176 268.541 OFFCURVE",
"427 272 CURVE",
"444 301 LINE",
"480 298.771 OFFCURVE",
"525.128 249.755 OFFCURVE",
"525.128 174 CURVE SMOOTH",
"525.128 94.539 OFFCURVE",
"482.72 3 OFFCURVE",
"369 3 CURVE SMOOTH",
"276.562 3 OFFCURVE",
"184 53.065 OFFCURVE"
);
},
{
closed = 1;
nodes = (
"33 281 CURVE SMOOTH",
"33 513.989 OFFCURVE",
"99.177 576 OFFCURVE",
"161.493 576 CURVE SMOOTH",
"221.021 576 OFFCURVE",
"249.476 531 OFFCURVE",
"249.476 471.001 CURVE",
"216 471.001 LINE",
"214.71 518.658 OFFCURVE",
"191.396 539 OFFCURVE",
"161.493 539 CURVE SMOOTH",
"117.121 539 OFFCURVE",
"70 484.767 OFFCURVE",
"70 281 CURVE SMOOTH",
"70 111.295 OFFCURVE",
"103.938 47.263 OFFCURVE",
"145 40 CURVE",
"145 3 LINE",
"83.681 11.378 OFFCURVE",
"33 85.24 OFFCURVE"
);
}
);
width = 787;
}
);
unicode = 0D9F;
},
{
glyphname = sinCa;
lastChange = "2018-02-04 13:36:43 +0000";
layers = (
{
layerId = "6114C541-D024-4A3E-9713-6FAF49EAB318";
paths = (
{
closed = 1;
nodes = (
"28.358 200.596 CURVE SMOOTH",
"28.358 243.271 OFFCURVE",
"40.736 281.649 OFFCURVE",
"59 306 CURVE",
"22.238 306 LINE",
"22.238 393 LINE",
"287.104 390 LINE",
"320.944 306 LINE",
"214 306 LINE SMOOTH",
"157.215 306 OFFCURVE",
"136.981 261.911 OFFCURVE",
"136.981 214.068 CURVE SMOOTH",
"136.981 166.573 OFFCURVE",
"166.315 115 OFFCURVE",
"247 115 CURVE SMOOTH",
"351.452 115 OFFCURVE",
"393 195.018 OFFCURVE",
"393 354 CURVE SMOOTH",
"393 583 OFFCURVE",
"321.68 640 OFFCURVE",
"238.854 640 CURVE SMOOTH",
"197.751 640 OFFCURVE",
"157.666 618.96 OFFCURVE",
"140.61 576.855 CURVE",
"31.578 613.029 LINE",
"67.562 707.868 OFFCURVE",
"152.134 755 OFFCURVE",
"238.854 755 CURVE SMOOTH",
"378.326 755 OFFCURVE",
"509 675.859 OFFCURVE",
"509 354 CURVE SMOOTH",
"508 118 OFFCURVE",
"427 0 OFFCURVE",
"247 0 CURVE SMOOTH",
"83.354 0 OFFCURVE",
"28.358 112.89 OFFCURVE"
);
},
{
closed = 1;
nodes = (
"56.536 409.272 CURVE SMOOTH",
"56.536 481.535 OFFCURVE",
"105.507 531.563 OFFCURVE",
"179.809 531.563 CURVE SMOOTH",
"256.795 531.563 OFFCURVE",
"328.193 474.899 OFFCURVE",
"328.193 365.563 CURVE SMOOTH",
"328.193 351 OFFCURVE",
"325 325 OFFCURVE",
"320.944 306 CURVE",
"230.564 371.875 LINE",
"231.505 376.782 OFFCURVE",
"231.979 381.771 OFFCURVE",
"231.979 386.714 CURVE SMOOTH",
"231.979 416.144 OFFCURVE",
"215.166 444 OFFCURVE",
"179.809 444 CURVE SMOOTH",
"155.009 444 OFFCURVE",
"146.017 426.134 OFFCURVE",
"146.017 404.787 CURVE SMOOTH",
"146.017 386.793 OFFCURVE",
"158.302 370.325 OFFCURVE",
"167 356 CURVE",
"87 318.563 LINE",
"67 351 OFFCURVE",
"56.536 380.62 OFFCURVE"
);
}
);
width = 531;
},
{
layerId = "CC11FE7D-5FF0-4B40-9597-DFC61EB94F41";
paths = (
{
closed = 1;
nodes = (
"47.243 207 CURVE SMOOTH",
"47.243 309.342 OFFCURVE",
"97.243 349 OFFCURVE",
"106.243 354 CURVE",
"33 354 LINE",
"33 389 LINE",
"305.52 389 LINE",
"313.243 354 LINE",
"183.243 354 LINE SMOOTH",
"132.243 354 OFFCURVE",
"83.243 296.709 OFFCURVE",
"83.243 208 CURVE SMOOTH",
"83.243 142.715 OFFCURVE",
"115.394 40 OFFCURVE",
"252.243 40 CURVE SMOOTH",
"380.108 40 OFFCURVE",
"453.243 150.519 OFFCURVE",
"453.243 354 CURVE SMOOTH",
"453.243 634.015 OFFCURVE",
"362.466 712 OFFCURVE",
"251.243 712 CURVE SMOOTH",
"180.371 712 OFFCURVE",
"122.567 665.927 OFFCURVE",
"99.243 605 CURVE",
"65.243 618 LINE",
"103.243 716 OFFCURVE",
"191.211 749 OFFCURVE",
"251.243 749 CURVE SMOOTH",
"383.389 749 OFFCURVE",
"491.243 662.955 OFFCURVE",
"491.243 354 CURVE SMOOTH",
"491.243 126.541 OFFCURVE",
"404.282 3 OFFCURVE",
"252.243 3 CURVE SMOOTH",
"86.243 3 OFFCURVE",
"47.243 127.726 OFFCURVE"
);
},
{
closed = 1;
nodes = (
"81.243 420 CURVE SMOOTH",
"81.243 488 OFFCURVE",
"132.587 524 OFFCURVE",
"191.243 524 CURVE SMOOTH",
"255.8 524 OFFCURVE",
"315.688 481.099 OFFCURVE",
"315.688 387 CURVE SMOOTH",
"315.688 375.04 OFFCURVE",
"314.802 364.262 OFFCURVE",
"313.243 354 CURVE",
"281.863 379 LINE",
"282 382 OFFCURVE",
"282 384 OFFCURVE",
"281.688 387 CURVE",
"281.688 457.746 OFFCURVE",
"239.605 490 OFFCURVE",
"191.243 490 CURVE SMOOTH",
"149.286 490 OFFCURVE",
"114.719 467 OFFCURVE",
"114.719 420 CURVE SMOOTH",
"114.719 406.329 OFFCURVE",
"117.708 394.165 OFFCURVE",
"122.624 384 CURVE",
"93.754 370 LINE",
"86.4 384.32 OFFCURVE",
"81.243 401.846 OFFCURVE"
);
}
);
width = 524;
}
);
unicode = 0DA0;
},
{
glyphname = sinCha;
lastChange = "2018-02-04 13:36:43 +0000";
layers = (
{
layerId = "6114C541-D024-4A3E-9713-6FAF49EAB318";
paths = (
{
closed = 1;
nodes = (
"363.039 576 LINE SMOOTH",
"472.748 688.385 OFFCURVE",
"479.176 723.753 OFFCURVE",
"479.176 779 CURVE",
"589.176 779 LINE",
"589.176 681.148 OFFCURVE",
"538.898 617 OFFCURVE",
"461.176 537 CURVE SMOOTH"
);
},
{
closed = 1;
nodes = (
"244.041 467.354 CURVE SMOOTH",
"244.041 473.071 OFFCURVE",
"244.605 478.329 OFFCURVE",
"245.856 483 CURVE SMOOTH",
"265.485 556.276 OFFCURVE",
"324.575 594 OFFCURVE",
"387.394 594 CURVE SMOOTH",
"473.953 594 OFFCURVE",
"536.951 538.437 OFFCURVE",
"536.951 408.68 CURVE SMOOTH",
"536.951 262.437 OFFCURVE",
"458.476 191.437 OFFCURVE",
"360.476 191.437 CURVE SMOOTH",
"287.904 191.437 OFFCURVE",
"253.848 239.871 OFFCURVE",
"253.848 282.802 CURVE SMOOTH",
"253.848 296.07 OFFCURVE",
"257.101 308.812 OFFCURVE",
"263.476 319.437 CURVE",
"352.476 318.437 LINE",
"342.757 315.901 OFFCURVE",
"337.858 308.278 OFFCURVE",
"337.858 300.319 CURVE SMOOTH",
"337.858 289.444 OFFCURVE",
"347.005 277.943 OFFCURVE",
"365.493 277.943 CURVE SMOOTH",
"406.476 277.943 OFFCURVE",
"443.476 302.437 OFFCURVE",
"443.476 403.437 CURVE SMOOTH",
"443.476 474.437 OFFCURVE",
"414.759 496 OFFCURVE",
"383.221 496 CURVE SMOOTH",
"360.482 496 OFFCURVE",
"331.656 481.03 OFFCURVE",
"331.656 434.342 CURVE SMOOTH",
"331.656 428.679 OFFCURVE",
"332.159 422.242 OFFCURVE",
"333.221 416 CURVE SMOOTH",
"286.721 318.437 LINE",
"274.109 359.423 OFFCURVE",
"244.041 425.625 OFFCURVE"
);
},
{
closed = 1;
nodes = (
"129 224 CURVE SMOOTH",
"129.001 144.037 OFFCURVE",
"207.712 104.167 OFFCURVE",
"286.497 104.167 CURVE SMOOTH",
"365.431 104.167 OFFCURVE",
"444.439 144.187 OFFCURVE",
"444.439 224 CURVE SMOOTH",
"444.439 275.726 OFFCURVE",
"417 318 OFFCURVE",
"362 318 CURVE SMOOTH",
"211.439 318 LINE SMOOTH",
"156.443 318 OFFCURVE",
"129 276.868 OFFCURVE"
);
},
{
closed = 1;
nodes = (
"22 224 CURVE SMOOTH",
"22 329.377 OFFCURVE",
"83.057 416 OFFCURVE",
"205.439 416 CURVE SMOOTH",
"368 416 LINE SMOOTH",
"490.383 416 OFFCURVE",
"551.439 329.652 OFFCURVE",
"551.439 224 CURVE SMOOTH",
"551.439 66.501 OFFCURVE",
"419.08 -12.249 OFFCURVE",
"286.721 -12.249 CURVE SMOOTH",
"154.36 -12.249 OFFCURVE",
"22 66.502 OFFCURVE"
);
},
{
closed = 1;
nodes = (
"47.389 456.407 CURVE SMOOTH",
"47.389 532.137 OFFCURVE",
"99.488 594 OFFCURVE",
"186.048 594 CURVE SMOOTH",
"248.866 594 OFFCURVE",
"307.959 556.277 OFFCURVE",
"327.585 483 CURVE SMOOTH",
"328.836 478.329 OFFCURVE",
"329.4 473.071 OFFCURVE",
"329.4 467.354 CURVE SMOOTH",
"329.4 425.625 OFFCURVE",
"299.332 359.423 OFFCURVE",
"286.721 318.437 CURVE",
"240.221 416 LINE SMOOTH",
"241.282 422.242 OFFCURVE",
"241.785 428.679 OFFCURVE",
"241.785 434.342 CURVE SMOOTH",
"241.785 481.03 OFFCURVE",
"212.959 496 OFFCURVE",
"190.221 496 CURVE SMOOTH",
"155.077 496 OFFCURVE",
"140.864 475 OFFCURVE",
"140.864 451.164 CURVE SMOOTH",
"140.864 439.108 OFFCURVE",
"147.5 419.561 OFFCURVE",
"155.483 410.437 CURVE",
"78.774 369.03 LINE",
"58.637 394.649 OFFCURVE",
"47.389 428.149 OFFCURVE"
);
}
);
width = 566;
},
{
layerId = "CC11FE7D-5FF0-4B40-9597-DFC61EB94F41";
paths = (
{
closed = 1;
nodes = (
"412.864 575 LINE SMOOTH",
"484.497 647.766 OFFCURVE",
"533 705.781 OFFCURVE",
"533 776 CURVE",
"569 776 LINE",
"569 698.187 OFFCURVE",
"518.717 632.518 OFFCURVE",
"441.609 553 CURVE SMOOTH"
);
},
{
closed = 1;
nodes = (
"271.834 454 CURVE SMOOTH",
"271.834 466.186 OFFCURVE",
"272.838 477.514 OFFCURVE",
"274.727 488 CURVE SMOOTH",
"287.42 558.491 OFFCURVE",
"340.082 591 OFFCURVE",
"396.278 591 CURVE SMOOTH",
"491 591 OFFCURVE",
"526 505 OFFCURVE",
"526 426 CURVE SMOOTH",
"526 296.292 OFFCURVE",
"465.155 196 OFFCURVE",
"368 196 CURVE SMOOTH",
"300.656 196 OFFCURVE",
"267.956 247.021 OFFCURVE",
"267.956 298.338 CURVE SMOOTH",
"267.956 338.461 OFFCURVE",
"287.947 378.765 OFFCURVE",
"327 395 CURVE",
"347 366 LINE",
"320.153 355.846 OFFCURVE",
"305.698 326.094 OFFCURVE",
"305.698 296.997 CURVE SMOOTH",
"305.698 263.053 OFFCURVE",
"325.372 230 OFFCURVE",
"368 230 CURVE SMOOTH",
"438 230 OFFCURVE",
"492.524 322 OFFCURVE",
"492.524 426 CURVE SMOOTH",
"492.524 482.043 OFFCURVE",
"463 557 OFFCURVE",
"396.278 557 CURVE SMOOTH",
"347.916 557 OFFCURVE",
"305.834 524.746 OFFCURVE",
"305.834 454 CURVE SMOOTH",
"306 435 OFFCURVE",
"306 416 OFFCURVE",
"305.834 402 CURVE",
"288.834 369 LINE",
"279.118 397.663 OFFCURVE",
"271.834 421.384 OFFCURVE"
);
},
{
closed = 1;
nodes = (
"70 224.437 CURVE SMOOTH",
"70 107.242 OFFCURVE",
"156.024 30 OFFCURVE",
"288.834 30 CURVE SMOOTH",
"421.644 30 OFFCURVE",
"507.668 106.806 OFFCURVE",
"507.668 224 CURVE SMOOTH",
"507.668 299.407 OFFCURVE",
"469.191 365 OFFCURVE",
"385 365 CURVE SMOOTH",
"192.668 365 LINE SMOOTH",
"108.477 365 OFFCURVE",
"70 299.844 OFFCURVE"
);
},
{
closed = 1;
nodes = (
"33 224.437 CURVE SMOOTH",
"33 319.693 OFFCURVE",
"85.903 402 OFFCURVE",
"192.668 402 CURVE SMOOTH",
"385 402 LINE SMOOTH",
"491.765 402 OFFCURVE",
"544.668 319.257 OFFCURVE",
"544.668 224 CURVE SMOOTH",
"544.668 84.505 OFFCURVE",
"444.34 -7 OFFCURVE",
"288.834 -7 CURVE SMOOTH",
"133.328 -7 OFFCURVE",
"33 84.941 OFFCURVE"
);
},
{
closed = 1;
nodes = (
"65.08 474 CURVE SMOOTH",
"65.08 553 OFFCURVE",
"124.683 591 OFFCURVE",
"181.389 591 CURVE SMOOTH",
"237.585 591 OFFCURVE",
"290.247 558.491 OFFCURVE",
"302.94 488 CURVE SMOOTH",
"304.829 477.514 OFFCURVE",
"305.833 466.186 OFFCURVE",
"305.833 454 CURVE SMOOTH",
"305.833 421.384 OFFCURVE",
"298.549 397.663 OFFCURVE",
"288.833 369 CURVE",
"271.833 402 LINE",
"272 416 OFFCURVE",
"272 435 OFFCURVE",
"271.834 454 CURVE SMOOTH",
"271.834 524.746 OFFCURVE",
"229.751 557 OFFCURVE",
"181.389 557 CURVE SMOOTH",
"141.004 557 OFFCURVE",
"98.556 530.043 OFFCURVE",
"98.556 474 CURVE SMOOTH",
"98.556 437.959 OFFCURVE",
"115.944 402 OFFCURVE",
"142.944 382 CURVE",
"116.944 361 LINE",
"85.397 385.565 OFFCURVE",
"65.08 429.732 OFFCURVE"
);
}
);
width = 602;
}
);
unicode = 0DA1;
},
{
glyphname = sinJa;
lastChange = "2018-02-04 13:36:43 +0000";
layers = (
{
layerId = "6114C541-D024-4A3E-9713-6FAF49EAB318";
paths = (
{
closed = 1;
nodes = (
"363.039 576 LINE SMOOTH",
"472.748 688.385 OFFCURVE",
"479.176 723.753 OFFCURVE",
"479.176 779 CURVE",
"589.176 779 LINE",
"589.176 681.148 OFFCURVE",
"538.898 617 OFFCURVE",
"461.176 537 CURVE SMOOTH"
);
},
{
closed = 1;
nodes = (
"244.041 467.354 CURVE SMOOTH",
"244.041 473.071 OFFCURVE",
"244.605 478.329 OFFCURVE",
"245.856 483 CURVE SMOOTH",
"265.482 556.277 OFFCURVE",
"324.575 594 OFFCURVE",
"387.394 594 CURVE SMOOTH",
"473.953 594 OFFCURVE",
"526.053 532.137 OFFCURVE",
"526.053 456.407 CURVE SMOOTH",
"526.053 428.149 OFFCURVE",
"514.805 394.649 OFFCURVE",
"494.667 369.03 CURVE",
"417.958 410.437 LINE",
"425.941 419.561 OFFCURVE",
"432.577 439.108 OFFCURVE",
"432.577 451.164 CURVE SMOOTH",
"432.577 475 OFFCURVE",
"418.364 496 OFFCURVE",
"383.221 496 CURVE SMOOTH",
"360.482 496 OFFCURVE",
"331.656 481.03 OFFCURVE",
"331.656 434.342 CURVE SMOOTH",
"331.656 428.679 OFFCURVE",
"332.159 422.242 OFFCURVE",
"333.221 416 CURVE SMOOTH",
"286.721 318.437 LINE",
"274.109 359.423 OFFCURVE",
"244.041 425.625 OFFCURVE"
);
},
{
closed = 1;
nodes = (
"129 224 CURVE SMOOTH",
"129 144.037 OFFCURVE",
"207.712 104.167 OFFCURVE",
"286.497 104.167 CURVE SMOOTH",
"365.431 104.167 OFFCURVE",
"444.439 144.187 OFFCURVE",
"444.439 224 CURVE SMOOTH",
"444.439 275.726 OFFCURVE",
"417 318 OFFCURVE",
"362 318 CURVE SMOOTH",
"211.439 318 LINE SMOOTH",
"156.439 318 OFFCURVE",
"129 275.726 OFFCURVE"
);
},
{
closed = 1;
nodes = (
"22 224 CURVE SMOOTH",
"22 329.377 OFFCURVE",
"83.057 416 OFFCURVE",
"205.439 416 CURVE SMOOTH",
"368 416 LINE SMOOTH",
"490.383 416 OFFCURVE",
"551.439 329.652 OFFCURVE",
"551.439 224 CURVE SMOOTH",
"551.439 66.501 OFFCURVE",
"419.08 -12.249 OFFCURVE",
"286.721 -12.249 CURVE SMOOTH",
"154.36 -12.249 OFFCURVE",
"22 66.502 OFFCURVE"
);
},
{
closed = 1;
nodes = (
"47.389 456.407 CURVE SMOOTH",
"47.389 532.137 OFFCURVE",
"99.488 594 OFFCURVE",
"186.048 594 CURVE SMOOTH",
"248.866 594 OFFCURVE",
"307.959 556.277 OFFCURVE",
"327.585 483 CURVE SMOOTH",
"328.836 478.329 OFFCURVE",
"329.4 473.071 OFFCURVE",
"329.4 467.354 CURVE SMOOTH",
"329.4 425.625 OFFCURVE",
"299.332 359.423 OFFCURVE",
"286.721 318.437 CURVE",
"240.221 416 LINE SMOOTH",
"241.282 422.242 OFFCURVE",
"241.785 428.679 OFFCURVE",
"241.785 434.342 CURVE SMOOTH",
"241.785 481.03 OFFCURVE",
"212.959 496 OFFCURVE",
"190.221 496 CURVE SMOOTH",
"155.077 496 OFFCURVE",
"140.864 475 OFFCURVE",
"140.864 451.164 CURVE SMOOTH",
"140.864 439.108 OFFCURVE",
"147.5 419.561 OFFCURVE",
"155.483 410.437 CURVE",
"78.774 369.03 LINE",
"58.637 394.649 OFFCURVE",
"47.389 428.149 OFFCURVE"
);
}
);
width = 566;
},
{
layerId = "CC11FE7D-5FF0-4B40-9597-DFC61EB94F41";
paths = (
{
closed = 1;
nodes = (
"412.864 575 LINE SMOOTH",
"484.497 647.766 OFFCURVE",
"533 705.781 OFFCURVE",
"533 776 CURVE",
"569 776 LINE",
"569 698.187 OFFCURVE",
"518.717 632.518 OFFCURVE",
"441.609 553 CURVE SMOOTH"
);
},
{
closed = 1;
nodes = (
"271.833 454 CURVE SMOOTH",
"271.833 466.186 OFFCURVE",
"272.838 477.513 OFFCURVE",
"274.728 488 CURVE SMOOTH",
"287.424 558.491 OFFCURVE",
"340.082 591 OFFCURVE",
"396.278 591 CURVE SMOOTH",
"452.984 591 OFFCURVE",
"512.587 553 OFFCURVE",
"512.587 474 CURVE SMOOTH",
"512.587 429.732 OFFCURVE",
"492.27 385.565 OFFCURVE",
"460.723 361 CURVE",
"434.723 382 LINE",
"461.723 402 OFFCURVE",
"479.111 437.959 OFFCURVE",
"479.111 474 CURVE SMOOTH",
"479.111 530.043 OFFCURVE",
"436.663 557 OFFCURVE",
"396.278 557 CURVE SMOOTH",
"347.916 557 OFFCURVE",
"305.834 524.746 OFFCURVE",
"305.834 454 CURVE SMOOTH",
"305.834 435 OFFCURVE",
"305.834 416 OFFCURVE",
"305.834 402 CURVE",
"288.834 369 LINE",
"279.117 397.663 OFFCURVE",
"271.833 421.384 OFFCURVE"
);
},
{
closed = 1;
nodes = (
"70 224.437 CURVE SMOOTH",
"70 107.242 OFFCURVE",
"156.024 30 OFFCURVE",
"288.834 30 CURVE SMOOTH",
"421.644 30 OFFCURVE",
"507.668 106.806 OFFCURVE",
"507.668 224 CURVE SMOOTH",
"507.668 299.407 OFFCURVE",
"469.191 365 OFFCURVE",
"385 365 CURVE SMOOTH",
"192.668 365 LINE SMOOTH",
"108.477 365 OFFCURVE",
"70 299.844 OFFCURVE"
);
},
{
closed = 1;
nodes = (
"33 224.437 CURVE SMOOTH",
"33 319.693 OFFCURVE",
"85.903 402 OFFCURVE",
"192.668 402 CURVE SMOOTH",
"385 402 LINE SMOOTH",
"491.765 402 OFFCURVE",
"544.668 319.257 OFFCURVE",
"544.668 224 CURVE SMOOTH",
"544.668 84.505 OFFCURVE",
"444.34 -7 OFFCURVE",
"288.834 -7 CURVE SMOOTH",
"133.328 -7 OFFCURVE",
"33 84.941 OFFCURVE"
);
},
{
closed = 1;
nodes = (
"65.08 474 CURVE SMOOTH",
"65.08 553 OFFCURVE",
"124.683 591 OFFCURVE",
"181.389 591 CURVE SMOOTH",
"237.585 591 OFFCURVE",
"290.247 558.491 OFFCURVE",
"302.94 488 CURVE SMOOTH",
"304.829 477.514 OFFCURVE",
"305.833 466.186 OFFCURVE",
"305.833 454 CURVE SMOOTH",
"305.833 421.384 OFFCURVE",
"298.549 397.663 OFFCURVE",
"288.833 369 CURVE",
"271.833 402 LINE",
"271.833 416 OFFCURVE",
"271.833 435 OFFCURVE",
"271.833 454 CURVE SMOOTH",
"271.833 524.746 OFFCURVE",
"229.751 557 OFFCURVE",
"181.389 557 CURVE SMOOTH",
"141.004 557 OFFCURVE",
"98.556 530.043 OFFCURVE",
"98.556 474 CURVE SMOOTH",
"98.556 437.959 OFFCURVE",
"115.944 402 OFFCURVE",
"142.944 382 CURVE",
"116.944 361 LINE",
"85.397 385.565 OFFCURVE",
"65.08 429.732 OFFCURVE"
);
}
);
width = 602;
}
);
unicode = 0DA2;
},
{
glyphname = sinJha;
lastChange = "2018-02-04 13:36:43 +0000";
layers = (
{
components = (
{
name = sinKa.half;
}
);
layerId = "6114C541-D024-4A3E-9713-6FAF49EAB318";
paths = (
{
closed = 1;
nodes = (
"691.924 0 OFFCURVE",
"731.336 31.603 OFFCURVE",
"747.481 79.03 CURVE",
"762.302 33.145 OFFCURVE",
"800.324 0 OFFCURVE",
"856.244 0 CURVE SMOOTH",
"1027 0 OFFCURVE",
"1028 181.996 OFFCURVE",
"1028 293 CURVE SMOOTH",
"1028 599.056 OFFCURVE",
"949 755 OFFCURVE",
"732 755 CURVE SMOOTH",
"645.279 755 OFFCURVE",
"553.134 707.868 OFFCURVE",
"517.149 613.029 CURVE",
"626.182 576.855 LINE",
"643.237 618.96 OFFCURVE",
"690.896 639.885 OFFCURVE",
"732 639.885 CURVE SMOOTH",
"870 639.885 OFFCURVE",
"913 522.797 OFFCURVE",
"913 293 CURVE SMOOTH",
"913 239.958 OFFCURVE",
"913 115 OFFCURVE",
"856.244 115 CURVE SMOOTH",
"813.254 115 OFFCURVE",
"797.786 176.75 OFFCURVE",
"797.786 249.5 CURVE",
"701.875 249.5 LINE",
"701.875 179.678 OFFCURVE",
"686.869 114.652 OFFCURVE",
"644.693 114.652 CURVE SMOOTH",
"611.756 114.652 OFFCURVE",
"601.603 175.234 OFFCURVE",
"601.603 229.771 CURVE SMOOTH",
"601.603 261.724 OFFCURVE",
"605.088 291.601 OFFCURVE",
"609.52 306 CURVE SMOOTH",
"618.952 336.647 OFFCURVE",
"638.993 356.607 OFFCURVE",
"665.776 356.607 CURVE SMOOTH",
"677.122 356.607 OFFCURVE",
"689.792 352.989 OFFCURVE",
"703.64 345 CURVE",
"741.505 445.258 LINE",
"713.131 465.063 OFFCURVE",
"684.1 472 OFFCURVE",
"656.333 472 CURVE SMOOTH",
"584.234 472 OFFCURVE",
"528.853 422.729 OFFCURVE",
"504.783 345 CURVE SMOOTH",
"496.916 319.595 OFFCURVE",
"490.655 277.471 OFFCURVE",
"490.655 231.204 CURVE SMOOTH",
"490.655 126.225 OFFCURVE",
"522.636 0 OFFCURVE",
"639.244 0 CURVE SMOOTH"
);
}
);
width = 1050;
},
{
components = (
{
name = sinKa.half;
}
);
layerId = "CC11FE7D-5FF0-4B40-9597-DFC61EB94F41";
paths = (
{
closed = 1;
nodes = (
"703.371 3.001 OFFCURVE",
"722.371 85.001 OFFCURVE",
"726.205 115.001 CURVE",
"730.039 85.001 OFFCURVE",
"749.039 3.001 OFFCURVE",
"844.205 3.001 CURVE SMOOTH",
"971.402 3.001 OFFCURVE",
"980.762 145.136 OFFCURVE",
"980.762 293.001 CURVE SMOOTH",
"980.762 601.956 OFFCURVE",
"894.205 749.001 OFFCURVE",
"716.205 749.001 CURVE SMOOTH",
"630.52 749.001 OFFCURVE",
"547.731 692.594 OFFCURVE",
"519.532 618.001 CURVE",
"553.532 605.001 LINE",
"576.856 665.928 OFFCURVE",
"645.333 712.001 OFFCURVE",
"716.205 712.001 CURVE SMOOTH",
"869.311 712.001 OFFCURVE",
"943.762 576.888 OFFCURVE",
"943.762 293.001 CURVE SMOOTH",
"943.762 164.001 OFFCURVE",
"936.938 40.001 OFFCURVE",
"844.205 40.001 CURVE SMOOTH",
"753.039 40.001 OFFCURVE",
"746.447 148.887 OFFCURVE",
"743.205 224.501 CURVE",
"709.205 224.501 LINE",
"705.963 148.887 OFFCURVE",
"699.371 40.001 OFFCURVE",
"608.205 40.001 CURVE SMOOTH",
"540.764 40.001 OFFCURVE",
"518.371 130.797 OFFCURVE",
"518.371 214.001 CURVE SMOOTH",
"518.371 258.254 OFFCURVE",
"527.1 298.564 OFFCURVE",
"541.714 331.001 CURVE SMOOTH",
"563.616 379.614 OFFCURVE",
"598.738 410.539 OFFCURVE",
"637.509 410.539 CURVE SMOOTH",
"651.106 410.539 OFFCURVE",
"664.301 407.104 OFFCURVE",
"678.509 400.001 CURVE",
"694.509 432.001 LINE",
"674.757 441.801 OFFCURVE",
"656.413 446.539 OFFCURVE",
"637.509 446.539 CURVE SMOOTH",
"587.191 446.539 OFFCURVE",
"539.599 409.949 OFFCURVE",
"510.479 350.001 CURVE SMOOTH",
"492.342 312.663 OFFCURVE",
"481.371 266.265 OFFCURVE",
"481.371 214.001 CURVE SMOOTH",
"481.371 115.607 OFFCURVE",
"510.21 3.001 OFFCURVE",
"608.205 3.001 CURVE SMOOTH"
);
}
);
width = 1013;
}
);
unicode = 0DA3;
},
{
glyphname = sinNya;
lastChange = "2018-02-04 13:36:43 +0000";
layers = (
{
layerId = "6114C541-D024-4A3E-9713-6FAF49EAB318";
paths = (
{
closed = 1;
nodes = (
"314.425 205 LINE",
"398.952 290.156 OFFCURVE",
"510.425 416 OFFCURVE",
"510.425 416 CURVE",
"550.954 459.631 OFFCURVE",
"597.74 473 OFFCURVE",
"641 473 CURVE SMOOTH",
"699.027 473 OFFCURVE",
"747.397 448 OFFCURVE",
"762 408 CURVE",
"845 442 LINE",
"799 547 OFFCURVE",
"729.411 585 OFFCURVE",
"641 585 CURVE SMOOTH",
"561.002 585 OFFCURVE",
"488.336 547.345 OFFCURVE",
"438.513 489 CURVE SMOOTH",
"219.053 232 LINE",
"223.053 126 LINE"
);
},
{
closed = 1;
nodes = (
"185 102 LINE",
"151.779 102 OFFCURVE",
"128 131.656 OFFCURVE",
"128 284 CURVE SMOOTH",
"128 425.659 OFFCURVE",
"158.987 480 OFFCURVE",
"193 480 CURVE SMOOTH",
"231.502 480 OFFCURVE",
"245.212 442.586 OFFCURVE",
"250 426 CURVE",
"304 487 LINE",
"295.521 527.58 OFFCURVE",
"257.691 584 OFFCURVE",
"188.372 584 CURVE SMOOTH",
"96.872 584 OFFCURVE",
"22 506.574 OFFCURVE",
"22 284 CURVE SMOOTH",
"22 46.276 OFFCURVE",
"90 0 OFFCURVE",
"185 0 CURVE"
);
},
{
closed = 1;
nodes = (
"397.438 0 OFFCURVE",
"424.388 31 OFFCURVE",
"433.425 52 CURVE",
"443.935 29 OFFCURVE",
"471.468 0 OFFCURVE",
"519.425 0 CURVE SMOOTH",
"616.468 0 OFFCURVE",
"656.513 111.981 OFFCURVE",
"656.513 210 CURVE SMOOTH",
"656.513 400 OFFCURVE",
"577.425 429.167 OFFCURVE",
"511.169 429.167 CURVE SMOOTH",
"449.294 429.167 OFFCURVE",
"412.054 415.504 OFFCURVE",
"376.425 358 CURVE",
"425.425 322 LINE",
"435.425 330.903 OFFCURVE",
"448.371 343 OFFCURVE",
"475.425 343 CURVE SMOOTH",
"514.425 343 OFFCURVE",
"549.513 307.753 OFFCURVE",
"549.513 210 CURVE SMOOTH",
"549.513 165.987 OFFCURVE",
"544.425 109 OFFCURVE",
"509.425 109 CURVE SMOOTH",
"490.425 109 OFFCURVE",
"477.797 122 OFFCURVE",
"477.797 160 CURVE SMOOTH",
"477.797 227 LINE",
"387.797 227 LINE",
"387.797 160 LINE SMOOTH",
"387.797 119 OFFCURVE",
"371.454 109 OFFCURVE",
"356.425 109 CURVE SMOOTH",
"332.301 109 OFFCURVE",
"330.425 138.592 OFFCURVE",
"330.425 156 CURVE",
"330.208 165 LINE SMOOTH",
"329.028 188.061 OFFCURVE",
"323.192 195.46 OFFCURVE",
"317.425 202.003 CURVE SMOOTH",
"313.965 206 LINE",
"237.425 192 LINE",
"223.053 126 LINE",
"226.966 127.574 OFFCURVE",
"230.47 128.335 OFFCURVE",
"233.587 128.335 CURVE SMOOTH",
"243.722 128.335 OFFCURVE",
"249.778 120.293 OFFCURVE",
"252.565 106 CURVE SMOOTH",
"253.823 99.551 OFFCURVE",
"254.414 91.83 OFFCURVE",
"254.414 83 CURVE SMOOTH",
"254.414 46 OFFCURVE",
"276.347 0 OFFCURVE",
"353.425 0 CURVE SMOOTH"
);
},
{
closed = 1;
nodes = (
"365.224 387.899 LINE",
"335.224 394.899 OFFCURVE",
"308 411.899 OFFCURVE",
"308 451.903 CURVE SMOOTH",
"308 475.013 OFFCURVE",
"321.591 496 OFFCURVE",
"349.425 496 CURVE SMOOTH",
"377.951 496 OFFCURVE",
"401.796 471.944 OFFCURVE",
"401.796 434.312 CURVE SMOOTH",
"401.796 375 LINE",
"499.425 428 LINE",
"499.425 537.336 OFFCURVE",
"428.03 594 OFFCURVE",
"351.04 594 CURVE SMOOTH",
"263.425 594 OFFCURVE",
"215.425 532.132 OFFCURVE",
"215.425 461.536 CURVE SMOOTH",
"215.425 391.899 OFFCURVE",
"260.224 344.899 OFFCURVE",
"305.513 327.899 CURVE"
);
},
{
closed = 1;
nodes = (
"1011.33 -202.407 OFFCURVE",
"1066.09 -175.431 OFFCURVE",
"1112 -106.563 CURVE",
"1035 -54.563 LINE",
"1012.51 -85.056 OFFCURVE",
"985.686 -97 OFFCURVE",
"961.055 -97 CURVE SMOOTH",
"928.672 -97 OFFCURVE",
"913.221 -70.996 OFFCURVE",
"913.221 -43.205 CURVE SMOOTH",
"913.221 -26.319 OFFCURVE",
"918.925 -8.773 OFFCURVE",
"930 4 CURVE",
"920 44.437 LINE",
"830 21.538 LINE",
"813.779 -4.275 OFFCURVE",
"806.334 -31.606 OFFCURVE",
"806.334 -57.971 CURVE SMOOTH",
"806.334 -134.229 OFFCURVE",
"868.628 -202.407 OFFCURVE",
"961.055 -202.407 CURVE SMOOTH"
);
},
{
closed = 1;
nodes = (
"961.454 0 OFFCURVE",
"1023.89 36.3 OFFCURVE",
"1064 93.042 CURVE",
"977.662 155.437 LINE",
"957.569 131.386 OFFCURVE",
"926.293 116 OFFCURVE",
"891 116 CURVE SMOOTH",
"832.782 116 OFFCURVE",
"786 160 OFFCURVE",
"786 217 CURVE SMOOTH",
"786 274 OFFCURVE",
"835 318 OFFCURVE",
"891 318 CURVE SMOOTH",
"1020 318 LINE",
"1032 357 OFFCURVE",
"1039 398.735 OFFCURVE",
"1039 430 CURVE SMOOTH",
"1039 539.336 OFFCURVE",
"967.605 596 OFFCURVE",
"890.615 596 CURVE SMOOTH",
"804.056 596 OFFCURVE",
"751.956 534.137 OFFCURVE",
"751.956 458.407 CURVE SMOOTH",
"751.956 430.604 OFFCURVE",
"759.69 404.207 OFFCURVE",
"779 379 CURVE",
"856.78 418 LINE",
"848.948 427.391 OFFCURVE",
"845.432 440.756 OFFCURVE",
"845.432 453.164 CURVE SMOOTH",
"845.432 477 OFFCURVE",
"861.26 498 OFFCURVE",
"890.615 498 CURVE SMOOTH",
"919.142 498 OFFCURVE",
"941.371 473.944 OFFCURVE",
"941.371 436.312 CURVE SMOOTH",
"941.371 430.648 OFFCURVE",
"940.868 424.679 OFFCURVE",
"939.807 418.437 CURVE",
"922 420 OFFCURVE",
"909.83 421.352 OFFCURVE",
"891 421.352 CURVE SMOOTH",
"770.68 421.352 OFFCURVE",
"674 330.947 OFFCURVE",
"674 217 CURVE SMOOTH",
"674 96.664 OFFCURVE",
"770.664 0 OFFCURVE",
"891 0 CURVE SMOOTH"
);
}
);
width = 1062;
},
{
layerId = "CC11FE7D-5FF0-4B40-9597-DFC61EB94F41";
paths = (
{
closed = 1;
nodes = (
"249 181 LINE",
"316 265 OFFCURVE",
"382 349 OFFCURVE",
"448.61 433 CURVE SMOOTH",
"493.61 490 OFFCURVE",
"546.366 535 OFFCURVE",
"610.61 535 CURVE SMOOTH",
"665.63 535 OFFCURVE",
"719.166 503 OFFCURVE",
"737.166 443 CURVE",
"769.166 449 LINE",
"749.859 527 OFFCURVE",
"679.059 572 OFFCURVE",
"610.61 572 CURVE SMOOTH",
"537.045 572 OFFCURVE",
"473.28 522.943 OFFCURVE",
"421.61 458 CURVE SMOOTH",
"203.61 184 LINE",
"228.61 155 LINE"
);
},
{
closed = 1;
nodes = (
"145.166 42.999 LINE",
"111.166 49.013 OFFCURVE",
"70.166 114.294 OFFCURVE",
"70.166 283.999 CURVE SMOOTH",
"70.166 447.085 OFFCURVE",
"101.199 541.999 OFFCURVE",
"150.166 541.999 CURVE SMOOTH",
"181.268 541.999 OFFCURVE",
"205.516 521.657 OFFCURVE",
"206.857 474 CURVE",
"240.333 474 LINE",
"240.333 533.999 OFFCURVE",
"211.172 578.999 OFFCURVE",
"150.166 578.999 CURVE SMOOTH",
"93.424 578.999 OFFCURVE",
"33.166 516.988 OFFCURVE",
"33.166 283.999 CURVE SMOOTH",
"33.166 88.239 OFFCURVE",
"83.847 14.377 OFFCURVE",
"145.166 5.999 CURVE"
);
},
{
closed = 1;
nodes = (
"389.754 3 OFFCURVE",
"412.609 48 OFFCURVE",
"412.609 79 CURVE",
"413.609 48 OFFCURVE",
"438.549 3 OFFCURVE",
"496.609 3 CURVE SMOOTH",
"600.107 3 OFFCURVE",
"612.652 123.089 OFFCURVE",
"612.652 196 CURVE SMOOTH",
"612.652 363.221 OFFCURVE",
"543.609 424.667 OFFCURVE",
"464.609 424.667 CURVE SMOOTH",
"427.609 424.667 OFFCURVE",
"398.609 402 OFFCURVE",
"375.609 382 CURVE",
"389.609 360 LINE",
"406.609 375 OFFCURVE",
"425.609 387.667 OFFCURVE",
"464.609 387.667 CURVE SMOOTH",
"523.842 387.667 OFFCURVE",
"575.609 336.163 OFFCURVE",
"575.609 196 CURVE SMOOTH",
"575.609 157.619 OFFCURVE",
"573.058 40 OFFCURVE",
"496.609 40 CURVE SMOOTH",
"444.852 40 OFFCURVE",
"431.379 100.28 OFFCURVE",
"430.73 159 CURVE SMOOTH",
"430.609 170 LINE",
"394.609 170 LINE",
"394.488 159 LINE SMOOTH",
"393.84 100.28 OFFCURVE",
"380.367 40 OFFCURVE",
"328.609 40 CURVE SMOOTH",
"288.614 40 OFFCURVE",
"278.609 68.7 OFFCURVE",
"278.609 105 CURVE SMOOTH",
"278.86 127.894 LINE SMOOTH",
"278.86 155.333 OFFCURVE",
"276.525 190.739 OFFCURVE",
"256.609 190.739 CURVE SMOOTH",
"252.609 190.739 LINE",
"235.609 184 LINE",
"228.609 155 LINE",
"231.468 156.9 OFFCURVE",
"233.855 157.747 OFFCURVE",
"235.847 157.747 CURVE SMOOTH",
"243.777 157.747 OFFCURVE",
"245.411 144.302 OFFCURVE",
"245.411 130.404 CURVE SMOOTH",
"245.411 120.669 OFFCURVE",
"244.609 110.711 OFFCURVE",
"244.609 105 CURVE SMOOTH",
"244.609 48.037 OFFCURVE",
"261.418 3 OFFCURVE",
"328.609 3 CURVE SMOOTH"
);
},
{
closed = 1;
nodes = (
"360.61 356 LINE",
"283.61 368 OFFCURVE",
"240.333 407.775 OFFCURVE",
"240.333 474 CURVE SMOOTH",
"240.333 530.043 OFFCURVE",
"282.78 557 OFFCURVE",
"323.166 557 CURVE SMOOTH",
"371.528 557 OFFCURVE",
"413.61 524.746 OFFCURVE",
"413.61 454 CURVE SMOOTH",
"413.61 402 LINE",
"447.61 454 LINE",
"447.61 548.099 OFFCURVE",
"387.723 591 OFFCURVE",
"323.166 591 CURVE SMOOTH",
"266.46 591 OFFCURVE",
"206.857 553 OFFCURVE",
"206.857 474 CURVE SMOOTH",
"206.857 390.378 OFFCURVE",
"265.61 338 OFFCURVE",
"352.61 325 CURVE"
);
},
{
closed = 1;
nodes = (
"982.353 -192.695 OFFCURVE",
"1024.95 -164.567 OFFCURVE",
"1060 -105.303 CURVE",
"1030.72 -82.999 LINE",
"1002.77 -132.976 OFFCURVE",
"968.791 -156.695 OFFCURVE",
"915.353 -156.695 CURVE SMOOTH",
"860.148 -156.695 OFFCURVE",
"819.682 -111.587 OFFCURVE",
"819.682 -56.999 CURVE SMOOTH",
"819.682 -30.465 OFFCURVE",
"824.204 -8.839 OFFCURVE",
"846.353 17.001 CURVE",
"844.353 36.001 LINE",
"815.353 34.001 LINE",
"790.426 1.597 OFFCURVE",
"782.682 -24.172 OFFCURVE",
"782.682 -56.999 CURVE SMOOTH",
"782.682 -129.528 OFFCURVE",
"835.938 -192.695 OFFCURVE",
"915.353 -192.695 CURVE SMOOTH"
);
},
{
closed = 1;
nodes = (
"905.245 2.999 OFFCURVE",
"968.411 31.547 OFFCURVE",
"1008.63 91.697 CURVE",
"979.353 114.001 LINE",
"946.414 65.074 OFFCURVE",
"894.681 41.843 OFFCURVE",
"843.4 41.843 CURVE SMOOTH",
"760.894 41.843 OFFCURVE",
"679.558 101.982 OFFCURVE",
"679.558 212.001 CURVE SMOOTH",
"679.558 295.037 OFFCURVE",
"739.701 374.001 OFFCURVE",
"839.503 374.001 CURVE SMOOTH",
"960.558 374.001 LINE",
"969.558 399.966 OFFCURVE",
"974.558 424.454 OFFCURVE",
"974.558 454.001 CURVE SMOOTH",
"974.558 548.1 OFFCURVE",
"914.67 591.001 OFFCURVE",
"850.113 591.001 CURVE SMOOTH",
"793.407 591.001 OFFCURVE",
"733.805 553.001 OFFCURVE",
"733.805 474.001 CURVE SMOOTH",
"733.805 419.001 OFFCURVE",
"762.28 387.001 OFFCURVE",
"774.28 376.001 CURVE",
"798.188 398.001 LINE",
"789.024 406.531 OFFCURVE",
"767.28 431.348 OFFCURVE",
"767.28 474.001 CURVE SMOOTH",
"767.28 530.044 OFFCURVE",
"809.729 557.001 OFFCURVE",
"850.113 557.001 CURVE SMOOTH",
"898.476 557.001 OFFCURVE",
"940.558 524.747 OFFCURVE",
"940.558 454.001 CURVE SMOOTH",
"940.558 438.289 OFFCURVE",
"937.359 422.001 OFFCURVE",
"935.359 411.001 CURVE",
"903 411 OFFCURVE",
"871 411 OFFCURVE",
"839.503 411.001 CURVE SMOOTH",
"715.558 411.001 OFFCURVE",
"642.558 312.683 OFFCURVE",
"642.558 212.001 CURVE SMOOTH",
"642.558 76.909 OFFCURVE",
"741.88 2.999 OFFCURVE",
"842.63 2.999 CURVE SMOOTH"
);
}
);
width = 1030;
}
);
unicode = 0DA4;
},
{
glyphname = sinJnya;
lastChange = "2018-02-04 13:36:43 +0000";
layers = (
{
layerId = "6114C541-D024-4A3E-9713-6FAF49EAB318";
paths = (
{
closed = 1;
nodes = (
"742.334 -57.971 CURVE SMOOTH",
"742.334 -31.606 OFFCURVE",
"749.78 -4.275 OFFCURVE",
"766 21.538 CURVE",
"856 44.437 LINE",
"866 4 LINE",
"854.925 -8.774 OFFCURVE",
"849.221 -26.319 OFFCURVE",
"849.221 -43.205 CURVE SMOOTH",
"849.221 -70.996 OFFCURVE",
"864.672 -97 OFFCURVE",
"897.055 -97 CURVE SMOOTH",
"921.686 -97 OFFCURVE",
"948.509 -85.056 OFFCURVE",
"971 -54.563 CURVE",
"1048 -106.563 LINE",
"1002.09 -175.431 OFFCURVE",
"947.333 -202.407 OFFCURVE",
"897.055 -202.407 CURVE SMOOTH",
"804.628 -202.407 OFFCURVE",
"742.334 -134.23 OFFCURVE"
);
},
{
closed = 1;
nodes = (
"610 217 CURVE SMOOTH",
"610 330.947 OFFCURVE",
"706.68 421.352 OFFCURVE",
"827 421.352 CURVE SMOOTH",
"845.83 421.352 OFFCURVE",
"858 420 OFFCURVE",
"875.807 418.437 CURVE",
"876.868 424.679 OFFCURVE",
"877.371 430.648 OFFCURVE",
"877.371 436.312 CURVE SMOOTH",
"877.371 473.944 OFFCURVE",
"855.142 498 OFFCURVE",
"826.615 498 CURVE SMOOTH",
"797.26 498 OFFCURVE",
"781.432 477 OFFCURVE",
"781.432 453.164 CURVE SMOOTH",
"781.432 440.756 OFFCURVE",
"784.948 427.391 OFFCURVE",
"792.78 418 CURVE",
"715 379 LINE",
"695.69 404.207 OFFCURVE",
"687.956 430.604 OFFCURVE",
"687.956 458.407 CURVE SMOOTH",
"687.956 534.137 OFFCURVE",
"740.056 596 OFFCURVE",
"826.615 596 CURVE SMOOTH",
"903.605 596 OFFCURVE",
"975 539.336 OFFCURVE",
"975 430 CURVE SMOOTH",
"975 398.735 OFFCURVE",
"968 357 OFFCURVE",
"956 318 CURVE",
"956 318 OFFCURVE",
"875.531 318 OFFCURVE",
"827 318 CURVE SMOOTH",
"771 318 OFFCURVE",
"722 274 OFFCURVE",
"722 217 CURVE SMOOTH",
"722 160 OFFCURVE",
"768.782 116 OFFCURVE",
"827 116 CURVE SMOOTH",
"862.293 116 OFFCURVE",
"893.569 131.386 OFFCURVE",
"913.662 155.437 CURVE",
"1000 93.042 LINE",
"959.89 36.3 OFFCURVE",
"897.454 0 OFFCURVE",
"827 0 CURVE SMOOTH",
"706.664 0 OFFCURVE",
"610 96.664 OFFCURVE"
);
},
{
closed = 1;
nodes = (
"389.628 300.156 LINE",
"436.854 330.127 OFFCURVE",
"439.022 362.443 OFFCURVE",
"439.022 392.096 CURVE SMOOTH",
"439.022 398.567 OFFCURVE",
"439.191 404.871 OFFCURVE",
"439.596 411 CURVE SMOOTH",
"447.395 529.113 OFFCURVE",
"528.555 584.156 OFFCURVE",
"615 584.156 CURVE SMOOTH",
"702.165 584.156 OFFCURVE",
"763.236 533.447 OFFCURVE",
"782 444 CURVE SMOOTH",
"694 419 LINE SMOOTH",
"686.978 450 OFFCURVE",
"655.804 477.156 OFFCURVE",
"615 477.156 CURVE SMOOTH",
"561.745 477.156 OFFCURVE",
"544.477 447.28 OFFCURVE",
"541.594 389 CURVE SMOOTH",
"541.178 380.59 OFFCURVE",
"541 371.588 OFFCURVE",
"541 362 CURVE SMOOTH",
"541 286.156 OFFCURVE",
"496 254 OFFCURVE",
"436 220 CURVE"
);
},
{
closed = 1;
nodes = (
"195 292 CURVE SMOOTH",
"195 514.574 OFFCURVE",
"279.772 584 OFFCURVE",
"383.372 584 CURVE SMOOTH",
"459.286 584 OFFCURVE",
"500.715 533.979 OFFCURVE",
"510 498 CURVE",
"445 426 LINE",
"439.823 442.586 OFFCURVE",
"425 478 OFFCURVE",
"383.372 478 CURVE SMOOTH",
"340.27 478 OFFCURVE",
"304 433.659 OFFCURVE",
"304 292 CURVE SMOOTH",
"304 144.453 OFFCURVE",
"350.415 107 OFFCURVE",
"400 107 CURVE SMOOTH",
"461 107 OFFCURVE",
"479.628 146.156 OFFCURVE",
"479.628 184.156 CURVE SMOOTH",
"479.628 219.156 OFFCURVE",
"463.891 231.251 OFFCURVE",
"451.628 236.156 CURVE",
"514.628 306.156 LINE",
"550.628 294.449 OFFCURVE",
"581.628 243.156 OFFCURVE",
"581.628 189.156 CURVE SMOOTH",
"581.628 94.73 OFFCURVE",
"530.561 0 OFFCURVE",
"400 0 CURVE SMOOTH",
"293.001 0 OFFCURVE",
"195 57.625 OFFCURVE"
);
},
{
closed = 1;
nodes = (
"22 284 CURVE SMOOTH",
"22 506.574 OFFCURVE",
"96.872 584 OFFCURVE",
"188.372 584 CURVE SMOOTH",
"257.691 584 OFFCURVE",
"295.521 527.58 OFFCURVE",
"304 487 CURVE",
"250 426 LINE",
"245.212 442.586 OFFCURVE",
"231.502 480 OFFCURVE",
"193 480 CURVE SMOOTH",
"158.988 480 OFFCURVE",
"128 425.659 OFFCURVE",
"128 284 CURVE SMOOTH",
"128 131.656 OFFCURVE",
"151.779 102 OFFCURVE",
"185 102 CURVE SMOOTH",
"185 0 LINE SMOOTH",
"90 0 OFFCURVE",
"22 46.276 OFFCURVE"
);
}
);
width = 998;
},
{
layerId = "CC11FE7D-5FF0-4B40-9597-DFC61EB94F41";
paths = (
{
closed = 1;
nodes = (
"701.682 -56.999 CURVE SMOOTH",
"701.682 -24.172 OFFCURVE",
"709.426 1.597 OFFCURVE",
"734.353 34.001 CURVE",
"763.353 36.001 LINE",
"765.353 17.001 LINE",
"743.204 -8.839 OFFCURVE",
"738.682 -30.465 OFFCURVE",
"738.682 -56.999 CURVE SMOOTH",
"738.682 -111.587 OFFCURVE",
"779.148 -156.695 OFFCURVE",
"834.353 -156.695 CURVE SMOOTH",
"887.791 -156.695 OFFCURVE",
"921.771 -132.976 OFFCURVE",
"949.723 -82.999 CURVE",
"979 -105.303 LINE",
"943.954 -164.567 OFFCURVE",
"901.353 -192.695 OFFCURVE",
"834.353 -192.695 CURVE SMOOTH",
"754.938 -192.695 OFFCURVE",
"701.682 -129.528 OFFCURVE"
);
},
{
closed = 1;
nodes = (
"561.558 212.001 CURVE SMOOTH",
"561.558 312.683 OFFCURVE",
"634.558 411.001 OFFCURVE",
"758.503 411.001 CURVE SMOOTH",
"782.783 411.001 OFFCURVE",
"830.558 411.001 OFFCURVE",
"854.359 411.001 CURVE",
"856.359 422.001 OFFCURVE",
"859.558 438.289 OFFCURVE",
"859.558 454.001 CURVE SMOOTH",
"859.558 524.747 OFFCURVE",
"817.476 557.001 OFFCURVE",
"769.113 557.001 CURVE SMOOTH",
"728.729 557.001 OFFCURVE",
"686.28 530.044 OFFCURVE",
"686.28 474.001 CURVE SMOOTH",
"686.28 431.348 OFFCURVE",
"708.024 406.531 OFFCURVE",
"717.188 398.001 CURVE",
"693.28 376.001 LINE",
"681.28 387.001 OFFCURVE",
"652.805 419.001 OFFCURVE",
"652.805 474.001 CURVE SMOOTH",
"652.805 553.001 OFFCURVE",
"712.407 591.001 OFFCURVE",
"769.113 591.001 CURVE SMOOTH",
"833.67 591.001 OFFCURVE",
"893.558 548.1 OFFCURVE",
"893.558 454.001 CURVE SMOOTH",
"893.558 424.454 OFFCURVE",
"888.558 399.966 OFFCURVE",
"879.558 374.001 CURVE",
"879.558 374.001 OFFCURVE",
"801.558 374.001 OFFCURVE",
"758.503 374.001 CURVE SMOOTH",
"658.701 374.001 OFFCURVE",
"598.558 295.037 OFFCURVE",
"598.558 212.001 CURVE SMOOTH",
"598.558 101.982 OFFCURVE",
"679.894 41.843 OFFCURVE",
"762.4 41.843 CURVE SMOOTH",
"813.681 41.843 OFFCURVE",
"865.414 65.074 OFFCURVE",
"898.353 114.001 CURVE",
"927.63 91.697 LINE",
"887.411 31.547 OFFCURVE",
"824.245 2.999 OFFCURVE",
"761.63 2.999 CURVE SMOOTH",
"660.88 2.999 OFFCURVE",
"561.558 76.909 OFFCURVE"
);
},
{
closed = 1;
nodes = (
"373.558 276 LINE",
"418.123 295.978 OFFCURVE",
"424.389 338.024 OFFCURVE",
"424.389 369.95 CURVE SMOOTH",
"424.389 382.439 OFFCURVE",
"423.43 393.38 OFFCURVE",
"423.43 400.844 CURVE SMOOTH",
"423.43 512.851 OFFCURVE",
"488.85 581 OFFCURVE",
"564.558 581 CURVE SMOOTH",
"628.718 581 OFFCURVE",
"686.28 544 OFFCURVE",
"686.28 474.001 CURVE SMOOTH",
"652.805 474.001 LINE SMOOTH",
"652.805 515 OFFCURVE",
"611.731 544 OFFCURVE",
"564.558 544 CURVE SMOOTH",
"494.399 544 OFFCURVE",
"460.43 474.387 OFFCURVE",
"460.43 400.844 CURVE SMOOTH",
"460.43 392.56 OFFCURVE",
"461.015 382.064 OFFCURVE",
"461.015 370.388 CURVE SMOOTH",
"461.015 328.728 OFFCURVE",
"453.57 272.025 OFFCURVE",
"385.558 247 CURVE"
);
},
{
closed = 1;
nodes = (
"177.558 276 CURVE SMOOTH",
"177.558 524.011 OFFCURVE",
"259.889 581 OFFCURVE",
"345.93 581 CURVE SMOOTH",
"419.558 581 OFFCURVE",
"459.558 531 OFFCURVE",
"469.558 473 CURVE",
"433.558 461 LINE",
"430.558 501 OFFCURVE",
"398.558 544 OFFCURVE",
"345.93 544 CURVE SMOOTH",
"279.052 544 OFFCURVE",
"215.058 493.924 OFFCURVE",
"215.058 276 CURVE SMOOTH",
"215.058 83.28 OFFCURVE",
"288.856 40 OFFCURVE",
"362.558 40 CURVE SMOOTH",
"449.327 40 OFFCURVE",
"481.686 111.732 OFFCURVE",
"481.686 174 CURVE SMOOTH",
"481.686 224.729 OFFCURVE",
"457.733 268.541 OFFCURVE",
"420.558 272 CURVE",
"437.558 301 LINE",
"473.558 298.771 OFFCURVE",
"518.686 249.754 OFFCURVE",
"518.686 174 CURVE SMOOTH",
"518.686 94.539 OFFCURVE",
"476.277 3 OFFCURVE",
"362.558 3 CURVE SMOOTH",
"270.119 3 OFFCURVE",
"177.558 53.065 OFFCURVE"
);
},
{
closed = 1;
nodes = (
"32.866 283.999 CURVE SMOOTH",
"32.866 516.988 OFFCURVE",
"93.124 578.999 OFFCURVE",
"149.866 578.999 CURVE SMOOTH",
"210.872 578.999 OFFCURVE",
"240.033 533.999 OFFCURVE",
"240.033 474 CURVE",
"206.558 474 LINE",
"205.216 521.657 OFFCURVE",
"180.968 541.999 OFFCURVE",
"149.866 541.999 CURVE SMOOTH",
"100.899 541.999 OFFCURVE",
"69.866 447.085 OFFCURVE",
"69.866 283.999 CURVE SMOOTH",
"69.866 114.294 OFFCURVE",
"110.866 49.013 OFFCURVE",
"144.866 42.999 CURVE",
"144.866 5.999 LINE",
"83.547 14.377 OFFCURVE",
"32.866 88.239 OFFCURVE"
);
}
);
width = 949;
}
);
unicode = 0DA5;
},
{
glyphname = sinNyja;
lastChange = "2021-05-27 12:03:50 +0000";
layers = (
{
layerId = "6114C541-D024-4A3E-9713-6FAF49EAB318";
paths = (
{
closed = 1;
nodes = (
"538.989 576 LINE SMOOTH",
"648.698 688.385 OFFCURVE",
"655.126 723.753 OFFCURVE",
"655.126 779 CURVE",
"765.126 779 LINE",
"765.126 681.148 OFFCURVE",
"714.849 617 OFFCURVE",
"637.126 537 CURVE SMOOTH"
);
},
{
closed = 1;
nodes = (
"419.991 467.354 CURVE SMOOTH",
"419.991 473.071 OFFCURVE",
"420.556 478.329 OFFCURVE",
"421.807 483 CURVE SMOOTH",
"441.433 556.277 OFFCURVE",
"500.525 594 OFFCURVE",
"563.344 594 CURVE SMOOTH",
"649.903 594 OFFCURVE",
"702.003 532.137 OFFCURVE",
"702.003 456.407 CURVE SMOOTH",
"702.003 428.149 OFFCURVE",
"690.755 394.649 OFFCURVE",
"670.617 369.03 CURVE",
"593.908 410.437 LINE",
"601.892 419.561 OFFCURVE",
"608.527 439.108 OFFCURVE",
"608.527 451.164 CURVE SMOOTH",
"608.527 475 OFFCURVE",
"594.314 496 OFFCURVE",
"559.171 496 CURVE SMOOTH",
"536.433 496 OFFCURVE",
"507.606 481.03 OFFCURVE",
"507.606 434.342 CURVE SMOOTH",
"507.606 428.679 OFFCURVE",
"508.109 422.242 OFFCURVE",
"509.171 416 CURVE SMOOTH",
"462.671 318.437 LINE",
"450.06 359.423 OFFCURVE",
"419.991 425.625 OFFCURVE"
);
},
{
closed = 1;
nodes = (
"304.95 224 CURVE SMOOTH",
"304.95 144.037 OFFCURVE",
"383.662 104.167 OFFCURVE",
"462.447 104.167 CURVE SMOOTH",
"541.381 104.167 OFFCURVE",
"620.39 144.187 OFFCURVE",
"620.39 224 CURVE SMOOTH",
"620.39 275.726 OFFCURVE",
"592.95 318 OFFCURVE",
"537.95 318 CURVE SMOOTH",
"387.39 318 LINE SMOOTH",
"332.39 318 OFFCURVE",
"304.95 275.726 OFFCURVE"
);
},
{
closed = 1;
nodes = (
"197.95 224 CURVE SMOOTH",
"197.95 329.377 OFFCURVE",
"259.007 416 OFFCURVE",
"381.39 416 CURVE SMOOTH",
"543.95 416 LINE SMOOTH",
"666.333 416 OFFCURVE",
"727.39 329.652 OFFCURVE",
"727.39 224 CURVE SMOOTH",
"727.39 66.501 OFFCURVE",
"595.03 -12.249 OFFCURVE",
"462.671 -12.249 CURVE SMOOTH",
"330.311 -12.249 OFFCURVE",
"197.95 66.502 OFFCURVE"
);
},
{
closed = 1;
nodes = (
"223.339 456.407 CURVE SMOOTH",
"223.339 532.137 OFFCURVE",
"275.438 594 OFFCURVE",
"361.998 594 CURVE SMOOTH",
"424.816 594 OFFCURVE",
"483.909 556.277 OFFCURVE",
"503.535 483 CURVE SMOOTH",
"504.786 478.329 OFFCURVE",
"505.351 473.071 OFFCURVE",
"505.351 467.354 CURVE SMOOTH",
"505.351 425.625 OFFCURVE",
"475.282 359.423 OFFCURVE",
"462.671 318.437 CURVE",
"416.171 416 LINE SMOOTH",
"417.232 422.242 OFFCURVE",
"417.735 428.679 OFFCURVE",
"417.735 434.342 CURVE SMOOTH",
"417.735 481.03 OFFCURVE",
"388.909 496 OFFCURVE",
"366.171 496 CURVE SMOOTH",
"331.027 496 OFFCURVE",
"316.814 475 OFFCURVE",
"316.814 451.164 CURVE SMOOTH",
"316.814 439.108 OFFCURVE",
"323.45 419.561 OFFCURVE",
"331.434 410.437 CURVE",
"254.725 369.03 LINE",
"234.587 394.649 OFFCURVE",
"223.339 428.149 OFFCURVE"
);
},
{
closed = 1;
nodes = (
"22 284 CURVE SMOOTH",
"22 506.574 OFFCURVE",
"96.872 584 OFFCURVE",
"188.372 584 CURVE SMOOTH",
"257.691 584 OFFCURVE",
"295.521 527.58 OFFCURVE",
"304 487 CURVE",
"250 426 LINE",
"245.212 442.586 OFFCURVE",
"231.502 480 OFFCURVE",
"193 480 CURVE SMOOTH",
"158.987 480 OFFCURVE",
"128 425.659 OFFCURVE",
"128 284 CURVE SMOOTH",
"128 131.656 OFFCURVE",
"151.779 102 OFFCURVE",
"185 102 CURVE SMOOTH",
"185 0 LINE SMOOTH",
"90 0 OFFCURVE",
"22 46.276 OFFCURVE"
);
}
);
width = 741;
},
{
layerId = "CC11FE7D-5FF0-4B40-9597-DFC61EB94F41";
paths = (
{
closed = 1;
nodes = (
"554.476 575 LINE SMOOTH",
"626.108 647.766 OFFCURVE",
"674.611 705.781 OFFCURVE",
"674.611 776 CURVE",
"710.611 776 LINE",
"710.611 698.187 OFFCURVE",
"660.328 632.518 OFFCURVE",
"583.221 553 CURVE SMOOTH"
);
},
{
closed = 1;
nodes = (
"413.444 454 CURVE SMOOTH",
"413.444 466.186 OFFCURVE",
"414.45 477.513 OFFCURVE",
"416.339 488 CURVE SMOOTH",
"429.035 558.491 OFFCURVE",
"481.693 591 OFFCURVE",
"537.89 591 CURVE SMOOTH",
"594.596 591 OFFCURVE",
"654.198 553 OFFCURVE",
"654.198 474 CURVE SMOOTH",
"654.198 429.732 OFFCURVE",
"633.881 385.565 OFFCURVE",
"602.334 361 CURVE",
"576.334 382 LINE",
"603.334 402 OFFCURVE",
"620.723 437.959 OFFCURVE",
"620.723 474 CURVE SMOOTH",
"620.723 530.043 OFFCURVE",
"578.274 557 OFFCURVE",
"537.89 557 CURVE SMOOTH",
"489.527 557 OFFCURVE",
"447.445 524.746 OFFCURVE",
"447.445 454 CURVE SMOOTH",
"447.445 435 OFFCURVE",
"447.445 416 OFFCURVE",
"447.445 402 CURVE",
"430.445 369 LINE",
"420.729 397.663 OFFCURVE",
"413.444 421.384 OFFCURVE"
);
},
{
closed = 1;
nodes = (
"210.685 224.437 CURVE SMOOTH",
"210.685 107.242 OFFCURVE",
"296.709 30 OFFCURVE",
"429.519 30 CURVE SMOOTH",
"562.328 30 OFFCURVE",
"648.353 106.806 OFFCURVE",
"648.353 224 CURVE SMOOTH",
"648.353 299.407 OFFCURVE",
"609.876 365 OFFCURVE",
"525.685 365 CURVE SMOOTH",
"333.353 365 LINE SMOOTH",
"249.161 365 OFFCURVE",
"210.685 299.844 OFFCURVE"
);
},
{
closed = 1;
nodes = (
"174.611 224.437 CURVE SMOOTH",
"174.611 319.693 OFFCURVE",
"227.515 402 OFFCURVE",
"334.279 402 CURVE SMOOTH",
"526.611 402 LINE SMOOTH",
"633.376 402 OFFCURVE",
"686.279 319.257 OFFCURVE",
"686.279 224 CURVE SMOOTH",
"686.279 84.505 OFFCURVE",
"585.951 -7 OFFCURVE",
"430.445 -7 CURVE SMOOTH",
"274.939 -7 OFFCURVE",
"174.611 84.941 OFFCURVE"
);
},
{
closed = 1;
nodes = (
"206.691 474 CURVE SMOOTH",
"206.691 553 OFFCURVE",
"266.294 591 OFFCURVE",
"323 591 CURVE SMOOTH",
"379.196 591 OFFCURVE",
"431.855 558.491 OFFCURVE",
"444.552 488 CURVE SMOOTH",
"446.44 477.514 OFFCURVE",
"447.444 466.186 OFFCURVE",
"447.444 454 CURVE SMOOTH",
"447.444 421.384 OFFCURVE",
"440.16 397.663 OFFCURVE",
"430.444 369 CURVE",
"413.444 402 LINE",
"413.444 416 OFFCURVE",
"413.444 435 OFFCURVE",
"413.444 454 CURVE SMOOTH",
"413.444 524.746 OFFCURVE",
"371.362 557 OFFCURVE",
"323 557 CURVE SMOOTH",
"282.615 557 OFFCURVE",
"240.167 530.043 OFFCURVE",
"240.167 474 CURVE SMOOTH",
"240.167 437.959 OFFCURVE",
"257.556 402 OFFCURVE",
"284.556 382 CURVE",
"258.556 361 LINE",
"227.009 385.565 OFFCURVE",
"206.691 429.732 OFFCURVE"
);
},
{
closed = 1;
nodes = (
"33 283.999 CURVE SMOOTH",
"33 516.988 OFFCURVE",
"93.258 578.999 OFFCURVE",
"150 579 CURVE SMOOTH",
"211.006 578.999 OFFCURVE",
"240.167 533.999 OFFCURVE",
"240.167 474 CURVE",
"206.691 474 LINE",
"205.35 521.657 OFFCURVE",
"181.102 541.999 OFFCURVE",
"150 542 CURVE SMOOTH",
"101.033 541.999 OFFCURVE",
"70 447.085 OFFCURVE",
"70 283.999 CURVE SMOOTH",
"70 114.294 OFFCURVE",
"111 49.013 OFFCURVE",
"145 43 CURVE",
"145 6 LINE",
"83.681 14.377 OFFCURVE",
"33 88.239 OFFCURVE"
);
}
);
width = 743;
}
);
unicode = 0DA6;
},
{
glyphname = sinTta;
lastChange = "2018-02-04 13:36:43 +0000";
layers = (
{
layerId = "6114C541-D024-4A3E-9713-6FAF49EAB318";
paths = (
{
closed = 1;
nodes = (
"21.854 252.396 CURVE SMOOTH",
"21.854 381.537 OFFCURVE",
"88.854 472 OFFCURVE",
"186.548 472 CURVE SMOOTH",
"214.314 472 OFFCURVE",
"243.346 465.063 OFFCURVE",
"271.72 445.258 CURVE",
"233.854 345 LINE",
"220.007 352.989 OFFCURVE",
"207.337 356.607 OFFCURVE",
"195.991 356.607 CURVE SMOOTH",
"155.475 356.607 OFFCURVE",
"131.854 310.459 OFFCURVE",
"131.854 252.396 CURVE SMOOTH",
"131.854 189.243 OFFCURVE",
"159.08 115 OFFCURVE",
"252 115 CURVE SMOOTH",
"356.452 115 OFFCURVE",
"397 195.018 OFFCURVE",
"397 354 CURVE SMOOTH",
"397 583 OFFCURVE",
"325.68 640 OFFCURVE",
"242.854 640 CURVE SMOOTH",
"201.751 640 OFFCURVE",
"161.666 618.96 OFFCURVE",
"144.61 576.855 CURVE",
"35.578 613.029 LINE",
"71.562 707.868 OFFCURVE",
"156.134 755 OFFCURVE",
"242.854 755 CURVE SMOOTH",
"382.326 755 OFFCURVE",
"513 675.859 OFFCURVE",
"513 354 CURVE SMOOTH",
"513 118 OFFCURVE",
"432 0 OFFCURVE",
"252 0 CURVE SMOOTH",
"74 0 OFFCURVE",
"21.854 136.287 OFFCURVE"
);
}
);
width = 535;
},
{
layerId = "CC11FE7D-5FF0-4B40-9597-DFC61EB94F41";
paths = (
{
closed = 1;
nodes = (
"33 235 CURVE SMOOTH",
"33 371.177 OFFCURVE",
"102.646 446.538 OFFCURVE",
"179 446.538 CURVE SMOOTH",
"197.904 446.538 OFFCURVE",
"216.248 441.8 OFFCURVE",
"236 432 CURVE",
"220 400 LINE",
"205.792 407.104 OFFCURVE",
"192.598 410.538 OFFCURVE",
"179 410.538 CURVE SMOOTH",
"119.861 410.538 OFFCURVE",
"70 345.575 OFFCURVE",
"70 235 CURVE SMOOTH",
"70 145.521 OFFCURVE",
"119.592 40 OFFCURVE",
"242 40 CURVE SMOOTH",
"369.865 40 OFFCURVE",
"443 150.519 OFFCURVE",
"443 354 CURVE SMOOTH",
"443 634.015 OFFCURVE",
"352.223 712 OFFCURVE",
"241 712 CURVE SMOOTH",
"170.128 712 OFFCURVE",
"112.324 665.927 OFFCURVE",
"89 605 CURVE",
"55 618 LINE",
"93 716 OFFCURVE",
"180.968 749 OFFCURVE",
"241 749 CURVE SMOOTH",
"373.146 749 OFFCURVE",
"481 662.955 OFFCURVE",
"481 354 CURVE SMOOTH",
"481 126.541 OFFCURVE",
"394.039 3 OFFCURVE",
"242 3 CURVE SMOOTH",
"93.26 3 OFFCURVE",
"33 128.544 OFFCURVE"
);
}
);
width = 514;
}
);
unicode = 0DA7;
},
{
glyphname = sinTtha;
lastChange = "2018-02-04 13:36:43 +0000";
layers = (
{
layerId = "6114C541-D024-4A3E-9713-6FAF49EAB318";
paths = (
{
closed = 1;
nodes = (
"223.268 0 OFFCURVE",
"262.68 31.603 OFFCURVE",
"278.825 79.031 CURVE",
"293.646 33.145 OFFCURVE",
"331.668 0 OFFCURVE",
"387.588 0 CURVE SMOOTH",
"558.344 0 OFFCURVE",
"565.999 181.996 OFFCURVE",
"566 293 CURVE SMOOTH",
"566 527 OFFCURVE",
"473.486 745.25 OFFCURVE",
"346.383 811 CURVE",
"291.443 745.177 LINE",
"321.059 721.157 OFFCURVE",
"346.904 687.156 OFFCURVE",
"365.383 647 CURVE",
"388.259 626.982 OFFCURVE",
"406.003 585.038 OFFCURVE",
"410.842 545 CURVE",
"429.482 481.404 OFFCURVE",
"451 384.548 OFFCURVE",
"451 293 CURVE SMOOTH",
"451 239.958 OFFCURVE",
"444.344 115.001 OFFCURVE",
"387.588 115.001 CURVE SMOOTH",
"344.598 115.001 OFFCURVE",
"329.13 176.75 OFFCURVE",
"329.13 249.5 CURVE",
"233.219 249.5 LINE",
"233.219 179.678 OFFCURVE",
"218.214 114.653 OFFCURVE",
"176.038 114.653 CURVE SMOOTH",
"143.1 114.653 OFFCURVE",
"132.947 175.234 OFFCURVE",
"132.947 229.77 CURVE SMOOTH",
"133 292 OFFCURVE",
"144 357 OFFCURVE",
"197.121 356.607 CURVE SMOOTH",
"208.466 356.607 OFFCURVE",
"221.136 352.989 OFFCURVE",
"234.984 345 CURVE",
"272.849 445.258 LINE",
"244.475 465.064 OFFCURVE",
"215.444 472 OFFCURVE",
"187.677 472 CURVE SMOOTH",
"75 472 OFFCURVE",
"22 367 OFFCURVE",
"21.999 231.204 CURVE SMOOTH",
"21.999 126.225 OFFCURVE",
"53.98 0 OFFCURVE",
"170.588 0 CURVE SMOOTH"
);
},
{
closed = 1;
nodes = (
"452 547 LINE",
"442 550 OFFCURVE",
"433 544 OFFCURVE",
"423.384 547 CURVE",
"370.938 549.949 OFFCURVE",
"346.384 582.493 OFFCURVE",
"346.384 605 CURVE SMOOTH",
"346.384 621.142 OFFCURVE",
"353.681 639.981 OFFCURVE",
"366.104 647 CURVE",
"385.326 755 LINE",
"291.443 745.177 LINE",
"302.3 735.272 OFFCURVE",
"306.384 727.053 OFFCURVE",
"306.384 719 CURVE SMOOTH",
"306.384 695.32 OFFCURVE",
"254.116 673.122 OFFCURVE",
"254.116 611.134 CURVE SMOOTH",
"254.116 540.309 OFFCURVE",
"320.555 485.97 OFFCURVE",
"387.326 467.641 CURVE SMOOTH",
"405.185 462.738 OFFCURVE",
"423.232 460.461 OFFCURVE",
"440.384 460 CURVE",
"497.326 524 LINE"
);
}
);
width = 581;
},
{
layerId = "CC11FE7D-5FF0-4B40-9597-DFC61EB94F41";
paths = (
{
closed = 1;
nodes = (
"254.999 3 OFFCURVE",
"273.999 85 OFFCURVE",
"277.833 115 CURVE",
"281.667 85 OFFCURVE",
"300.667 3 OFFCURVE",
"395.833 3 CURVE SMOOTH",
"528.255 3 OFFCURVE",
"537.999 125.53 OFFCURVE",
"538 253 CURVE",
"537.999 504.3 OFFCURVE",
"472.945 706.644 OFFCURVE",
"342.39 807 CURVE",
"319.39 780 LINE",
"339.239 764.394 OFFCURVE",
"358.195 745.808 OFFCURVE",
"375.82 724 CURVE SMOOTH",
"415.649 674.718 OFFCURVE",
"448.681 608.981 OFFCURVE",
"469.859 524 CURVE SMOOTH",
"489.69 447.466 OFFCURVE",
"501 357.627 OFFCURVE",
"501 253 CURVE SMOOTH",
"501 144.395 OFFCURVE",
"493.792 40 OFFCURVE",
"395.834 40 CURVE SMOOTH",
"304.668 40 OFFCURVE",
"298.076 148.886 OFFCURVE",
"294.834 224.5 CURVE",
"260.834 224.5 LINE",
"257.591 148.886 OFFCURVE",
"251 40 OFFCURVE",
"159.834 40 CURVE SMOOTH",
"92.392 40 OFFCURVE",
"70 130.796 OFFCURVE",
"70 214 CURVE SMOOTH",
"70 306 OFFCURVE",
"114 411 OFFCURVE",
"189.137 410.538 CURVE SMOOTH",
"202.735 410.538 OFFCURVE",
"215.929 407.104 OFFCURVE",
"230.137 400 CURVE",
"246.137 432 LINE",
"226.385 441.8 OFFCURVE",
"208.042 446.538 OFFCURVE",
"189.137 446.538 CURVE SMOOTH",
"95 447 OFFCURVE",
"33 330 OFFCURVE",
"33 214 CURVE SMOOTH",
"32.999 115.606 OFFCURVE",
"61.838 3 OFFCURVE",
"159.833 3 CURVE SMOOTH"
);
},
{
closed = 1;
nodes = (
"475.576 528 LINE",
"464.409 525.936 OFFCURVE",
"453.651 524.959 OFFCURVE",
"443.359 524.959 CURVE SMOOTH",
"380.136 524.959 OFFCURVE",
"338.39 561.562 OFFCURVE",
"338.39 603 CURVE SMOOTH",
"338.39 661.163 OFFCURVE",
"377.099 693.053 OFFCURVE",
"377.099 726.29 CURVE",
"383 761 LINE",
"319.39 780 LINE",
"338.168 766.913 OFFCURVE",
"344.885 754.219 OFFCURVE",
"344.885 740.685 CURVE SMOOTH",
"344.885 706.649 OFFCURVE",
"302.402 667.298 OFFCURVE",
"302.402 603.001 CURVE SMOOTH",
"302.402 543.568 OFFCURVE",
"358.119 491.074 OFFCURVE",
"442.5 491.074 CURVE SMOOTH",
"455.621 491.074 OFFCURVE",
"469.338 492.334 OFFCURVE",
"483.576 495 CURVE",
"493 522 LINE"
);
}
);
width = 565;
}
);
unicode = 0DA8;
},
{
glyphname = sinDda;
lastChange = "2018-02-04 13:36:43 +0000";
layers = (
{
layerId = "6114C541-D024-4A3E-9713-6FAF49EAB318";
paths = (
{
closed = 1;
nodes = (
"27.762 193.437 CURVE SMOOTH",
"27.762 234.737 OFFCURVE",
"39.244 280.437 OFFCURVE",
"53.244 306 CURVE",
"22 306 LINE",
"22 391 LINE",
"311.243 389.5 LINE",
"344.745 306 LINE",
"195 306 LINE SMOOTH",
"154.244 306 OFFCURVE",
"134.762 245.162 OFFCURVE",
"134.762 193.437 CURVE SMOOTH",
"134.762 156.328 OFFCURVE",
"140.436 114.652 OFFCURVE",
"177.693 114.652 CURVE SMOOTH",
"219.869 114.652 OFFCURVE",
"234.875 179.678 OFFCURVE",
"234.875 249.5 CURVE",
"330.786 249.5 LINE",
"330.786 176.75 OFFCURVE",
"346.254 115 OFFCURVE",
"389.244 115 CURVE SMOOTH",
"446 115 OFFCURVE",
"446 239.958 OFFCURVE",
"446 293 CURVE SMOOTH",
"446 522.797 OFFCURVE",
"403 639.885 OFFCURVE",
"265 639.885 CURVE SMOOTH",
"223.896 639.885 OFFCURVE",
"176.237 618.96 OFFCURVE",
"159.182 576.855 CURVE",
"50.149 613.029 LINE",
"86.134 707.868 OFFCURVE",
"178.279 755 OFFCURVE",
"265 755 CURVE SMOOTH",
"482 755 OFFCURVE",
"561 599.056 OFFCURVE",
"561 293 CURVE SMOOTH",
"561 181.996 OFFCURVE",
"560 0 OFFCURVE",
"389.244 0 CURVE SMOOTH",
"333.324 0 OFFCURVE",
"295.302 33.145 OFFCURVE",
"280.481 79.03 CURVE",
"264.336 31.603 OFFCURVE",
"224.924 0 OFFCURVE",
"172.244 0 CURVE SMOOTH",
"56.444 0 OFFCURVE",
"27.762 105.454 OFFCURVE"
);
},
{
closed = 1;
nodes = (
"80.337 409.272 CURVE SMOOTH",
"80.337 481.535 OFFCURVE",
"129.308 531.563 OFFCURVE",
"203.609 531.563 CURVE SMOOTH",
"280.596 531.563 OFFCURVE",
"351.994 474.899 OFFCURVE",
"351.994 365.563 CURVE SMOOTH",
"351.994 351 OFFCURVE",
"348.801 325 OFFCURVE",
"344.745 306 CURVE",
"254.365 371.875 LINE",
"255.307 376.782 OFFCURVE",
"255.78 381.771 OFFCURVE",
"255.78 386.714 CURVE SMOOTH",
"255.78 416.144 OFFCURVE",
"238.967 444 OFFCURVE",
"203.609 444 CURVE SMOOTH",
"178.81 444 OFFCURVE",
"169.817 426.134 OFFCURVE",
"169.817 404.787 CURVE SMOOTH",
"169.817 386.793 OFFCURVE",
"182.103 370.325 OFFCURVE",
"190.801 356 CURVE",
"110.801 318.563 LINE",
"90.801 351 OFFCURVE",
"80.337 380.62 OFFCURVE"
);
}
);
width = 583;
},
{
layerId = "CC11FE7D-5FF0-4B40-9597-DFC61EB94F41";
paths = (
{
closed = 1;
nodes = (
"33.243 179.103 CURVE",
"33.243 248 OFFCURVE",
"53.222 327 OFFCURVE",
"87.222 354 CURVE",
"33 354 LINE",
"33 389 LINE",
"310.283 389 LINE",
"318.007 354 LINE",
"181.071 354 LINE SMOOTH",
"83.295 354 OFFCURVE",
"70.243 236.715 OFFCURVE",
"70.243 179.103 CURVE SMOOTH",
"70.243 101.945 OFFCURVE",
"94.642 40 OFFCURVE",
"156.686 40 CURVE SMOOTH",
"247.852 40 OFFCURVE",
"254.444 148.886 OFFCURVE",
"257.686 224.5 CURVE",
"291.686 224.5 LINE",
"294.928 148.886 OFFCURVE",
"301.52 40 OFFCURVE",
"392.686 40 CURVE SMOOTH",
"485.419 40 OFFCURVE",
"492.243 164 OFFCURVE",
"492.243 293 CURVE SMOOTH",
"492.243 576.887 OFFCURVE",
"417.791 712 OFFCURVE",
"264.686 712 CURVE SMOOTH",
"193.814 712 OFFCURVE",
"125.337 665.927 OFFCURVE",
"102.013 605 CURVE",
"68.013 618 LINE",
"96.212 692.593 OFFCURVE",
"179 749 OFFCURVE",
"264.686 749 CURVE SMOOTH",
"442.686 749 OFFCURVE",
"529.243 601.955 OFFCURVE",
"529.243 293 CURVE SMOOTH",
"529.243 145.135 OFFCURVE",
"519.883 3 OFFCURVE",
"392.686 3 CURVE SMOOTH",
"297.52 3 OFFCURVE",
"278.52 85 OFFCURVE",
"274.686 115 CURVE",
"270.852 85 OFFCURVE",
"251.852 3 OFFCURVE",
"156.686 3 CURVE SMOOTH",
"68.086 3 OFFCURVE",
"33.243 81.421 OFFCURVE"
);
},
{
closed = 1;
nodes = (
"86.007 420 CURVE",
"86.007 488 OFFCURVE",
"137.351 524 OFFCURVE",
"196.007 524 CURVE SMOOTH",
"260.563 524 OFFCURVE",
"320.451 481.099 OFFCURVE",
"320.451 387 CURVE SMOOTH",
"320.451 375.04 OFFCURVE",
"319.565 364.262 OFFCURVE",
"318.006 354 CURVE",
"286.627 379 LINE",
"286.534 381.638 OFFCURVE",
"286.451 384.229 OFFCURVE",
"286.451 387 CURVE SMOOTH",
"286.451 457.746 OFFCURVE",
"244.369 490 OFFCURVE",
"196.006 490 CURVE SMOOTH",
"154.049 490 OFFCURVE",
"119.482 467 OFFCURVE",
"119.482 420 CURVE SMOOTH",
"119.482 395.6 OFFCURVE",
"129.006 376 OFFCURVE",
"142.006 364 CURVE",
"117.825 344 LINE",
"102.006 358 OFFCURVE",
"86.007 388.023 OFFCURVE"
);
}
);
width = 562;
}
);
unicode = 0DA9;
},
{
glyphname = sinDdha;
lastChange = "2018-02-04 13:36:43 +0000";
layers = (
{
layerId = "6114C541-D024-4A3E-9713-6FAF49EAB318";
paths = (
{
closed = 1;
nodes = (
"196.041 0 OFFCURVE",
"235.453 31.603 OFFCURVE",
"251.599 79.03 CURVE",
"266.42 33.145 OFFCURVE",
"304.442 0 OFFCURVE",
"360.362 0.001 CURVE SMOOTH",
"531.118 0.001 OFFCURVE",
"538.773 181.997 OFFCURVE",
"538.773 293.001 CURVE SMOOTH",
"538.773 527.001 OFFCURVE",
"446.26 745.251 OFFCURVE",
"319.157 811.001 CURVE",
"264.217 745.178 LINE",
"293.833 721.157 OFFCURVE",
"319.678 687.156 OFFCURVE",
"338.157 647.001 CURVE",
"361.033 626.982 OFFCURVE",
"378.777 585.038 OFFCURVE",
"383.616 545.001 CURVE",
"402.256 481.405 OFFCURVE",
"423.773 384.549 OFFCURVE",
"423.773 293.001 CURVE SMOOTH",
"423.773 239.959 OFFCURVE",
"417.118 115.001 OFFCURVE",
"360.362 115.001 CURVE SMOOTH",
"317.372 115.001 OFFCURVE",
"301.904 176.751 OFFCURVE",
"301.904 249.501 CURVE",
"205.993 249.501 LINE",
"205.993 179.678 OFFCURVE",
"190.987 114.653 OFFCURVE",
"148.812 114.653 CURVE SMOOTH",
"111.554 114.653 OFFCURVE",
"105.88 156.329 OFFCURVE",
"105.88 193.437 CURVE SMOOTH",
"105.88 245.162 OFFCURVE",
"125.362 306 OFFCURVE",
"166.118 306 CURVE SMOOTH",
"315.863 306 LINE",
"282.361 389.5 LINE",
"-6.882 391 LINE",
"-6.882 306 LINE",
"24.362 306 LINE",
"10.362 280.437 OFFCURVE",
"-1.12 234.738 OFFCURVE",
"-1.12 193.437 CURVE SMOOTH",
"-1.12 105.454 OFFCURVE",
"27.562 0 OFFCURVE",
"143.362 0 CURVE SMOOTH"
);
},
{
closed = 1;
nodes = (
"161.919 356 LINE",
"153.221 370.325 OFFCURVE",
"140.935 386.793 OFFCURVE",
"140.935 404.787 CURVE SMOOTH",
"140.935 426.133 OFFCURVE",
"149.928 444 OFFCURVE",
"174.727 444 CURVE SMOOTH",
"210.085 444 OFFCURVE",
"226.898 416.143 OFFCURVE",
"226.898 386.713 CURVE SMOOTH",
"226.898 381.77 OFFCURVE",
"226.425 376.782 OFFCURVE",
"225.483 371.875 CURVE",
"315.863 306 LINE",
"319.919 325 OFFCURVE",
"323.112 351 OFFCURVE",
"323.112 365.563 CURVE SMOOTH",
"323.112 474.899 OFFCURVE",
"251.713 531.563 OFFCURVE",
"174.727 531.563 CURVE SMOOTH",
"100.426 531.563 OFFCURVE",
"51.455 481.535 OFFCURVE",
"51.455 409.272 CURVE SMOOTH",
"51.455 380.62 OFFCURVE",
"61.919 351 OFFCURVE",
"81.919 318.563 CURVE"
);
},
{
closed = 1;
nodes = (
"426 547 LINE",
"416 550 OFFCURVE",
"406 544 OFFCURVE",
"396.158 547 CURVE",
"343.712 549.949 OFFCURVE",
"319.158 582.493 OFFCURVE",
"319.158 605 CURVE SMOOTH",
"319.158 621.142 OFFCURVE",
"326.455 639.981 OFFCURVE",
"338.878 647 CURVE",
"345 683 OFFCURVE",
"352 719 OFFCURVE",
"358.1 755 CURVE",
"264.217 745.177 LINE",
"275.074 735.273 OFFCURVE",
"279.158 727.053 OFFCURVE",
"279.158 719 CURVE SMOOTH",
"279.158 695.319 OFFCURVE",
"226.89 673.122 OFFCURVE",
"226.89 611.134 CURVE SMOOTH",
"226.89 540.309 OFFCURVE",
"293.329 485.97 OFFCURVE",
"360.1 467.641 CURVE SMOOTH",
"377.958 462.738 OFFCURVE",
"396.006 460.461 OFFCURVE",
"413.158 460 CURVE",
"470.1 524 LINE"
);
}
);
width = 554;
},
{
layerId = "CC11FE7D-5FF0-4B40-9597-DFC61EB94F41";
paths = (
{
closed = 1;
nodes = (
"251.853 3 OFFCURVE",
"270.853 85 OFFCURVE",
"274.687 115 CURVE",
"278.521 85 OFFCURVE",
"297.521 3 OFFCURVE",
"392.687 3 CURVE SMOOTH",
"525.108 3 OFFCURVE",
"534.852 125.53 OFFCURVE",
"534.852 253 CURVE SMOOTH",
"534.852 504.299 OFFCURVE",
"469.798 706.644 OFFCURVE",
"339.243 807 CURVE",
"316.243 780 LINE",
"336.092 764.394 OFFCURVE",
"355.048 745.808 OFFCURVE",
"372.673 724 CURVE SMOOTH",
"412.502 674.718 OFFCURVE",
"445.535 608.981 OFFCURVE",
"466.712 524 CURVE SMOOTH",
"486.543 447.466 OFFCURVE",
"497.853 357.627 OFFCURVE",
"497.853 253 CURVE SMOOTH",
"497.853 144.396 OFFCURVE",
"490.645 40 OFFCURVE",
"392.687 40 CURVE SMOOTH",
"301.521 40 OFFCURVE",
"294.929 148.886 OFFCURVE",
"291.687 224.5 CURVE",
"257.687 224.5 LINE",
"254.445 148.886 OFFCURVE",
"247.853 40 OFFCURVE",
"156.687 40 CURVE SMOOTH",
"94.644 40 OFFCURVE",
"70.243 101.945 OFFCURVE",
"70.243 179.103 CURVE SMOOTH",
"70.243 236.715 OFFCURVE",
"83.296 354 OFFCURVE",
"181.071 354 CURVE SMOOTH",
"318.007 354 LINE",
"310.284 389 LINE",
"33 389 LINE",
"33 354 LINE",
"87.223 354 LINE",
"53.222 327 OFFCURVE",
"33.244 248 OFFCURVE",
"33.244 179.103 CURVE SMOOTH",
"33.244 81.421 OFFCURVE",
"68.087 3 OFFCURVE",
"156.687 3 CURVE SMOOTH"
);
},
{
closed = 1;
nodes = (
"142.006 364 LINE",
"129.006 376 OFFCURVE",
"119.482 395.6 OFFCURVE",
"119.482 420 CURVE SMOOTH",
"119.482 467 OFFCURVE",
"154.049 490 OFFCURVE",
"196.006 490 CURVE SMOOTH",
"244.369 490 OFFCURVE",
"286.451 457.746 OFFCURVE",
"286.451 387 CURVE SMOOTH",
"287 384 OFFCURVE",
"287 382 OFFCURVE",
"286.627 379 CURVE",
"318.006 354 LINE",
"319.565 364.262 OFFCURVE",
"320.451 375.04 OFFCURVE",
"320.451 387 CURVE SMOOTH",
"320.451 481.099 OFFCURVE",
"260.563 524 OFFCURVE",
"196.007 524 CURVE SMOOTH",
"137.351 524 OFFCURVE",
"86.007 488 OFFCURVE",
"86.007 420 CURVE SMOOTH",
"86.007 388.023 OFFCURVE",
"102.006 358 OFFCURVE",
"117.825 344 CURVE"
);
},
{
closed = 1;
nodes = (
"472.429 528 LINE",
"461.262 525.936 OFFCURVE",
"450.503 524.959 OFFCURVE",
"440.212 524.959 CURVE SMOOTH",
"376.989 524.959 OFFCURVE",
"335.243 561.562 OFFCURVE",
"335.243 603 CURVE SMOOTH",
"335.243 661.163 OFFCURVE",
"373.952 693.053 OFFCURVE",
"373.952 726.29 CURVE",
"373.952 726.29 OFFCURVE",
"377.508 749.59 OFFCURVE",
"379.853 761 CURVE",
"316.243 780 LINE",
"335.021 766.913 OFFCURVE",
"341.738 754.219 OFFCURVE",
"341.738 740.685 CURVE SMOOTH",
"341.738 706.649 OFFCURVE",
"299.255 667.298 OFFCURVE",
"299.255 603.001 CURVE SMOOTH",
"299.255 543.568 OFFCURVE",
"354.972 491.074 OFFCURVE",
"439.353 491.074 CURVE SMOOTH",
"452.474 491.074 OFFCURVE",
"466.191 492.334 OFFCURVE",
"480.429 495 CURVE",
"489.853 522 LINE"
);
}
);
width = 562;
}
);
unicode = 0DAA;
},
{
glyphname = sinNna;
lastChange = "2018-02-04 13:36:43 +0000";
layers = (
{
layerId = "6114C541-D024-4A3E-9713-6FAF49EAB318";
paths = (
{
closed = 1;
nodes = (
"133.989 14.998 OFFCURVE",
"145.925 20 OFFCURVE",
"159.302 20 CURVE SMOOTH",
"193 20 OFFCURVE",
"216 0 OFFCURVE",
"280 0 CURVE SMOOTH",
"398 0 OFFCURVE",
"517.901 99.561 OFFCURVE",
"517.901 288.078 CURVE SMOOTH",
"517.901 487 OFFCURVE",
"402.382 585 OFFCURVE",
"262 585 CURVE SMOOTH",
"120.966 585 OFFCURVE",
"38.399 466.953 OFFCURVE",
"38.399 345.123 CURVE SMOOTH",
"38.399 303.688 OFFCURVE",
"47.95 261.815 OFFCURVE",
"68 224 CURVE",
"113 276 LINE",
"121 305 OFFCURVE",
"130 333 OFFCURVE",
"138 362 CURVE",
"138 370.777 OFFCURVE",
"138.931 379.513 OFFCURVE",
"140.846 388 CURVE SMOOTH",
"150.998 433.006 OFFCURVE",
"188.803 471 OFFCURVE",
"262 471 CURVE SMOOTH",
"339.281 471 OFFCURVE",
"402.901 407 OFFCURVE",
"402.901 288.078 CURVE SMOOTH",
"402.901 176.545 OFFCURVE",
"357.487 103.551 OFFCURVE",
"260.547 103.551 CURVE SMOOTH",
"226.684 103.551 OFFCURVE",
"197.466 112.527 OFFCURVE",
"172.707 112.527 CURVE SMOOTH",
"161.971 112.527 OFFCURVE",
"151.411 111.911 OFFCURVE",
"143 106 CURVE SMOOTH",
"116 87 OFFCURVE",
"89 68 OFFCURVE",
"72 49 CURVE",
"124 0 LINE"
);
},
{
closed = 1;
nodes = (
"135 148 OFFCURVE",
"170 134 OFFCURVE",
"230 176 CURVE",
"144 244 LINE",
"64 171 OFFCURVE",
"42 174 OFFCURVE",
"22 20 CURVE",
"124 0 LINE"
);
},
{
closed = 1;
nodes = (
"282.444 142 OFFCURVE",
"348 207.55 OFFCURVE",
"348 289.488 CURVE SMOOTH",
"348 327.971 OFFCURVE",
"333.541 362.839 OFFCURVE",
"309.718 389 CURVE SMOOTH",
"286.909 414.047 OFFCURVE",
"252.567 428 OFFCURVE",
"219.228 428 CURVE SMOOTH",
"182.886 428 OFFCURVE",
"147.732 411.948 OFFCURVE",
"130 389 CURVE",
"86.424 361.979 OFFCURVE",
"53.015 326.546 OFFCURVE",
"53.015 289.488 CURVE SMOOTH",
"53.015 279.732 OFFCURVE",
"53.944 270.208 OFFCURVE",
"55.72 261 CURVE SMOOTH",
"68.858 192.87 OFFCURVE",
"128.321 142 OFFCURVE",
"200.503 142 CURVE SMOOTH"
);
},
{
closed = 1;
nodes = (
"171.106 249.277 OFFCURVE",
"149.235 271.148 OFFCURVE",
"149.235 298.488 CURVE SMOOTH",
"149.235 325.829 OFFCURVE",
"171.106 347.702 OFFCURVE",
"198.446 347.702 CURVE SMOOTH",
"225.786 347.702 OFFCURVE",
"247.659 325.829 OFFCURVE",
"247.659 298.488 CURVE SMOOTH",
"247.659 271.148 OFFCURVE",
"225.786 249.277 OFFCURVE",
"198.446 249.277 CURVE SMOOTH"
);
},
{
closed = 1;
nodes = (
"848.578 0 OFFCURVE",
"856.841 166 OFFCURVE",
"856.841 277 CURVE SMOOTH",
"856.841 386 OFFCURVE",
"850.843 520 OFFCURVE",
"724 520 CURVE SMOOTH",
"676 520 OFFCURVE",
"637.943 491.13 OFFCURVE",
"628.457 468 CURVE",
"618.971 491.13 OFFCURVE",
"592 520 OFFCURVE",
"546 520 CURVE SMOOTH",
"473.475 520 OFFCURVE",
"427.032 439.831 OFFCURVE",
"427.032 321.523 CURVE SMOOTH",
"427.032 235 LINE",
"514 235 LINE",
"518.033 251.42 OFFCURVE",
"518.647 272.57 OFFCURVE",
"518.647 294.362 CURVE",
"519 304 OFFCURVE",
"519 313 OFFCURVE",
"518.529 322.985 CURVE",
"518.529 366.862 OFFCURVE",
"521.068 406 OFFCURVE",
"549.755 406 CURVE SMOOTH",
"576.755 406 OFFCURVE",
"581.957 372 OFFCURVE",
"581.957 333 CURVE SMOOTH",
"581.957 238 LINE",
"674.957 238 LINE",
"674.957 333 LINE SMOOTH",
"674.957 372 OFFCURVE",
"680.159 406 OFFCURVE",
"707.159 406 CURVE SMOOTH",
"741 406 OFFCURVE",
"741.841 338.391 OFFCURVE",
"741.841 277 CURVE SMOOTH",
"741.841 208.104 OFFCURVE",
"738.263 110 OFFCURVE",
"669 110 CURVE SMOOTH",
"575.328 110 OFFCURVE",
"587.872 210.283 OFFCURVE",
"510 210.283 CURVE SMOOTH",
"504.186 210.283 OFFCURVE",
"495.544 209.563 OFFCURVE",
"488.48 208 CURVE",
"457 115 LINE",
"467.293 119.99 OFFCURVE",
"475.794 122.19 OFFCURVE",
"483.061 122.19 CURVE SMOOTH",
"537.224 122.19 OFFCURVE",
"522.876 0 OFFCURVE",
"671 0 CURVE SMOOTH"
);
},
{
closed = 1;
nodes = (
"453.723 608 OFFCURVE",
"504 672.148 OFFCURVE",
"504 770 CURVE",
"394 770 LINE",
"394 715.748 OFFCURVE",
"387.802 680.666 OFFCURVE",
"283.693 573 CURVE",
"376 528 LINE"
);
}
);
width = 878;
},
{
layerId = "CC11FE7D-5FF0-4B40-9597-DFC61EB94F41";
paths = (
{
closed = 1;
nodes = (
"108.775 24.459 OFFCURVE",
"124.914 29.758 OFFCURVE",
"143.468 29.758 CURVE SMOOTH",
"176.462 29.758 OFFCURVE",
"217.093 13 OFFCURVE",
"265.099 13 CURVE SMOOTH",
"396.099 13 OFFCURVE",
"480 104.205 OFFCURVE",
"480 281.902 CURVE SMOOTH",
"480 491.616 OFFCURVE",
"372.7 573.902 OFFCURVE",
"251 573.902 CURVE SMOOTH",
"101.125 573.902 OFFCURVE",
"33 458.947 OFFCURVE",
"33 357.902 CURVE SMOOTH",
"33 289.902 OFFCURVE",
"49 242.902 OFFCURVE",
"80 205.902 CURVE",
"102 230.902 LINE",
"102 230.902 OFFCURVE",
"88.265 252.121 OFFCURVE",
"78.003 285.902 CURVE SMOOTH",
"71.884 306.047 OFFCURVE",
"67 330.658 OFFCURVE",
"67 357.902 CURVE SMOOTH",
"67 450.228 OFFCURVE",
"133.621 536.902 OFFCURVE",
"251 536.902 CURVE SMOOTH",
"353.037 536.902 OFFCURVE",
"443 465.043 OFFCURVE",
"443 281.902 CURVE SMOOTH",
"443 128.655 OFFCURVE",
"373.544 50 OFFCURVE",
"265.099 50 CURVE SMOOTH",
"229.517 50 OFFCURVE",
"185.245 66.144 OFFCURVE",
"144.198 66.144 CURVE SMOOTH",
"127.31 66.144 OFFCURVE",
"110.967 63.411 OFFCURVE",
"96 55.696 CURVE SMOOTH",
"86 51 OFFCURVE",
"77 43 OFFCURVE",
"68 33 CURVE",
"95.099 7.902 LINE"
);
},
{
closed = 1;
nodes = (
"105.843 112.454 OFFCURVE",
"124.099 142.902 OFFCURVE",
"176.099 164.902 CURVE",
"157.099 188.902 LINE",
"96.099 158.902 OFFCURVE",
"77.246 134.75 OFFCURVE",
"59.099 14.902 CURVE",
"95.099 7.902 LINE"
);
},
{
closed = 1;
nodes = (
"243.725 160.902 OFFCURVE",
"298.198 215.376 OFFCURVE",
"298.198 283.101 CURVE SMOOTH",
"298.198 323.83 OFFCURVE",
"278.496 360.3 OFFCURVE",
"248.058 382.902 CURVE SMOOTH",
"227.884 397.883 OFFCURVE",
"202.995 406.771 OFFCURVE",
"176 406.771 CURVE SMOOTH",
"116.889 406.771 OFFCURVE",
"75.302 368.928 OFFCURVE",
"62.307 317.902 CURVE",
"59 298.902 OFFCURVE",
"56.856 278.867 OFFCURVE",
"56.856 258.618 CURVE SMOOTH",
"56.856 253.255 OFFCURVE",
"57.394 248.017 OFFCURVE",
"59.203 242.902 CURVE SMOOTH",
"76.132 195.059 OFFCURVE",
"122.373 160.902 OFFCURVE",
"176 160.902 CURVE SMOOTH"
);
},
{
closed = 1;
nodes = (
"127.188 195.209 OFFCURVE",
"88.099 234.351 OFFCURVE",
"88.099 282.859 CURVE SMOOTH",
"88.099 331.42 OFFCURVE",
"127.24 370.514 OFFCURVE",
"175.749 370.514 CURVE SMOOTH",
"224.311 370.514 OFFCURVE",
"263.401 331.368 OFFCURVE",
"263.401 282.859 CURVE SMOOTH",
"263.401 234.296 OFFCURVE",
"224.254 195.209 OFFCURVE",
"175.749 195.209 CURVE SMOOTH"
);
},
{
closed = 1;
nodes = (
"814.41 8 OFFCURVE",
"818.705 154.9 OFFCURVE",
"818.705 279 CURVE SMOOTH",
"818.705 405.873 OFFCURVE",
"796 519 OFFCURVE",
"705.364 519 CURVE SMOOTH",
"651.546 519 OFFCURVE",
"620.439 479 OFFCURVE",
"618.321 442 CURVE",
"614.769 478.143 OFFCURVE",
"585 519 OFFCURVE",
"537 519 CURVE SMOOTH",
"448.83 519 OFFCURVE",
"442.853 441.291 OFFCURVE",
"442.853 332.378 CURVE SMOOTH",
"443 279 LINE",
"478 278 LINE",
"479.089 285.97 OFFCURVE",
"479.448 295.422 OFFCURVE",
"479.448 305.822 CURVE SMOOTH",
"479.448 325.896 OFFCURVE",
"478.111 349.503 OFFCURVE",
"478.111 372.797 CURVE SMOOTH",
"478.111 428.284 OFFCURVE",
"485.696 482 OFFCURVE",
"537 482 CURVE SMOOTH",
"599.014 482 OFFCURVE",
"599.821 382.3 OFFCURVE",
"599.821 335 CURVE SMOOTH",
"599.821 265.5 LINE",
"636.821 265.5 LINE",
"636.821 335 LINE SMOOTH",
"636.821 382.301 OFFCURVE",
"637.702 482 OFFCURVE",
"705.364 482 CURVE SMOOTH",
"780 482 OFFCURVE",
"781.705 339.257 OFFCURVE",
"781.705 279 CURVE SMOOTH",
"781.705 171.844 OFFCURVE",
"778.357 45 OFFCURVE",
"651 45 CURVE SMOOTH",
"509.536 45 OFFCURVE",
"556.529 182.721 OFFCURVE",
"463.172 182.721 CURVE SMOOTH",
"452.917 182.721 OFFCURVE",
"441.381 179.769 OFFCURVE",
"428.099 173 CURVE",
"440.099 143 LINE",
"447.074 145.951 OFFCURVE",
"453.643 147.295 OFFCURVE",
"459.099 147.295 CURVE SMOOTH",
"516.727 147.295 OFFCURVE",
"478.532 8 OFFCURVE",
"651 8 CURVE SMOOTH"
);
},
{
closed = 1;
nodes = (
"429.738 611.597 OFFCURVE",
"483 678.817 OFFCURVE",
"483 758.902 CURVE",
"447 758.902 LINE",
"447 688.041 OFFCURVE",
"397.605 629.607 OFFCURVE",
"324.894 555.902 CURVE",
"348.789 528.902 LINE"
);
}
);
width = 852;
}
);
unicode = 0DAB;
},
{
glyphname = sinNndda;
lastChange = "2018-02-04 13:36:43 +0000";
layers = (
{
layerId = "6114C541-D024-4A3E-9713-6FAF49EAB318";
paths = (
{
closed = 1;
nodes = (
"217.762 193.437 CURVE SMOOTH",
"217.762 234.737 OFFCURVE",
"229.244 280.437 OFFCURVE",
"243.244 306 CURVE",
"212 306 LINE",
"212 391 LINE",
"501.243 389.5 LINE",
"534.745 306 LINE",
"385 306 LINE SMOOTH",
"344.244 306 OFFCURVE",
"324.762 245.162 OFFCURVE",
"324.762 193.437 CURVE SMOOTH",
"324.762 156.328 OFFCURVE",
"330.436 114.652 OFFCURVE",
"367.693 114.652 CURVE SMOOTH",
"409.869 114.652 OFFCURVE",
"424.875 179.678 OFFCURVE",
"424.875 249.5 CURVE",
"520.786 249.5 LINE",
"520.786 176.75 OFFCURVE",
"536.254 115 OFFCURVE",
"579.244 115 CURVE SMOOTH",
"636 115 OFFCURVE",
"636 239.958 OFFCURVE",
"636 293 CURVE SMOOTH",
"636 522.797 OFFCURVE",
"593 639.885 OFFCURVE",
"455 639.885 CURVE SMOOTH",
"413.896 639.885 OFFCURVE",
"366.237 618.96 OFFCURVE",
"349.182 576.855 CURVE",
"240.149 613.029 LINE",
"276.134 707.868 OFFCURVE",
"368.279 755 OFFCURVE",
"455 755 CURVE SMOOTH",
"672 755 OFFCURVE",
"751 599.056 OFFCURVE",
"751 293 CURVE SMOOTH",
"751 181.996 OFFCURVE",
"750 0 OFFCURVE",
"579.244 0 CURVE SMOOTH",
"523.324 0 OFFCURVE",
"485.302 33.145 OFFCURVE",
"470.481 79.03 CURVE",
"454.336 31.603 OFFCURVE",
"414.924 0 OFFCURVE",
"362.244 0 CURVE SMOOTH",
"246.444 0 OFFCURVE",
"217.762 105.454 OFFCURVE"
);
},
{
closed = 1;
nodes = (
"270.337 409.272 CURVE SMOOTH",
"270.337 481.535 OFFCURVE",
"319.308 531.563 OFFCURVE",
"393.609 531.563 CURVE SMOOTH",
"470.596 531.563 OFFCURVE",
"541.994 474.899 OFFCURVE",
"541.994 365.563 CURVE SMOOTH",
"541.994 351 OFFCURVE",
"538.801 325 OFFCURVE",
"534.745 306 CURVE",
"444.365 371.875 LINE",
"445.306 376.782 OFFCURVE",
"445.78 381.771 OFFCURVE",
"445.78 386.714 CURVE SMOOTH",
"445.78 416.144 OFFCURVE",
"428.967 444 OFFCURVE",
"393.609 444 CURVE SMOOTH",
"368.81 444 OFFCURVE",
"359.817 426.134 OFFCURVE",
"359.817 404.787 CURVE SMOOTH",
"359.817 386.793 OFFCURVE",
"372.103 370.325 OFFCURVE",
"380.801 356 CURVE",
"300.801 318.563 LINE",
"280.801 351 OFFCURVE",
"270.337 380.62 OFFCURVE"
);
},
{
closed = 1;
nodes = (
"21.074 283.844 CURVE SMOOTH",
"21.074 487.986 OFFCURVE",
"106.255 559 OFFCURVE",
"210.354 559 CURVE SMOOTH",
"286.867 559 OFFCURVE",
"328.623 502.58 OFFCURVE",
"337.981 462 CURVE",
"271.981 401 LINE",
"266.805 417.586 OFFCURVE",
"251.981 455 OFFCURVE",
"210.354 455 CURVE SMOOTH",
"166.776 455 OFFCURVE",
"127.074 407.547 OFFCURVE",
"127.074 283.844 CURVE SMOOTH",
"127.074 131.5 OFFCURVE",
"150.854 101.844 OFFCURVE",
"184.074 101.844 CURVE SMOOTH",
"184.074 -0.156 LINE SMOOTH",
"89.074 -0.156 OFFCURVE",
"21.074 46.12 OFFCURVE"
);
}
);
width = 773;
},
{
layerId = "CC11FE7D-5FF0-4B40-9597-DFC61EB94F41";
paths = (
{
closed = 1;
nodes = (
"153.928 179.103 CURVE SMOOTH",
"153.928 248 OFFCURVE",
"173.906 327 OFFCURVE",
"207.906 354 CURVE",
"153.685 354 LINE",
"153.685 389 LINE",
"430.968 389 LINE",
"438.691 354 LINE",
"301.756 354 LINE SMOOTH",
"203.98 354 OFFCURVE",
"190.928 236.715 OFFCURVE",
"190.928 179.103 CURVE SMOOTH",
"190.928 101.944 OFFCURVE",
"215.327 40 OFFCURVE",
"277.371 40 CURVE SMOOTH",
"368.537 40 OFFCURVE",
"375.129 148.886 OFFCURVE",
"378.371 224.5 CURVE",
"412.371 224.5 LINE",
"415.613 148.886 OFFCURVE",
"422.205 40 OFFCURVE",
"513.371 40 CURVE SMOOTH",
"606.104 40 OFFCURVE",
"612.928 164 OFFCURVE",
"612.928 293 CURVE SMOOTH",
"612.928 576.887 OFFCURVE",
"538.477 712 OFFCURVE",
"385.371 712 CURVE SMOOTH",
"314.499 712 OFFCURVE",
"246.022 665.927 OFFCURVE",
"222.698 605 CURVE",
"188.698 618 LINE",
"216.897 692.593 OFFCURVE",
"299.686 749 OFFCURVE",
"385.371 749 CURVE SMOOTH",
"563.371 749 OFFCURVE",
"649.928 601.955 OFFCURVE",
"649.928 293 CURVE SMOOTH",
"649.928 145.135 OFFCURVE",
"640.568 3 OFFCURVE",
"513.371 3 CURVE SMOOTH",
"418.205 3 OFFCURVE",
"399.205 85 OFFCURVE",
"395.371 115 CURVE",
"391.537 85 OFFCURVE",
"372.537 3 OFFCURVE",
"277.371 3 CURVE SMOOTH",
"188.771 3 OFFCURVE",
"153.928 81.421 OFFCURVE"
);
},
{
closed = 1;
nodes = (
"206.691 420 CURVE SMOOTH",
"206.691 488 OFFCURVE",
"258.035 524 OFFCURVE",
"316.691 524 CURVE SMOOTH",
"381.248 524 OFFCURVE",
"441.136 481.099 OFFCURVE",
"441.136 387 CURVE SMOOTH",
"441.136 375.04 OFFCURVE",
"440.25 364.262 OFFCURVE",
"438.691 354 CURVE",
"407.312 379 LINE",
"407.219 381.638 OFFCURVE",
"407.136 384.229 OFFCURVE",
"407.136 387 CURVE SMOOTH",
"407.136 457.746 OFFCURVE",
"365.054 490 OFFCURVE",
"316.691 490 CURVE SMOOTH",
"274.734 490 OFFCURVE",
"240.167 467 OFFCURVE",
"240.167 420 CURVE SMOOTH",
"240.167 395.6 OFFCURVE",
"249.691 376 OFFCURVE",
"262.691 364 CURVE SMOOTH",
"238.51 344 LINE SMOOTH",
"222.691 358 OFFCURVE",
"206.691 388.023 OFFCURVE"
);
},
{
closed = 1;
nodes = (
"33 283.999 CURVE SMOOTH",
"33 474.34 OFFCURVE",
"93.258 524.999 OFFCURVE",
"150 525 CURVE SMOOTH",
"211.006 524.999 OFFCURVE",
"240.167 479.999 OFFCURVE",
"240.167 420 CURVE",
"206.691 420 LINE",
"205.35 467.657 OFFCURVE",
"181.102 487.999 OFFCURVE",
"150 487.999 CURVE SMOOTH",
"101.033 487.999 OFFCURVE",
"70 412.951 OFFCURVE",
"70 283.999 CURVE SMOOTH",
"70 114.294 OFFCURVE",
"111 49.013 OFFCURVE",
"145 43 CURVE",
"145 6 LINE",
"83.681 14.377 OFFCURVE",
"33 88.239 OFFCURVE"
);
}
);
width = 682;
}
);
unicode = 0DAC;
},
{
glyphname = sinTa;
lastChange = "2018-02-04 13:36:43 +0000";
layers = (
{
layerId = "6114C541-D024-4A3E-9713-6FAF49EAB318";
paths = (
{
closed = 1;
nodes = (
"575 -0.229 OFFCURVE",
"657 60.468 OFFCURVE",
"657 275 CURVE SMOOTH",
"657 495.923 OFFCURVE",
"546.5 594 OFFCURVE",
"436 594 CURVE SMOOTH",
"335.552 594 OFFCURVE",
"280.934 527.814 OFFCURVE",
"220 457 CURVE SMOOTH",
"35 242 LINE",
"36 151 LINE",
"121.284 204.771 LINE",
"317.284 415.771 LINE",
"358.481 460.121 OFFCURVE",
"378.709 482 OFFCURVE",
"436 482 CURVE SMOOTH",
"493.5 482 OFFCURVE",
"551 418.356 OFFCURVE",
"551 275 CURVE SMOOTH",
"551 139.37 OFFCURVE",
"516.012 102.771 OFFCURVE",
"463 102.771 CURVE SMOOTH",
"421.372 102.771 OFFCURVE",
"406 133.771 OFFCURVE",
"405 157.771 CURVE",
"337 93.771 LINE",
"347.243 57.793 OFFCURVE",
"387.086 -0.229 OFFCURVE",
"476 -0.229 CURVE SMOOTH"
);
},
{
closed = 1;
nodes = (
"339.673 0 OFFCURVE",
"428.644 41 OFFCURVE",
"428.644 215 CURVE SMOOTH",
"428.644 362.619 OFFCURVE",
"338.549 407.785 OFFCURVE",
"303.498 407.785 CURVE SMOOTH",
"261.511 407.785 OFFCURVE",
"226.722 401.294 OFFCURVE",
"181.644 389 CURVE",
"213.644 325 LINE",
"222.001 327.95 OFFCURVE",
"230.521 329.423 OFFCURVE",
"238.924 329.423 CURVE SMOOTH",
"281.795 329.423 OFFCURVE",
"321.644 291.087 OFFCURVE",
"321.644 215 CURVE SMOOTH",
"321.644 131 OFFCURVE",
"295.922 106 OFFCURVE",
"229 106 CURVE SMOOTH",
"194.616 106 OFFCURVE",
"157.644 120.083 OFFCURVE",
"157.644 158 CURVE SMOOTH",
"157.644 179.394 OFFCURVE",
"155 212 OFFCURVE",
"136 224 CURVE SMOOTH",
"122.882 232.285 OFFCURVE",
"105.438 228 OFFCURVE",
"91 228 CURVE",
"44.284 191.771 LINE",
"36 151 LINE",
"43.921 151 OFFCURVE",
"51.071 151 OFFCURVE",
"57 150 CURVE SMOOTH",
"67.098 148.297 OFFCURVE",
"73.644 139.301 OFFCURVE",
"73.644 101 CURVE SMOOTH",
"73.644 37.896 OFFCURVE",
"150.012 0 OFFCURVE",
"227 0 CURVE SMOOTH"
);
},
{
closed = 1;
nodes = (
"172.083 387.899 LINE",
"140.06 395.02 OFFCURVE",
"111 412.311 OFFCURVE",
"111 453 CURVE SMOOTH",
"111 477.631 OFFCURVE",
"125.857 500 OFFCURVE",
"156.284 500 CURVE SMOOTH",
"184.811 500 OFFCURVE",
"208.655 474.385 OFFCURVE",
"208.655 434.312 CURVE SMOOTH",
"208.655 375 LINE",
"286 441 LINE",
"286 541.773 OFFCURVE",
"224.365 594 OFFCURVE",
"157.899 594 CURVE SMOOTH",
"70.284 594 OFFCURVE",
"22.284 532.132 OFFCURVE",
"22.284 461.536 CURVE SMOOTH",
"22.284 392.994 OFFCURVE",
"70 345 OFFCURVE",
"125 330 CURVE"
);
}
);
width = 679;
},
{
layerId = "CC11FE7D-5FF0-4B40-9597-DFC61EB94F41";
paths = (
{
closed = 1;
nodes = (
"588.093 2.771 OFFCURVE",
"645 99.272 OFFCURVE",
"645 272 CURVE SMOOTH",
"645 505.28 OFFCURVE",
"558 588 OFFCURVE",
"447 588 CURVE SMOOTH",
"367 588 OFFCURVE",
"305.381 526.35 OFFCURVE",
"267 478 CURVE SMOOTH",
"33 184 LINE",
"58 155 LINE",
"82 185 LINE",
"278 433 LINE SMOOTH",
"325.68 493.25 OFFCURVE",
"376 550 OFFCURVE",
"447 550 CURVE SMOOTH",
"530 550 OFFCURVE",
"608 478.223 OFFCURVE",
"608 272 CURVE SMOOTH",
"608 107.823 OFFCURVE",
"545.658 39.771 OFFCURVE",
"468.352 39.771 CURVE SMOOTH",
"420.352 39.771 OFFCURVE",
"385.789 64.771 OFFCURVE",
"378.352 94.771 CURVE",
"344.352 85.771 LINE",
"354.6 40.499 OFFCURVE",
"401.352 2.771 OFFCURVE",
"468.352 2.771 CURVE SMOOTH"
);
},
{
closed = 1;
nodes = (
"289.109 3 OFFCURVE",
"409.415 17 OFFCURVE",
"409.415 195.999 CURVE SMOOTH",
"409.415 350.789 OFFCURVE",
"348.767 407.667 OFFCURVE",
"279.372 407.667 CURVE SMOOTH",
"242.372 407.667 OFFCURVE",
"213.372 385 OFFCURVE",
"190.372 365 CURVE",
"204.372 343 LINE",
"221.372 358 OFFCURVE",
"240.372 370.667 OFFCURVE",
"279.372 370.667 CURVE SMOOTH",
"328.999 370.667 OFFCURVE",
"372.372 323.731 OFFCURVE",
"372.372 195.999 CURVE SMOOTH",
"372.372 46 OFFCURVE",
"261.018 40 OFFCURVE",
"239.372 40 CURVE SMOOTH",
"154.372 40 OFFCURVE",
"120.372 82.139 OFFCURVE",
"120.372 129 CURVE SMOOTH",
"120.372 156.439 OFFCURVE",
"115 184 OFFCURVE",
"86 193 CURVE",
"85 193 OFFCURVE",
"84 192 OFFCURVE",
"82.372 192 CURVE",
"65 184 LINE",
"58 155 LINE",
"60 156 OFFCURVE",
"62 156 OFFCURVE",
"63.777 155.662 CURVE",
"77.859 155.662 OFFCURVE",
"83.372 142.484 OFFCURVE",
"83.372 129 CURVE SMOOTH",
"83.372 59.7 OFFCURVE",
"133.321 3 OFFCURVE",
"239.372 3 CURVE SMOOTH"
);
},
{
closed = 1;
nodes = (
"190 356 LINE",
"113 368 OFFCURVE",
"69.723 407.775 OFFCURVE",
"69.723 474 CURVE SMOOTH",
"69.723 530.043 OFFCURVE",
"112.17 557 OFFCURVE",
"152.556 557 CURVE SMOOTH",
"200.918 557 OFFCURVE",
"243 524.746 OFFCURVE",
"243 454 CURVE SMOOTH",
"243 402 LINE",
"277 454 LINE",
"277 548.099 OFFCURVE",
"217.112 591 OFFCURVE",
"152.556 591 CURVE SMOOTH",
"95.85 591 OFFCURVE",
"36.247 553 OFFCURVE",
"36.247 474 CURVE SMOOTH",
"36.247 390.378 OFFCURVE",
"95 338 OFFCURVE",
"182 325 CURVE"
);
}
);
width = 668;
}
);
unicode = 0DAD;
},
{
glyphname = sinTha;
lastChange = "2018-02-04 13:36:43 +0000";
layers = (
{
layerId = "6114C541-D024-4A3E-9713-6FAF49EAB318";
paths = (
{
closed = 1;
nodes = (
"476.231 -0.001 OFFCURVE",
"545.484 159.709 OFFCURVE",
"545.484 339.119 CURVE SMOOTH",
"545.484 530.926 OFFCURVE",
"456.529 745.249 OFFCURVE",
"329.426 810.999 CURVE",
"274.486 745.176 LINE",
"304.102 721.155 OFFCURVE",
"329.947 687.154 OFFCURVE",
"348.426 646.999 CURVE",
"376.606 626.196 OFFCURVE",
"398.465 582.607 OFFCURVE",
"404.426 540.999 CURVE",
"418.426 475.999 LINE",
"426.388 443.196 OFFCURVE",
"433.625 394.671 OFFCURVE",
"433.625 343.766 CURVE SMOOTH",
"433.625 234.832 OFFCURVE",
"409.062 114.999 OFFCURVE",
"279 115 CURVE SMOOTH",
"171.828 114.999 OFFCURVE",
"131.854 189.243 OFFCURVE",
"131.854 252.395 CURVE SMOOTH",
"131.854 310.459 OFFCURVE",
"155.474 356.607 OFFCURVE",
"195.99 356.607 CURVE SMOOTH",
"207.336 356.607 OFFCURVE",
"220.006 352.989 OFFCURVE",
"233.854 345 CURVE",
"271.719 445.258 LINE",
"243.345 465.063 OFFCURVE",
"214.314 472 OFFCURVE",
"186.547 472 CURVE SMOOTH",
"88.854 472 OFFCURVE",
"21.854 381.538 OFFCURVE",
"21.854 252.396 CURVE SMOOTH",
"21.854 136.287 OFFCURVE",
"86.748 0 OFFCURVE",
"279 0 CURVE SMOOTH"
);
},
{
closed = 1;
nodes = (
"429 549 LINE",
"421 548 OFFCURVE",
"414 548 OFFCURVE",
"406.427 547 CURVE SMOOTH",
"353.981 549.949 OFFCURVE",
"329.427 582.493 OFFCURVE",
"329.427 605 CURVE SMOOTH",
"329.427 621.142 OFFCURVE",
"340 643 OFFCURVE",
"352 650 CURVE",
"368.369 755 LINE",
"274.486 745.177 LINE",
"285.343 735.273 OFFCURVE",
"289.427 727.053 OFFCURVE",
"289.427 719 CURVE SMOOTH",
"289.427 695.319 OFFCURVE",
"237.159 673.122 OFFCURVE",
"237.159 611.134 CURVE SMOOTH",
"237.159 540.309 OFFCURVE",
"303.599 485.97 OFFCURVE",
"370.369 467.641 CURVE SMOOTH",
"388.227 462.738 OFFCURVE",
"406.275 460.461 OFFCURVE",
"423.427 460 CURVE",
"480.369 524 LINE"
);
}
);
width = 548;
},
{
layerId = "CC11FE7D-5FF0-4B40-9597-DFC61EB94F41";
paths = (
{
closed = 1;
nodes = (
"416.816 3 OFFCURVE",
"504.758 126.91 OFFCURVE",
"504.758 342 CURVE SMOOTH",
"504.758 527 OFFCURVE",
"432.758 708 OFFCURVE",
"312.572 807 CURVE",
"289.572 780 LINE",
"309.373 764.43 OFFCURVE",
"327.822 746.32 OFFCURVE",
"344.762 726 CURVE SMOOTH",
"389.844 671.92 OFFCURVE",
"424.242 602.184 OFFCURVE",
"445.046 523 CURVE",
"450.869 499 LINE",
"461.906 449.491 OFFCURVE",
"467.757 396.685 OFFCURVE",
"467.757 342 CURVE SMOOTH",
"467.757 150.386 OFFCURVE",
"392.831 40 OFFCURVE",
"254.757 40 CURVE SMOOTH",
"123.27 40 OFFCURVE",
"70 145.522 OFFCURVE",
"70 235 CURVE SMOOTH",
"70 345.575 OFFCURVE",
"119.861 410.538 OFFCURVE",
"179 410.538 CURVE SMOOTH",
"192.598 410.538 OFFCURVE",
"205.792 407.103 OFFCURVE",
"220 400 CURVE",
"236 432 LINE",
"216.248 441.8 OFFCURVE",
"197.904 446.538 OFFCURVE",
"179 446.538 CURVE SMOOTH",
"102.645 446.538 OFFCURVE",
"33 371.177 OFFCURVE",
"33 235 CURVE SMOOTH",
"33 128.544 OFFCURVE",
"96.938 3 OFFCURVE",
"254.757 3 CURVE SMOOTH"
);
},
{
closed = 1;
nodes = (
"455 528 LINE",
"444 526 OFFCURVE",
"423.831 524.959 OFFCURVE",
"413.54 524.959 CURVE SMOOTH",
"350.317 524.959 OFFCURVE",
"308.571 561.562 OFFCURVE",
"308.571 603 CURVE SMOOTH",
"308.571 661.163 OFFCURVE",
"347.28 693.053 OFFCURVE",
"347.28 726.29 CURVE",
"353.181 761 LINE",
"289.571 780 LINE",
"308.349 766.913 OFFCURVE",
"315.066 754.219 OFFCURVE",
"315.066 740.685 CURVE SMOOTH",
"315.066 706.649 OFFCURVE",
"272.583 667.298 OFFCURVE",
"272.583 603.001 CURVE SMOOTH",
"272.583 543.568 OFFCURVE",
"328.3 491.074 OFFCURVE",
"412.681 491.074 CURVE SMOOTH",
"425.802 491.074 OFFCURVE",
"439.519 492.334 OFFCURVE",
"453.757 495 CURVE",
"463.181 522 LINE"
);
}
);
width = 525;
}
);
unicode = 0DAE;
},
{
glyphname = sinDa;
lastChange = "2018-02-04 13:36:43 +0000";
layers = (
{
layerId = "6114C541-D024-4A3E-9713-6FAF49EAB318";
paths = (
{
closed = 1;
nodes = (
"22 217 CURVE SMOOTH",
"22 330.947 OFFCURVE",
"118.68 421.352 OFFCURVE",
"239 421.352 CURVE SMOOTH",
"257.83 421.352 OFFCURVE",
"270 420 OFFCURVE",
"287.807 418.437 CURVE",
"288.868 424.679 OFFCURVE",
"289.371 430.648 OFFCURVE",
"289.371 436.312 CURVE SMOOTH",
"289.371 473.944 OFFCURVE",
"267.142 498 OFFCURVE",
"238.615 498 CURVE SMOOTH",
"209.26 498 OFFCURVE",
"193.432 477 OFFCURVE",
"193.432 453.164 CURVE SMOOTH",
"193.432 440.756 OFFCURVE",
"196.948 427.391 OFFCURVE",
"204.78 418 CURVE",
"127 379 LINE",
"107.69 404.207 OFFCURVE",
"99.956 430.604 OFFCURVE",
"99.956 458.407 CURVE SMOOTH",
"99.956 534.137 OFFCURVE",
"152.056 596 OFFCURVE",
"238.615 596 CURVE SMOOTH",
"315.605 596 OFFCURVE",
"387 539.336 OFFCURVE",
"387 430 CURVE SMOOTH",
"387 398.735 OFFCURVE",
"380 357 OFFCURVE",
"368 318 CURVE",
"368 318 OFFCURVE",
"287.531 318 OFFCURVE",
"239 318 CURVE SMOOTH",
"183 318 OFFCURVE",
"134 274 OFFCURVE",
"134 217 CURVE SMOOTH",
"134 160 OFFCURVE",
"180.782 116 OFFCURVE",
"239 116 CURVE SMOOTH",
"274.293 116 OFFCURVE",
"305.569 131.386 OFFCURVE",
"325.662 155.437 CURVE",
"412 93.042 LINE",
"371.89 36.3 OFFCURVE",
"309.454 0 OFFCURVE",
"239 0 CURVE SMOOTH",
"118.664 0 OFFCURVE",
"22 96.664 OFFCURVE"
);
},
{
closed = 1;
nodes = (
"154.334 -57.97 CURVE SMOOTH",
"154.334 -31.606 OFFCURVE",
"161.78 -4.275 OFFCURVE",
"178 21.538 CURVE",
"268 44.437 LINE",
"278 4 LINE",
"266.925 -8.774 OFFCURVE",
"261.221 -26.319 OFFCURVE",
"261.221 -43.205 CURVE SMOOTH",
"261.221 -70.996 OFFCURVE",
"276.672 -97 OFFCURVE",
"309.055 -97 CURVE SMOOTH",
"333.686 -97 OFFCURVE",
"360.509 -85.056 OFFCURVE",
"383 -54.563 CURVE",
"460 -106.563 LINE",
"414.089 -175.431 OFFCURVE",
"359.333 -202.407 OFFCURVE",
"309.055 -202.407 CURVE SMOOTH",
"216.628 -202.407 OFFCURVE",
"154.334 -134.23 OFFCURVE"
);
}
);
width = 410;
},
{
layerId = "CC11FE7D-5FF0-4B40-9597-DFC61EB94F41";
paths = (
{
closed = 1;
nodes = (
"33 212 CURVE SMOOTH",
"33 312.682 OFFCURVE",
"106 411 OFFCURVE",
"229.945 411 CURVE SMOOTH",
"254.226 411 OFFCURVE",
"302 411 OFFCURVE",
"325.802 411 CURVE",
"327.802 422 OFFCURVE",
"331 438.288 OFFCURVE",
"331 454 CURVE SMOOTH",
"331 524.746 OFFCURVE",
"288.918 557 OFFCURVE",
"240.556 557 CURVE SMOOTH",
"200.171 557 OFFCURVE",
"157.723 530.043 OFFCURVE",
"157.723 474 CURVE SMOOTH",
"157.723 431.347 OFFCURVE",
"179.467 406.53 OFFCURVE",
"188.63 398 CURVE",
"164.723 376 LINE",
"152.723 387 OFFCURVE",
"124.247 419 OFFCURVE",
"124.247 474 CURVE SMOOTH",
"124.247 553 OFFCURVE",
"183.85 591 OFFCURVE",
"240.556 591 CURVE SMOOTH",
"305.112 591 OFFCURVE",
"365 548.099 OFFCURVE",
"365 454 CURVE SMOOTH",
"365 424.453 OFFCURVE",
"360 399.965 OFFCURVE",
"351 374 CURVE",
"351 374 OFFCURVE",
"273 374 OFFCURVE",
"229.945 374 CURVE SMOOTH",
"130.144 374 OFFCURVE",
"70 295.036 OFFCURVE",
"70 212 CURVE SMOOTH",
"70 101.981 OFFCURVE",
"151.336 41.842 OFFCURVE",
"233.843 41.842 CURVE SMOOTH",
"285.123 41.842 OFFCURVE",
"336.856 65.074 OFFCURVE",
"369.795 114 CURVE",
"399.072 91.696 LINE",
"358.854 31.546 OFFCURVE",
"295.688 2.998 OFFCURVE",
"233.072 2.998 CURVE SMOOTH",
"132.322 2.998 OFFCURVE",
"33 76.908 OFFCURVE"
);
},
{
closed = 1;
nodes = (
"173.124 -57 CURVE SMOOTH",
"173.124 -24.173 OFFCURVE",
"180.868 1.596 OFFCURVE",
"205.795 34 CURVE",
"234.795 36 LINE",
"236.795 17 LINE",
"214.646 -8.84 OFFCURVE",
"210.124 -30.466 OFFCURVE",
"210.124 -57 CURVE SMOOTH",
"210.124 -111.588 OFFCURVE",
"250.591 -156.696 OFFCURVE",
"305.795 -156.696 CURVE SMOOTH",
"359.233 -156.696 OFFCURVE",
"393.213 -132.977 OFFCURVE",
"421.165 -83 CURVE",
"450.442 -105.304 LINE",
"415.396 -164.568 OFFCURVE",
"372.795 -192.696 OFFCURVE",
"305.795 -192.696 CURVE SMOOTH",
"226.38 -192.696 OFFCURVE",
"173.124 -129.529 OFFCURVE"
);
}
);
width = 420;
}
);
unicode = 0DAF;
},
{
glyphname = sinDha;
lastChange = "2018-02-04 13:36:43 +0000";
layers = (
{
layerId = "6114C541-D024-4A3E-9713-6FAF49EAB318";
paths = (
{
closed = 1;
nodes = (
"22 231.204 CURVE SMOOTH",
"22 277.471 OFFCURVE",
"28.211 319.61 OFFCURVE",
"36.128 345 CURVE SMOOTH",
"60.197 422.729 OFFCURVE",
"115.579 472 OFFCURVE",
"187.678 472 CURVE SMOOTH",
"215.444 472 OFFCURVE",
"244.476 465.063 OFFCURVE",
"272.85 445.258 CURVE",
"234.984 345 LINE",
"221.137 352.989 OFFCURVE",
"208.467 356.607 OFFCURVE",
"197.121 356.607 CURVE SMOOTH",
"170.338 356.607 OFFCURVE",
"150.938 336.442 OFFCURVE",
"140.864 306 CURVE SMOOTH",
"136.433 291.601 OFFCURVE",
"132.947 261.724 OFFCURVE",
"132.947 229.771 CURVE SMOOTH",
"132.947 175.234 OFFCURVE",
"143.101 114.652 OFFCURVE",
"176.038 114.652 CURVE SMOOTH",
"218.214 114.652 OFFCURVE",
"233.22 179.678 OFFCURVE",
"233.22 249.5 CURVE",
"329.131 249.5 LINE",
"329.131 176.75 OFFCURVE",
"344.599 115 OFFCURVE",
"387.589 115 CURVE SMOOTH",
"444.345 115 OFFCURVE",
"444.345 239.958 OFFCURVE",
"444.345 293 CURVE SMOOTH",
"444.345 522.797 OFFCURVE",
"401.345 639.885 OFFCURVE",
"263.345 639.885 CURVE SMOOTH",
"222.241 639.885 OFFCURVE",
"174.582 618.96 OFFCURVE",
"157.526 576.855 CURVE",
"48.494 613.029 LINE",
"84.479 707.868 OFFCURVE",
"176.624 755 OFFCURVE",
"263.345 755 CURVE SMOOTH",
"480.345 755 OFFCURVE",
"559.345 599.056 OFFCURVE",
"559.345 293 CURVE SMOOTH",
"559.345 181.996 OFFCURVE",
"558.345 0 OFFCURVE",
"387.589 0 CURVE SMOOTH",
"331.669 0 OFFCURVE",
"293.646 33.145 OFFCURVE",
"278.826 79.03 CURVE",
"262.681 31.603 OFFCURVE",
"223.269 0 OFFCURVE",
"170.589 0 CURVE SMOOTH",
"53.98 0 OFFCURVE",
"22 126.225 OFFCURVE"
);
}
);
width = 581;
},
{
layerId = "CC11FE7D-5FF0-4B40-9597-DFC61EB94F41";
paths = (
{
closed = 1;
nodes = (
"32.609 214 CURVE SMOOTH",
"32.609 266.264 OFFCURVE",
"43.58 312.662 OFFCURVE",
"61.717 350 CURVE SMOOTH",
"90.837 409.948 OFFCURVE",
"138.43 446.538 OFFCURVE",
"188.747 446.538 CURVE SMOOTH",
"207.651 446.538 OFFCURVE",
"225.995 441.8 OFFCURVE",
"245.747 432 CURVE",
"229.747 400 LINE",
"215.539 407.104 OFFCURVE",
"202.345 410.538 OFFCURVE",
"188.747 410.538 CURVE SMOOTH",
"149.977 410.538 OFFCURVE",
"114.854 379.613 OFFCURVE",
"92.952 331 CURVE SMOOTH",
"78.338 298.563 OFFCURVE",
"69.609 258.253 OFFCURVE",
"69.609 214 CURVE SMOOTH",
"69.609 130.796 OFFCURVE",
"92.002 40 OFFCURVE",
"159.443 40 CURVE SMOOTH",
"250.609 40 OFFCURVE",
"257.201 148.886 OFFCURVE",
"260.443 224.5 CURVE",
"294.443 224.5 LINE",
"297.686 148.886 OFFCURVE",
"304.277 40 OFFCURVE",
"395.443 40 CURVE SMOOTH",
"488.177 40 OFFCURVE",
"495 164 OFFCURVE",
"495 293 CURVE SMOOTH",
"495 576.887 OFFCURVE",
"420.549 712 OFFCURVE",
"267.443 712 CURVE SMOOTH",
"196.571 712 OFFCURVE",
"128.095 665.927 OFFCURVE",
"104.771 605 CURVE",
"70.771 618 LINE",
"98.97 692.593 OFFCURVE",
"181.758 749 OFFCURVE",
"267.443 749 CURVE SMOOTH",
"445.443 749 OFFCURVE",
"532 601.955 OFFCURVE",
"532 293 CURVE SMOOTH",
"532 145.135 OFFCURVE",
"522.641 3 OFFCURVE",
"395.443 3 CURVE SMOOTH",
"300.277 3 OFFCURVE",
"281.277 85 OFFCURVE",
"277.443 115 CURVE",
"273.609 85 OFFCURVE",
"254.609 3 OFFCURVE",
"159.443 3 CURVE SMOOTH",
"61.448 3 OFFCURVE",
"32.609 115.606 OFFCURVE"
);
}
);
width = 564;
}
);
unicode = 0DB0;
},
{
glyphname = sinNa;
lastChange = "2018-02-04 13:36:43 +0000";
layers = (
{
layerId = "6114C541-D024-4A3E-9713-6FAF49EAB318";
paths = (
{
closed = 1;
nodes = (
"569.647 0 OFFCURVE",
"660 49.516 OFFCURVE",
"660 275 CURVE SMOOTH",
"660 524.922 OFFCURVE",
"546 594 OFFCURVE",
"439 594 CURVE SMOOTH",
"349 594 OFFCURVE",
"282 539.269 OFFCURVE",
"242 462 CURVE SMOOTH",
"209 399 OFFCURVE",
"185 262 OFFCURVE",
"127 261 CURVE SMOOTH",
"123 261 OFFCURVE",
"119 262 OFFCURVE",
"114.372 263 CURVE",
"54 209 LINE",
"75 195 OFFCURVE",
"119 178 OFFCURVE",
"149 178 CURVE SMOOTH",
"261 178 OFFCURVE",
"291 353 OFFCURVE",
"328 409 CURVE SMOOTH",
"369 470 OFFCURVE",
"397.028 482 OFFCURVE",
"439 482 CURVE SMOOTH",
"490.256 482 OFFCURVE",
"554 438.191 OFFCURVE",
"554 275 CURVE SMOOTH",
"554 134.226 OFFCURVE",
"512.567 103 OFFCURVE",
"471 103 CURVE SMOOTH",
"418.564 103 OFFCURVE",
"414.521 141.185 OFFCURVE",
"408 157.771 CURVE",
"340 93.771 LINE",
"350.458 57.792 OFFCURVE",
"385.494 0 OFFCURVE",
"471 0 CURVE SMOOTH"
);
},
{
closed = 1;
nodes = (
"349.08 0 OFFCURVE",
"443 61 OFFCURVE",
"443 223 CURVE SMOOTH",
"443 346 OFFCURVE",
"384 390 OFFCURVE",
"336 407 CURVE SMOOTH",
"315 414 OFFCURVE",
"297 415 OFFCURVE",
"286 416 CURVE",
"233 323 LINE",
"239 323 OFFCURVE",
"244 323 OFFCURVE",
"250 323 CURVE SMOOTH",
"296 321 OFFCURVE",
"336 299 OFFCURVE",
"336 224 CURVE SMOOTH",
"336 155 OFFCURVE",
"303.409 109 OFFCURVE",
"226 109 CURVE SMOOTH",
"152 109 OFFCURVE",
"120 142 OFFCURVE",
"120 226 CURVE SMOOTH",
"120 242 OFFCURVE",
"121 259 OFFCURVE",
"123.372 279 CURVE",
"27.372 286 LINE",
"25 265 OFFCURVE",
"23 245 OFFCURVE",
"23 226 CURVE SMOOTH",
"24 77 OFFCURVE",
"109 0 OFFCURVE",
"226 0 CURVE SMOOTH"
);
},
{
closed = 1;
nodes = (
"219.629 380.563 LINE",
"210 382 OFFCURVE",
"202 384 OFFCURVE",
"194 386 CURVE SMOOTH",
"155 398 OFFCURVE",
"131 424 OFFCURVE",
"130.77 451.466 CURVE SMOOTH",
"130.77 474.576 OFFCURVE",
"144.36 495.563 OFFCURVE",
"172.194 495.563 CURVE SMOOTH",
"200.721 495.563 OFFCURVE",
"224.565 471.507 OFFCURVE",
"224.565 433.874 CURVE SMOOTH",
"224.565 428.211 OFFCURVE",
"224.062 422.241 OFFCURVE",
"223.001 415.999 CURVE",
"322.194 427.563 LINE",
"322.194 536.898 OFFCURVE",
"250.799 593.563 OFFCURVE",
"173.809 593.563 CURVE SMOOTH",
"86.193 593.563 OFFCURVE",
"38.193 531.695 OFFCURVE",
"38.193 461.1 CURVE SMOOTH",
"38 402 OFFCURVE",
"78 346 OFFCURVE",
"153 315 CURVE SMOOTH",
"166 310 OFFCURVE",
"179 306 OFFCURVE",
"193.001 302.462 CURVE"
);
}
);
width = 680;
},
{
layerId = "CC11FE7D-5FF0-4B40-9597-DFC61EB94F41";
paths = (
{
closed = 1;
nodes = (
"588.302 3 OFFCURVE",
"645 93.449 OFFCURVE",
"645 272 CURVE SMOOTH",
"645 505.28 OFFCURVE",
"549.394 591 OFFCURVE",
"440 591 CURVE SMOOTH",
"341.026 591 OFFCURVE",
"294.39 524.125 OFFCURVE",
"259.376 448 CURVE SMOOTH",
"214.941 351.392 OFFCURVE",
"202 233.066 OFFCURVE",
"121 233.066 CURVE SMOOTH",
"100 233.066 OFFCURVE",
"74 237 OFFCURVE",
"71 258 CURVE",
"40 250 LINE",
"51.571 205 OFFCURVE",
"93.036 196.066 OFFCURVE",
"121 196.066 CURVE SMOOTH",
"234.57 196.066 OFFCURVE",
"244.376 334.466 OFFCURVE",
"293.376 434 CURVE SMOOTH",
"324.844 497.922 OFFCURVE",
"358.301 554 OFFCURVE",
"440 554 CURVE SMOOTH",
"529.649 554 OFFCURVE",
"608 478.223 OFFCURVE",
"608 272 CURVE SMOOTH",
"608 101.371 OFFCURVE",
"545.947 40 OFFCURVE",
"469 40 CURVE SMOOTH",
"421 40 OFFCURVE",
"386.438 65 OFFCURVE",
"379 95 CURVE",
"345 86 LINE",
"355.248 40.728 OFFCURVE",
"402 3 OFFCURVE",
"469 3 CURVE SMOOTH"
);
},
{
closed = 1;
nodes = (
"326.376 3 OFFCURVE",
"404.419 64 OFFCURVE",
"404.419 195.999 CURVE SMOOTH",
"404.419 342.384 OFFCURVE",
"352.845 387.294 OFFCURVE",
"297.292 387.294 CURVE SMOOTH",
"275.517 387.294 OFFCURVE",
"253.131 380.394 OFFCURVE",
"233 370 CURVE",
"251 343 LINE",
"263.365 349.187 OFFCURVE",
"276.028 352.658 OFFCURVE",
"288.234 352.658 CURVE SMOOTH",
"330.545 352.658 OFFCURVE",
"367.376 310.944 OFFCURVE",
"367.376 195.999 CURVE SMOOTH",
"367.376 89.306 OFFCURVE",
"304.872 40 OFFCURVE",
"218.376 40 CURVE SMOOTH",
"117 40 OFFCURVE",
"71 129 OFFCURVE",
"71 225 CURVE SMOOTH",
"71 241 OFFCURVE",
"72 257 OFFCURVE",
"74.376 272 CURVE",
"37.376 272 LINE",
"34.476 254.048 OFFCURVE",
"33 235.924 OFFCURVE",
"33 218.019 CURVE SMOOTH",
"33 106.261 OFFCURVE",
"90.514 3 OFFCURVE",
"218.376 3 CURVE SMOOTH"
);
},
{
closed = 1;
nodes = (
"228 354.079 LINE",
"210.115 354.418 OFFCURVE",
"197.802 355.867 OFFCURVE",
"184 359.062 CURVE SMOOTH",
"118.413 374.241 OFFCURVE",
"81.92 412.751 OFFCURVE",
"81.92 473.563 CURVE SMOOTH",
"81.92 529.606 OFFCURVE",
"124.367 556.563 OFFCURVE",
"164.753 556.563 CURVE SMOOTH",
"213.115 556.563 OFFCURVE",
"255.197 524.31 OFFCURVE",
"255.197 453.563 CURVE SMOOTH",
"255 436 OFFCURVE",
"252 419 OFFCURVE",
"252 402 CURVE",
"289.197 453.563 LINE",
"289.197 547.662 OFFCURVE",
"229.31 590.563 OFFCURVE",
"164.753 590.563 CURVE SMOOTH",
"108.047 590.563 OFFCURVE",
"48.444 552.563 OFFCURVE",
"48.444 473.563 CURVE SMOOTH",
"48.444 395.242 OFFCURVE",
"99.984 344.33 OFFCURVE",
"178 327.509 CURVE SMOOTH",
"194.879 323.869 OFFCURVE",
"209.269 323.458 OFFCURVE",
"226 323.458 CURVE"
);
}
);
width = 669;
}
);
unicode = 0DB1;
},
{
glyphname = sinNda;
lastChange = "2018-02-04 13:36:43 +0000";
layers = (
{
layerId = "6114C541-D024-4A3E-9713-6FAF49EAB318";
paths = (
{
closed = 1;
nodes = (
"322.334 -57.971 CURVE SMOOTH",
"322.334 -31.606 OFFCURVE",
"329.779 -4.275 OFFCURVE",
"346 21.538 CURVE",
"436 44.437 LINE",
"446 4 LINE",
"434.925 -8.773 OFFCURVE",
"429.221 -26.319 OFFCURVE",
"429.221 -43.205 CURVE SMOOTH",
"429.221 -70.996 OFFCURVE",
"444.672 -97 OFFCURVE",
"477.055 -97 CURVE SMOOTH",
"501.686 -97 OFFCURVE",
"528.509 -85.056 OFFCURVE",
"551 -54.563 CURVE",
"628 -106.563 LINE",
"582.089 -175.431 OFFCURVE",
"527.333 -202.407 OFFCURVE",
"477.055 -202.407 CURVE SMOOTH",
"384.628 -202.407 OFFCURVE",
"322.334 -134.229 OFFCURVE"
);
},
{
closed = 1;
nodes = (
"190 217 CURVE SMOOTH",
"190 330.947 OFFCURVE",
"286.68 421.352 OFFCURVE",
"407 421.352 CURVE SMOOTH",
"425.83 421.352 OFFCURVE",
"438 420 OFFCURVE",
"455.807 418.437 CURVE",
"456.868 424.679 OFFCURVE",
"457.371 430.648 OFFCURVE",
"457.371 436.312 CURVE SMOOTH",
"457.371 473.944 OFFCURVE",
"435.142 498 OFFCURVE",
"406.615 498 CURVE SMOOTH",
"377.26 498 OFFCURVE",
"361.432 477 OFFCURVE",
"361.432 453.164 CURVE SMOOTH",
"361.432 440.756 OFFCURVE",
"364.948 427.391 OFFCURVE",
"372.78 418 CURVE",
"295 379 LINE",
"275.69 404.207 OFFCURVE",
"267.956 430.604 OFFCURVE",
"267.956 458.407 CURVE SMOOTH",
"267.956 534.137 OFFCURVE",
"320.056 596 OFFCURVE",
"406.615 596 CURVE SMOOTH",
"483.605 596 OFFCURVE",
"555 539.336 OFFCURVE",
"555 430 CURVE SMOOTH",
"555 398.735 OFFCURVE",
"548 357 OFFCURVE",
"536 318 CURVE",
"536 318 OFFCURVE",
"455.531 318 OFFCURVE",
"407 318 CURVE SMOOTH",
"351 318 OFFCURVE",
"302 274 OFFCURVE",
"302 217 CURVE SMOOTH",
"302 160 OFFCURVE",
"348.782 116 OFFCURVE",
"407 116 CURVE SMOOTH",
"442.293 116 OFFCURVE",
"473.569 131.386 OFFCURVE",
"493.662 155.437 CURVE",
"580 93.042 LINE",
"539.89 36.3 OFFCURVE",
"477.454 0 OFFCURVE",
"407 0 CURVE SMOOTH",
"286.664 0 OFFCURVE",
"190 96.664 OFFCURVE"
);
},
{
closed = 1;
nodes = (
"22 284 CURVE SMOOTH",
"22 506.574 OFFCURVE",
"106.772 584 OFFCURVE",
"210.372 584 CURVE SMOOTH",
"279.691 584 OFFCURVE",
"317.521 527.58 OFFCURVE",
"326 487 CURVE",
"272 426 LINE",
"266.823 442.586 OFFCURVE",
"252 480 OFFCURVE",
"210.372 480 CURVE SMOOTH",
"167.27 480 OFFCURVE",
"128 425.659 OFFCURVE",
"128 284 CURVE SMOOTH",
"128 131.656 OFFCURVE",
"151.779 102 OFFCURVE",
"185 102 CURVE SMOOTH",
"185 0 LINE SMOOTH",
"90 0 OFFCURVE",
"22 46.276 OFFCURVE"
);
}
);
width = 578;
},
{
layerId = "CC11FE7D-5FF0-4B40-9597-DFC61EB94F41";
paths = (
{
closed = 1;
nodes = (
"289.384 -56.999 CURVE SMOOTH",
"289.384 -24.172 OFFCURVE",
"297.128 1.597 OFFCURVE",
"322.055 34.001 CURVE",
"351.055 36.001 LINE",
"353.055 17.001 LINE",
"330.906 -8.839 OFFCURVE",
"326.384 -30.465 OFFCURVE",
"326.384 -56.999 CURVE SMOOTH",
"326.384 -111.587 OFFCURVE",
"366.851 -156.695 OFFCURVE",
"422.055 -156.695 CURVE SMOOTH",
"475.493 -156.695 OFFCURVE",
"509.473 -132.976 OFFCURVE",
"537.425 -82.999 CURVE",
"566.702 -105.303 LINE",
"531.656 -164.567 OFFCURVE",
"489.055 -192.695 OFFCURVE",
"422.055 -192.695 CURVE SMOOTH",
"342.64 -192.695 OFFCURVE",
"289.384 -129.528 OFFCURVE"
);
},
{
closed = 1;
nodes = (
"149.26 212.001 CURVE SMOOTH",
"149.26 312.683 OFFCURVE",
"222.26 411.001 OFFCURVE",
"346.205 411.001 CURVE SMOOTH",
"370.485 411.001 OFFCURVE",
"418.26 411.001 OFFCURVE",
"442.062 411.001 CURVE",
"444.062 422.001 OFFCURVE",
"447.26 438.289 OFFCURVE",
"447.26 454.001 CURVE SMOOTH",
"447.26 524.747 OFFCURVE",
"405.178 557.001 OFFCURVE",
"356.815 557.001 CURVE SMOOTH",
"316.431 557.001 OFFCURVE",
"273.982 530.044 OFFCURVE",
"273.982 474.001 CURVE SMOOTH",
"273.982 431.348 OFFCURVE",
"295.727 406.531 OFFCURVE",
"304.89 398.001 CURVE",
"280.982 376.001 LINE",
"268.982 387.001 OFFCURVE",
"240.507 419.001 OFFCURVE",
"240.507 474.001 CURVE SMOOTH",
"240.507 553.001 OFFCURVE",
"300.109 591.001 OFFCURVE",
"356.815 591.001 CURVE SMOOTH",
"421.372 591.001 OFFCURVE",
"481.26 548.1 OFFCURVE",
"481.26 454.001 CURVE SMOOTH",
"481.26 424.454 OFFCURVE",
"476.26 399.966 OFFCURVE",
"467.26 374.001 CURVE",
"467.26 374.001 OFFCURVE",
"389.26 374.001 OFFCURVE",
"346.205 374.001 CURVE SMOOTH",
"246.403 374.001 OFFCURVE",
"186.26 295.037 OFFCURVE",
"186.26 212.001 CURVE SMOOTH",
"186.26 101.982 OFFCURVE",
"267.596 41.843 OFFCURVE",
"350.103 41.843 CURVE SMOOTH",
"401.383 41.843 OFFCURVE",
"453.116 65.075 OFFCURVE",
"486.055 114.001 CURVE",
"515.332 91.697 LINE",
"475.113 31.547 OFFCURVE",
"411.947 2.999 OFFCURVE",
"349.332 2.999 CURVE SMOOTH",
"248.582 2.999 OFFCURVE",
"149.26 76.909 OFFCURVE"
);
},
{
closed = 1;
nodes = (
"33 284 CURVE SMOOTH",
"33 516.989 OFFCURVE",
"104.588 579 OFFCURVE",
"172 579 CURVE SMOOTH",
"241 579 OFFCURVE",
"273.982 534 OFFCURVE",
"273.982 474.001 CURVE",
"240.507 474.001 LINE",
"238.886 521.658 OFFCURVE",
"209.584 542 OFFCURVE",
"172 542 CURVE SMOOTH",
"109.567 542 OFFCURVE",
"70 447.086 OFFCURVE",
"70 284 CURVE SMOOTH",
"70 114.295 OFFCURVE",
"111 49.014 OFFCURVE",
"145 43 CURVE",
"145 6 LINE",
"83.681 14.378 OFFCURVE",
"33 88.24 OFFCURVE"
);
}
);
width = 599;
}
);
unicode = 0DB3;
},
{
glyphname = sinPa;
lastChange = "2018-02-04 13:36:43 +0000";
layers = (
{
layerId = "6114C541-D024-4A3E-9713-6FAF49EAB318";
paths = (
{
closed = 1;
nodes = (
"243.602 467.354 CURVE SMOOTH",
"243.602 473.071 OFFCURVE",
"244.166 478.329 OFFCURVE",
"245.417 483 CURVE SMOOTH",
"265.043 556.277 OFFCURVE",
"324.136 594 OFFCURVE",
"386.954 594 CURVE SMOOTH",
"473.514 594 OFFCURVE",
"525.613 532.137 OFFCURVE",
"525.613 456.407 CURVE SMOOTH",
"525.613 428.149 OFFCURVE",
"514.365 394.649 OFFCURVE",
"494.228 369.03 CURVE",
"417.519 410.437 LINE",
"425.502 419.561 OFFCURVE",
"432.138 439.108 OFFCURVE",
"432.138 451.164 CURVE SMOOTH",
"432.138 475 OFFCURVE",
"417.925 496 OFFCURVE",
"382.781 496 CURVE SMOOTH",
"360.043 496 OFFCURVE",
"331.217 481.03 OFFCURVE",
"331.217 434.342 CURVE SMOOTH",
"331.217 428.679 OFFCURVE",
"331.72 422.242 OFFCURVE",
"332.781 416 CURVE SMOOTH",
"286.281 318.437 LINE",
"273.67 359.423 OFFCURVE",
"243.602 425.625 OFFCURVE"
);
},
{
closed = 1;
nodes = (
"128.561 224 CURVE SMOOTH",
"128.561 144.037 OFFCURVE",
"207.272 104.167 OFFCURVE",
"286.058 104.167 CURVE SMOOTH",
"364.991 104.167 OFFCURVE",
"444 144.187 OFFCURVE",
"444 224 CURVE SMOOTH",
"444 275.726 OFFCURVE",
"416.561 318 OFFCURVE",
"361.561 318 CURVE SMOOTH",
"211 318 LINE SMOOTH",
"156 318 OFFCURVE",
"128.561 275.726 OFFCURVE"
);
},
{
closed = 1;
nodes = (
"21.56 224 CURVE SMOOTH",
"21.56 329.377 OFFCURVE",
"82.617 416 OFFCURVE",
"205 416 CURVE SMOOTH",
"367.561 416 LINE SMOOTH",
"489.943 416 OFFCURVE",
"551 329.652 OFFCURVE",
"551 224 CURVE SMOOTH",
"551 66.501 OFFCURVE",
"418.641 -12.249 OFFCURVE",
"286.281 -12.249 CURVE SMOOTH",
"153.921 -12.249 OFFCURVE",
"21.56 66.502 OFFCURVE"
);
},
{
closed = 1;
nodes = (
"46.949 456.407 CURVE SMOOTH",
"46.949 532.137 OFFCURVE",
"99.049 594 OFFCURVE",
"185.608 594 CURVE SMOOTH",
"248.427 594 OFFCURVE",
"307.519 556.277 OFFCURVE",
"327.146 483 CURVE SMOOTH",
"328.396 478.329 OFFCURVE",
"328.961 473.071 OFFCURVE",
"328.961 467.354 CURVE SMOOTH",
"328.961 425.625 OFFCURVE",
"298.892 359.423 OFFCURVE",
"286.281 318.437 CURVE",
"239.781 416 LINE SMOOTH",
"240.843 422.242 OFFCURVE",
"241.346 428.679 OFFCURVE",
"241.346 434.342 CURVE SMOOTH",
"241.346 481.03 OFFCURVE",
"212.52 496 OFFCURVE",
"189.781 496 CURVE SMOOTH",
"154.638 496 OFFCURVE",
"140.425 475 OFFCURVE",
"140.425 451.164 CURVE SMOOTH",
"140.425 439.108 OFFCURVE",
"147.061 419.561 OFFCURVE",
"155.044 410.437 CURVE",
"78.335 369.03 LINE",
"58.196 394.649 OFFCURVE",
"46.949 428.149 OFFCURVE"
);
}
);
width = 573;
},
{
layerId = "CC11FE7D-5FF0-4B40-9597-DFC61EB94F41";
paths = (
{
closed = 1;
nodes = (
"271.833 454 CURVE SMOOTH",
"271.833 466.186 OFFCURVE",
"272.838 477.513 OFFCURVE",
"274.728 488 CURVE SMOOTH",
"287.424 558.491 OFFCURVE",
"340.082 591 OFFCURVE",
"396.278 591 CURVE SMOOTH",
"452.984 591 OFFCURVE",
"512.587 553 OFFCURVE",
"512.587 474 CURVE SMOOTH",
"512.587 429.732 OFFCURVE",
"492.27 385.565 OFFCURVE",
"460.723 361 CURVE",
"434.723 382 LINE",
"461.723 402 OFFCURVE",
"479.111 437.959 OFFCURVE",
"479.111 474 CURVE SMOOTH",
"479.111 530.043 OFFCURVE",
"436.663 557 OFFCURVE",
"396.278 557 CURVE SMOOTH",
"347.916 557 OFFCURVE",
"305.834 524.746 OFFCURVE",
"305.834 454 CURVE SMOOTH",
"305.834 435 OFFCURVE",
"305.834 416 OFFCURVE",
"305.834 402 CURVE",
"288.834 369 LINE",
"279.117 397.663 OFFCURVE",
"271.833 421.384 OFFCURVE"
);
},
{
closed = 1;
nodes = (
"70 224.437 CURVE SMOOTH",
"70 107.242 OFFCURVE",
"156.024 30 OFFCURVE",
"288.834 30 CURVE SMOOTH",
"421.644 30 OFFCURVE",
"507.668 106.806 OFFCURVE",
"507.668 224 CURVE SMOOTH",
"507.668 299.407 OFFCURVE",
"469.191 365 OFFCURVE",
"385 365 CURVE SMOOTH",
"192.668 365 LINE SMOOTH",
"108.477 365 OFFCURVE",
"70 299.844 OFFCURVE"
);
},
{
closed = 1;
nodes = (
"33 224.437 CURVE SMOOTH",
"33 319.693 OFFCURVE",
"85.903 402 OFFCURVE",
"192.668 402 CURVE SMOOTH",
"385 402 LINE SMOOTH",
"491.765 402 OFFCURVE",
"544.668 319.257 OFFCURVE",
"544.668 224 CURVE SMOOTH",
"544.668 84.505 OFFCURVE",
"444.34 -7 OFFCURVE",
"288.834 -7 CURVE SMOOTH",
"133.328 -7 OFFCURVE",
"33 84.941 OFFCURVE"
);
},
{
closed = 1;
nodes = (
"65.08 474 CURVE SMOOTH",
"65.08 553 OFFCURVE",
"124.683 591 OFFCURVE",
"181.389 591 CURVE SMOOTH",
"237.585 591 OFFCURVE",
"290.247 558.491 OFFCURVE",
"302.94 488 CURVE SMOOTH",
"304.829 477.514 OFFCURVE",
"305.833 466.186 OFFCURVE",
"305.833 454 CURVE SMOOTH",
"305.833 421.384 OFFCURVE",
"298.549 397.663 OFFCURVE",
"288.833 369 CURVE",
"271.833 402 LINE",
"271.833 416 OFFCURVE",
"271.833 435 OFFCURVE",
"271.833 454 CURVE SMOOTH",
"271.833 524.746 OFFCURVE",
"229.751 557 OFFCURVE",
"181.389 557 CURVE SMOOTH",
"141.004 557 OFFCURVE",
"98.556 530.043 OFFCURVE",
"98.556 474 CURVE SMOOTH",
"98.556 437.959 OFFCURVE",
"115.944 402 OFFCURVE",
"142.944 382 CURVE",
"116.944 361 LINE",
"85.397 385.565 OFFCURVE",
"65.08 429.732 OFFCURVE"
);
}
);
width = 577;
}
);
unicode = 0DB4;
},
{
glyphname = sinPha;
lastChange = "2018-02-04 13:36:43 +0000";
layers = (
{
layerId = "6114C541-D024-4A3E-9713-6FAF49EAB318";
paths = (
{
closed = 1;
nodes = (
"467.657 0 OFFCURVE",
"545.483 159.71 OFFCURVE",
"545.483 339.12 CURVE SMOOTH",
"545.483 530.927 OFFCURVE",
"456.529 745.25 OFFCURVE",
"329.426 811 CURVE",
"274.485 745.176 LINE",
"304.102 721.156 OFFCURVE",
"329.946 687.155 OFFCURVE",
"348.426 647 CURVE",
"376.606 626.196 OFFCURVE",
"398.464 582.607 OFFCURVE",
"404.426 541 CURVE",
"418.426 476 LINE SMOOTH",
"426.388 443.196 OFFCURVE",
"433.624 394.672 OFFCURVE",
"433.624 343.767 CURVE SMOOTH",
"433.624 234.833 OFFCURVE",
"400.488 115 OFFCURVE",
"270.426 115 CURVE SMOOTH",
"163.326 115 OFFCURVE",
"132.675 174 OFFCURVE",
"132.675 226.602 CURVE SMOOTH",
"132.675 270.602 OFFCURVE",
"145.075 306 OFFCURVE",
"201.075 306 CURVE SMOOTH",
"326.132 306 LINE",
"264.188 391 LINE",
"158.076 391 LINE SMOOTH",
"121.475 391 OFFCURVE",
"93.397 380.164 OFFCURVE",
"72.378 362 CURVE SMOOTH",
"41.898 335.661 OFFCURVE",
"22 279.354 OFFCURVE",
"22 218.826 CURVE SMOOTH",
"22 137 OFFCURVE",
"78.324 0 OFFCURVE",
"270.426 0 CURVE SMOOTH"
);
},
{
closed = 1;
nodes = (
"333.382 474.899 OFFCURVE",
"261.983 531.563 OFFCURVE",
"184.997 531.563 CURVE SMOOTH",
"110.695 531.563 OFFCURVE",
"61.725 481.535 OFFCURVE",
"61.724 409.272 CURVE SMOOTH",
"61.724 380.62 OFFCURVE",
"72.188 351 OFFCURVE",
"92.188 318.563 CURVE",
"172.188 356 LINE",
"163.49 370.325 OFFCURVE",
"151.205 386.793 OFFCURVE",
"151.205 404.787 CURVE SMOOTH",
"151.205 426.133 OFFCURVE",
"160.197 444 OFFCURVE",
"184.997 444 CURVE SMOOTH",
"220.354 444 OFFCURVE",
"237 416 OFFCURVE",
"237.168 386.713 CURVE SMOOTH",
"237.168 381.77 OFFCURVE",
"236.693 376.782 OFFCURVE",
"235.753 371.875 CURVE",
"326.133 306 LINE",
"330.188 325 OFFCURVE",
"333.382 351 OFFCURVE",
"333.382 365.563 CURVE SMOOTH"
);
},
{
closed = 1;
nodes = (
"480.369 524 LINE",
"406.427 547 LINE",
"403 547 OFFCURVE",
"399 548 OFFCURVE",
"396 548 CURVE SMOOTH",
"351 555 OFFCURVE",
"329 584 OFFCURVE",
"329.427 605 CURVE SMOOTH",
"329.427 621.142 OFFCURVE",
"336.724 639.981 OFFCURVE",
"349.147 647 CURVE",
"368.369 755 LINE",
"274.486 745.177 LINE",
"285.343 735.273 OFFCURVE",
"289.427 727.053 OFFCURVE",
"289.427 719 CURVE SMOOTH",
"289.427 695.319 OFFCURVE",
"237.159 673.122 OFFCURVE",
"237.159 611.134 CURVE SMOOTH",
"237.159 540.309 OFFCURVE",
"303.599 485.97 OFFCURVE",
"370.369 467.641 CURVE SMOOTH",
"388.227 462.738 OFFCURVE",
"406.275 460.461 OFFCURVE",
"423.427 460 CURVE"
);
}
);
width = 548;
},
{
layerId = "CC11FE7D-5FF0-4B40-9597-DFC61EB94F41";
paths = (
{
closed = 1;
nodes = (
"417.816 3 OFFCURVE",
"505.758 126.91 OFFCURVE",
"505.758 342 CURVE SMOOTH",
"505.758 527 OFFCURVE",
"433.758 708 OFFCURVE",
"313.572 807 CURVE",
"290.572 780 LINE",
"310.374 764.43 OFFCURVE",
"328.823 746.32 OFFCURVE",
"345.762 726 CURVE SMOOTH",
"390.845 671.92 OFFCURVE",
"425.242 602.184 OFFCURVE",
"446.046 523 CURVE SMOOTH",
"451.869 499 LINE SMOOTH",
"462.906 449.491 OFFCURVE",
"468.757 396.685 OFFCURVE",
"468.757 342 CURVE SMOOTH",
"468.757 150.386 OFFCURVE",
"393.831 40 OFFCURVE",
"255.757 40 CURVE SMOOTH",
"99.832 40 OFFCURVE",
"69 154.403 OFFCURVE",
"69 219 CURVE SMOOTH",
"69 298.873 OFFCURVE",
"105.041 354 OFFCURVE",
"168 354 CURVE SMOOTH",
"304 354 LINE",
"285 388 LINE",
"168 388 LINE SMOOTH",
"137.733 388 OFFCURVE",
"111.493 379.237 OFFCURVE",
"90.403 363 CURVE SMOOTH",
"54.051 335.012 OFFCURVE",
"33 284.815 OFFCURVE",
"33 219 CURVE SMOOTH",
"33 141.051 OFFCURVE",
"69.776 3 OFFCURVE",
"255.758 3 CURVE SMOOTH"
);
},
{
closed = 1;
nodes = (
"306.444 481.099 OFFCURVE",
"246.556 524 OFFCURVE",
"182 524 CURVE SMOOTH",
"123.344 524 OFFCURVE",
"72 488 OFFCURVE",
"72 420 CURVE SMOOTH",
"72 388.023 OFFCURVE",
"88 358 OFFCURVE",
"103.818 344 CURVE",
"128 364 LINE",
"115 376 OFFCURVE",
"105.475 395.6 OFFCURVE",
"105.475 420 CURVE SMOOTH",
"105.475 467 OFFCURVE",
"140.043 490 OFFCURVE",
"182 490 CURVE SMOOTH",
"230.362 490 OFFCURVE",
"267 458 OFFCURVE",
"272.444 387 CURVE SMOOTH",
"273 380 OFFCURVE",
"272 376 OFFCURVE",
"272 373 CURVE",
"304 354 LINE",
"305.558 364.262 OFFCURVE",
"306.444 375.04 OFFCURVE",
"306.444 387 CURVE SMOOTH"
);
},
{
closed = 1;
nodes = (
"464.181 522 LINE",
"446.757 528 LINE",
"435.59 525.936 OFFCURVE",
"424.831 524.959 OFFCURVE",
"414.54 524.959 CURVE SMOOTH",
"351.317 524.959 OFFCURVE",
"309.571 561.562 OFFCURVE",
"309.571 603 CURVE SMOOTH",
"309.571 661.163 OFFCURVE",
"348.28 693.053 OFFCURVE",
"348.28 726.29 CURVE",
"354.181 761 LINE",
"290.571 780 LINE",
"309.349 766.913 OFFCURVE",
"316.066 754.219 OFFCURVE",
"316.066 740.685 CURVE SMOOTH",
"316.066 706.649 OFFCURVE",
"273.583 667.298 OFFCURVE",
"273.583 603.001 CURVE SMOOTH",
"273.583 543.568 OFFCURVE",
"329.3 491.074 OFFCURVE",
"413.681 491.074 CURVE SMOOTH",
"426.802 491.074 OFFCURVE",
"440.519 492.334 OFFCURVE",
"454.757 495 CURVE"
);
}
);
width = 534;
}
);
unicode = 0DB5;
},
{
glyphname = sinBa;
lastChange = "2018-02-04 13:36:43 +0000";
layers = (
{
layerId = "6114C541-D024-4A3E-9713-6FAF49EAB318";
paths = (
{
closed = 1;
nodes = (
"22 220 CURVE SMOOTH",
"22 425.89 OFFCURVE",
"98 488.874 OFFCURVE",
"202.186 488.874 CURVE SMOOTH",
"309.691 488.874 OFFCURVE",
"371.125 430 OFFCURVE",
"371.125 324 CURVE SMOOTH",
"371.125 251 OFFCURVE",
"320.483 228 OFFCURVE",
"320.483 177 CURVE SMOOTH",
"320.483 142.758 OFFCURVE",
"333.728 115 OFFCURVE",
"360 115 CURVE SMOOTH",
"412.212 115 OFFCURVE",
"439.24 190 OFFCURVE",
"439.24 293 CURVE SMOOTH",
"439.24 522.797 OFFCURVE",
"396.24 639.885 OFFCURVE",
"258.24 639.885 CURVE SMOOTH",
"217.137 639.885 OFFCURVE",
"169.478 618.96 OFFCURVE",
"152.422 576.855 CURVE",
"43.39 613.029 LINE",
"79.374 707.868 OFFCURVE",
"171.52 755 OFFCURVE",
"258.24 755 CURVE SMOOTH",
"475.24 755 OFFCURVE",
"554.24 599.056 OFFCURVE",
"554.24 293 CURVE SMOOTH",
"553.756 181.996 OFFCURVE",
"521.881 0 OFFCURVE",
"364.125 0 CURVE SMOOTH",
"239.822 0 OFFCURVE",
"211.587 87.405 OFFCURVE",
"211.587 177 CURVE SMOOTH",
"211.587 237 OFFCURVE",
"259.125 264 OFFCURVE",
"259.125 324 CURVE SMOOTH",
"259.125 354 OFFCURVE",
"243.691 376.433 OFFCURVE",
"201 376.433 CURVE SMOOTH",
"161.173 376.433 OFFCURVE",
"132 339.788 OFFCURVE",
"132 220 CURVE SMOOTH",
"132 128 OFFCURVE",
"150 110 OFFCURVE",
"171 110 CURVE SMOOTH",
"191 110 OFFCURVE",
"208 120 OFFCURVE",
"224 156 CURVE",
"280 73 LINE",
"251 28 OFFCURVE",
"223.479 0 OFFCURVE",
"171 0 CURVE SMOOTH",
"66 0 OFFCURVE",
"22 79 OFFCURVE"
);
}
);
width = 575;
},
{
layerId = "CC11FE7D-5FF0-4B40-9597-DFC61EB94F41";
paths = (
{
closed = 1;
nodes = (
"33 220 CURVE SMOOTH",
"33 419.134 OFFCURVE",
"108.666 486 OFFCURVE",
"196.061 486 CURVE SMOOTH",
"287.595 486 OFFCURVE",
"331 436.897 OFFCURVE",
"331 344 CURVE SMOOTH",
"331 247 OFFCURVE",
"257 228 OFFCURVE",
"257 137 CURVE SMOOTH",
"257 65.13 OFFCURVE",
"303.975 39 OFFCURVE",
"357 39 CURVE SMOOTH",
"458.697 39 OFFCURVE",
"485.619 145.855 OFFCURVE",
"485.619 293 CURVE SMOOTH",
"485.619 576.887 OFFCURVE",
"411.168 712 OFFCURVE",
"258.062 712 CURVE SMOOTH",
"187.19 712 OFFCURVE",
"118.714 665.927 OFFCURVE",
"95.39 605 CURVE",
"61.39 618 LINE",
"89.589 692.593 OFFCURVE",
"172.377 749 OFFCURVE",
"258.062 749 CURVE SMOOTH",
"436.062 749 OFFCURVE",
"522.619 601.955 OFFCURVE",
"522.619 293 CURVE SMOOTH",
"522.619 125 OFFCURVE",
"487.952 3 OFFCURVE",
"357 3 CURVE SMOOTH",
"262.843 3 OFFCURVE",
"221.114 58.315 OFFCURVE",
"221.114 137 CURVE SMOOTH",
"221.114 241 OFFCURVE",
"295 258 OFFCURVE",
"295 344 CURVE SMOOTH",
"295 413.346 OFFCURVE",
"263.175 450 OFFCURVE",
"196.061 450 CURVE SMOOTH",
"128.497 450 OFFCURVE",
"70 392.184 OFFCURVE",
"70 220 CURVE SMOOTH",
"70 105.193 OFFCURVE",
"95.778 39 OFFCURVE",
"155 39 CURVE SMOOTH",
"193.885 39 OFFCURVE",
"220.538 79 OFFCURVE",
"227 115 CURVE",
"257 108 LINE",
"247.556 52 OFFCURVE",
"216.124 3 OFFCURVE",
"155 3 CURVE SMOOTH",
"70 3 OFFCURVE",
"33 82.359 OFFCURVE"
);
}
);
width = 555;
}
);
unicode = 0DB6;
},
